<?xml version="1.0" standalone="no"?>
<!DOCTYPE svg PUBLIC "-//W3C//DTD SVG 1.1//EN" "http://www.w3.org/Graphics/SVG/1.1/DTD/svg11.dtd" >
<svg xmlns="http://www.w3.org/2000/svg">
<metadata></metadata>
<defs>
<font id="serif72_beta_rgregular" horiz-adv-x="590" >
<font-face units-per-em="1000" ascent="750" descent="-250" />
<missing-glyph horiz-adv-x="240" />
<glyph unicode="fi" horiz-adv-x="592" d="M13 465v21l75 13v19q0 100 54.5 167t152.5 67q58 0 106.5 -19.5t59.5 -55.5q7 -23 -7.5 -40.5t-40.5 -18.5t-42.5 28.5t-19.5 70.5q-26 16 -68 16q-55 0 -81.5 -45.5t-26.5 -119.5v-68h137v-35h-137v-441l68 -12l-1 -15l-111 3l-108 -3l-2 15l67 10v443h-75zM412 22v421 l-53 10l2 40l137 12l1 -481l68 -12l-1 -15l-111 3l-108 -3l-2 15z" />
<glyph unicode="fl" horiz-adv-x="584" d="M175 568v-68h137v-40h-137v-436l68 -12l-1 -15l-111 3l-108 -3l-2 15l67 10v438h-75v21l75 13v24q0 100 54.5 167t152.5 67q91 0 150 -34l50 8v-702l68 -12l-1 -15l-111 3l-108 -3l-2 15l67 10v639q-40 70 -125 70q-56 0 -82 -44.5t-26 -118.5z" />
<glyph unicode="Th" horiz-adv-x="1157" d="M638 22v643q-35 24 -99 24h-181v-666l69 -9l-1 -16l-112 3l-116 -3v16l66 9v666h-67q-64 1 -102.5 -27t-38.5 -84v-30h-31l1 166h612l87 18v-365q21 63 69.5 103t102.5 40q147 0 147 -149v-337l68 -12l-1 -15l-110 3l-108 -3l-2 15l67 10v329q0 110 -86 110 q-58 0 -102.5 -52t-44.5 -129v-256l68 -12l-1 -15l-111 3l-108 -3l-2 15z" />
<glyph unicode=" "  horiz-adv-x="240" />
<glyph unicode="&#x09;" horiz-adv-x="240" />
<glyph unicode="&#xa0;" horiz-adv-x="240" />
<glyph unicode="!" horiz-adv-x="314" d="M206 672l-32 -477q-1 -15 -16.5 -14.5t-16.5 14.5l-29 477q-1 21 13.5 35.5t35.5 15.5q20 1 33 -13.5t12 -37.5zM100 45q0 24 16 39t41 15t41 -15t16 -39q0 -25 -16 -40.5t-41 -15.5t-41 15.5t-16 40.5z" />
<glyph unicode="&#x22;" horiz-adv-x="370" d="M91 480l-14 202q-1 26 19 37.5t40 1t18 -38.5l-14 -202h-49zM236 480l-14 202q-1 26 19 37.5t40 1t18 -38.5l-14 -202h-49z" />
<glyph unicode="#" horiz-adv-x="528" d="M257 0l35 207h-101l-35 -207h-44l35 207h-117l3 43h122l35 206h-140l3 43h145l37 215h44l-37 -215h101l37 215h44l-37 -215h117l-3 -43h-122l-35 -206h140l-3 -43h-145l-35 -207h-44zM234 456l-35 -206h101l35 206h-101z" />
<glyph unicode="$" horiz-adv-x="541" d="M86 204q15 -159 128 -188l27 306q-103 50 -144.5 102.5t-41.5 117.5q0 79 66 130t139 51q11 0 16 -1l8 89h34l-9 -94q68 -15 102 -56l10 54h30v-192h-25q-6 72 -37.5 117t-80.5 59l-25 -279l17 -9q94 -50 138.5 -101t44.5 -113q0 -95 -62 -151t-150 -56q-5 0 -13.5 0.5 t-12.5 0.5l-7 -89h-34l8 94q-71 15 -116 69l-9 -64h-27v202zM407 159q0 26 -11 48.5t-33 40.5t-41 29.5t-49 27.5l-26 -294h17q63 0 103 42t40 106zM125 563q0 -22 9 -40t30 -34t37.5 -26t49.5 -27l24 269q-5 1 -13 1q-66 0 -101.5 -39.5t-35.5 -103.5z" />
<glyph unicode="%" horiz-adv-x="831" d="M102 566q0 67 43 112.5t115 45.5t115 -45.5t43 -112.5q0 -71 -43 -118.5t-115 -47.5t-115 48t-43 118zM178 566q0 -149 82 -149q43 0 62.5 41.5t19.5 107.5q0 62 -19.5 101t-62.5 39q-82 0 -82 -140zM190 0l413 714h44l-413 -714h-44zM422 156q0 67 43 112.5t115 45.5 t115 -45.5t43 -112.5q0 -71 -43 -118.5t-115 -47.5t-115 48t-43 118zM498 156q0 -148 82 -148q43 0 62.5 41.5t19.5 106.5q0 62 -19.5 101t-62.5 39q-82 0 -82 -140z" />
<glyph unicode="&#x26;" horiz-adv-x="691" d="M618 47q22 0 37 22l8 -6q-25 -70 -98 -70q-46 0 -103 62q-75 -63 -165 -63q-105 0 -164 45.5t-59 132.5q0 32 14.5 61.5t42.5 56t51 43t57 38.5l2 2l-24 39q-55 85 -54 152q1 70 43.5 114t115.5 44q54 0 92.5 -33.5t38.5 -92.5q0 -96 -129 -189l84 -134q61 -91 95 -136 q34 46 53 95q-3 12 -16.5 33.5t-13.5 38.5t8.5 28.5t25.5 11.5q44 0 30 -61q-18 -86 -72 -164q60 -70 100 -70zM314 256l-60 94q-80 -58 -80 -155q0 -74 39 -122.5t98 -48.5q71 0 134 50q-46 54 -131 182zM392 584q0 51 -17.5 82.5t-49.5 31.5q-38 0 -62 -27t-24 -79 q0 -25 10 -53t19.5 -43.5t31.5 -51.5l13 -21q79 71 79 161z" />
<glyph unicode="'" horiz-adv-x="185" d="M71 480l-14 202q-1 26 19 37.5t40 1t18 -38.5l-14 -202h-49z" />
<glyph unicode="(" horiz-adv-x="335" d="M315 -214l-6 -15q-111 61 -175 210t-64 316q0 98 27 195t82.5 179.5t129.5 122.5l6 -15q-55 -44 -91.5 -131t-49.5 -173.5t-13 -177.5q0 -160 36.5 -303t117.5 -208z" />
<glyph unicode=")" horiz-adv-x="335" d="M20 779l6 15q111 -61 175 -210t64 -316q0 -98 -27 -195t-82.5 -179.5t-129.5 -122.5l-6 15q55 44 91.5 131t49.5 173.5t13 177.5q0 160 -36.5 303t-117.5 208z" />
<glyph unicode="*" horiz-adv-x="482" d="M185 717h55l-5 -153l143 53l16 -54l-146 -42l92 -119l-45 -32l-84 122l-81 -122l-45 32l91 118l-146 43l18 53l142 -53z" />
<glyph unicode="+" horiz-adv-x="482" d="M215 500h53v-174h184v-53h-184v-175h-53v175h-185v53h185v174z" />
<glyph unicode="," horiz-adv-x="211" d="M52 45q0 24 16 39t41 15t41 -20.5t16 -53.5q0 -58 -35 -107t-67 -68l-19 22q29 24 46 48t19 62q-24 4 -41 22.5t-17 40.5z" />
<glyph unicode="-" horiz-adv-x="482" d="M80 276v73h322v-73h-322z" />
<glyph unicode="." horiz-adv-x="204" d="M45 45q0 24 16 39t41 15t41 -15t16 -39q0 -25 -16 -40.5t-41 -15.5t-41 15.5t-16 40.5z" />
<glyph unicode="/" horiz-adv-x="462" d="M35 -108l343 839h44l-343 -839h-44z" />
<glyph unicode="0" horiz-adv-x="620" d="M60 357q0 161 66.5 264t183.5 103t183.5 -103t66.5 -264t-66.5 -263.5t-183.5 -102.5t-183.5 102.5t-66.5 263.5zM166 357q0 -341 144 -341t144 341q0 342 -144 342t-144 -342z" />
<glyph unicode="1" horiz-adv-x="386" d="M238 35l88 -13v-24l-132 2l-133 -2v24l89 11v579h-90l1 31q98 6 131 71l46 2v-681z" />
<glyph unicode="2" horiz-adv-x="501" d="M98 81h341l11 27l21 -1l-20 -107h-418l-3 45q184 182 250.5 292.5t66.5 211.5q0 57 -29.5 96.5t-87.5 39.5q-66 0 -122 -48q34 -59 34 -94q0 -22 -16 -37.5t-41 -15.5q-33 0 -45.5 38.5t6.5 70.5q34 54 92.5 87t123.5 33q84 0 134 -47.5t52 -137.5q1 -57 -54 -138 t-105.5 -131t-158.5 -151q-21 -20 -32 -30v-3z" />
<glyph unicode="3" horiz-adv-x="555" d="M173 340l-12 28h1l-4 5q63 9 107 24.5t68 31.5t37 39t16 41.5t3 45.5q0 55 -34 98t-96 43q-60 0 -102 -33q19 -53 19 -94q0 -26 -15.5 -39.5t-41.5 -13.5q-37 0 -48.5 36.5t8.5 69.5q26 52 86.5 76t119.5 24q82 0 142 -43t60 -127q0 -64 -50 -111t-151 -69l3 -8 q104 -1 165 -53.5t61 -124.5q0 -67 -39 -112.5t-95.5 -64t-125.5 -18.5q-68 0 -126 27.5t-77 63.5q-21 44 -4.5 80t54.5 36q25 0 37.5 -16.5t12.5 -40.5q0 -37 -22 -78q10 -21 50.5 -35t74.5 -14q74 0 115 45t41 130q0 95 -60.5 134.5t-177.5 16.5z" />
<glyph unicode="4" horiz-adv-x="551" d="M35 162v33h1l334 519l46 -1v-518h90v-33h-90v-133l75 -13v-18l-119 2l-118 -2v18l74 11v135h-293zM328 584l-253 -389h253v389z" />
<glyph unicode="5" horiz-adv-x="527" d="M341 636h-179l-37 -236q57 49 150 49q104 0 153 -63t49 -147q0 -114 -67.5 -181t-174.5 -67q-60 0 -113 27.5t-70 63.5q-21 44 -4.5 80t54.5 36q25 0 37.5 -16.5t12.5 -40.5q0 -37 -22 -78q9 -21 41.5 -35t63.5 -14q72 0 107.5 58t35.5 150q0 194 -131 194 q-73 0 -122 -51h-5l-32 1l50 348h323v-115h-31q-5 12 -11 18.5t-25.5 12.5t-52.5 6z" />
<glyph unicode="6" horiz-adv-x="587" d="M507 588q-3 -43 -45 -43t-55 40q-14 49 4 96q-40 19 -70 19q-170 0 -175 -382q24 56 73 88.5t99 32.5q93 0 146 -56t53 -146q0 -98 -67 -172.5t-168 -74.5q-62 0 -110 28t-75 73.5t-40.5 96t-13.5 102.5q0 199 77 316.5t191 117.5q66 0 122.5 -35.5t53.5 -100.5zM311 12 q67 0 97.5 54.5t30.5 146.5q0 186 -122 186q-53 0 -94 -34.5t-57 -97.5q0 -50 5.5 -88.5t19.5 -79.5t44.5 -64t75.5 -23z" />
<glyph unicode="7" horiz-adv-x="458" d="M249 40q0 -46 -45 -46q-44 0 -44 46q0 134 57.5 289.5t174.5 301.5l-2 2h-297q-29 0 -40.5 -7t-26.5 -30l-21 1l16 117h417v-50q-109 -150 -149 -303.5t-40 -320.5z" />
<glyph unicode="8" horiz-adv-x="578" d="M503 561q0 -61 -43 -105.5t-112 -63.5q78 -33 131 -83t53 -116q0 -84 -64.5 -142t-169.5 -58t-169.5 49t-64.5 121q0 65 45 113t119 70q-66 31 -109.5 77.5t-43.5 107.5q0 80 59 135t155 55q97 0 155.5 -46t58.5 -114zM275 328l-25 9q-52 -20 -77 -64.5t-25 -99.5 q0 -71 36.5 -115.5t113.5 -44.5t113.5 42t36.5 108q0 31 -15 57t-42.5 46.5t-54 34t-61.5 27.5zM312 406l15 -5q92 37 92 150q0 66 -31.5 108t-98.5 42t-98.5 -39.5t-31.5 -100.5q0 -93 153 -155z" />
<glyph unicode="9" horiz-adv-x="582" d="M88 95v1q-4 11 -6 30.5t10.5 38.5t36.5 19q25 0 38 -15t13 -38q0 -39 -28 -76q43 -33 103 -33q50 0 86 38t53 99.5t24.5 121.5t7.5 123q-21 -62 -71.5 -93t-104.5 -31q-93 0 -146.5 58.5t-53.5 152.5q0 91 67 161t168 70q62 0 109.5 -29.5t74.5 -77.5t40 -101t13 -107 q0 -197 -73.5 -304.5t-182.5 -107.5q-69 0 -115 29.5t-63 70.5zM272 695q-124 0 -124 -210q0 -80 30 -127t92 -47q55 0 99 41t55 115q-15 228 -152 228z" />
<glyph unicode=":" horiz-adv-x="224" d="M55 410q0 24 16 39t41 15t41 -15t16 -39q0 -25 -16 -40.5t-41 -15.5t-41 15.5t-16 40.5zM55 45q0 24 16 39t41 15t41 -15t16 -39q0 -25 -16 -40.5t-41 -15.5t-41 15.5t-16 40.5z" />
<glyph unicode=";" horiz-adv-x="231" d="M59 410q0 24 16 39t41 15t41 -15t16 -39q0 -25 -16 -40.5t-41 -15.5t-41 15.5t-16 40.5zM62 45q0 24 16 39t41 15t41 -20.5t16 -53.5q0 -58 -35 -107t-67 -68l-19 22q29 24 46 48t19 62q-24 4 -41 22.5t-17 40.5z" />
<glyph unicode="&#x3c;" horiz-adv-x="421" d="M401 441l-325 -149l325 -144v-48l-379 168v47l379 169v-43z" />
<glyph unicode="=" horiz-adv-x="522" d="M40 366v53h442v-53h-442zM40 203v53h442v-53h-442z" />
<glyph unicode="&#x3e;" horiz-adv-x="421" d="M22 143l325 149l-325 144v48l379 -168v-47l-379 -169v43z" />
<glyph unicode="?" horiz-adv-x="488" d="M268 345v-150q0 -12 -36.5 -11.5t-36.5 11.5v134q79 27 116 84.5t37 121.5q0 75 -34.5 115.5t-96.5 40.5q-56 0 -102 -38q26 -43 26 -80q0 -22 -16 -37.5t-41 -15.5q-33 0 -41.5 33t10.5 62q33 49 88.5 79.5t117.5 30.5q82 0 129 -39.5t47 -120.5q0 -65 -48.5 -123 t-118.5 -97zM172 45q0 24 16 39t41 15t41 -15t16 -39q0 -25 -16 -40.5t-41 -15.5t-41 15.5t-16 40.5z" />
<glyph unicode="@" horiz-adv-x="888" d="M838 325q0 -105 -77.5 -197t-176.5 -92q-81 0 -69 112l3 30q-55 -147 -150 -147q-55 0 -85 48t-23 121q6 66 30.5 118t57.5 80t64.5 42.5t57.5 14.5q51 0 77 -36l13 29h62l-34 -299q-5 -51 3.5 -65.5t34.5 -14.5q47 0 89.5 39.5t66 98t23.5 117.5q0 118 -76.5 201 t-223.5 84q-78 0 -150.5 -28.5t-128.5 -81t-89.5 -132.5t-33.5 -175q0 -139 84.5 -229.5t236.5 -90.5q150 0 250 95l9 -12q-104 -109 -273 -109q-160 0 -252.5 100t-92.5 246q0 101 36 185.5t97 140.5t140.5 87t166.5 31t153 -26t104 -70.5t57 -98.5t19 -116zM406 84 q77 0 121 167l9 77q5 49 -12.5 76t-55.5 27q-48 0 -83.5 -54.5t-46.5 -166.5q-13 -126 68 -126z" />
<glyph unicode="A" horiz-adv-x="676" d="M15 12l57 9q42 116 84 238l157 455h51l235 -689l61 -13v-14l-111 2l-112 -2v14l68 11l-66 196h-263q-16 -50 -30 -99t-20 -73l-6 -24l78 -11v-14l-94 2l-89 -2v14zM309 611l-120 -351h237z" />
<glyph unicode="B" horiz-adv-x="646" d="M45 698l1 16h251q124 0 193 -50.5t69 -129.5q0 -136 -185 -167l1 -6q225 -21 225 -178q0 -80 -69.5 -131.5t-192.5 -51.5h-174l-118 -2v14l69 11v666zM208 25l123 -1q47 0 82.5 14.5t54.5 39t28.5 52t9.5 56.5q0 30 -8.5 57t-27.5 52t-57.5 39.5t-91.5 13.5h-113v-323z M208 371h72q53 -1 91.5 13t58 39t28 51.5t8.5 56.5q0 29 -9.5 56t-29 51t-55 38t-82.5 14l-82 -1v-318z" />
<glyph unicode="C" horiz-adv-x="654" d="M175 359q0 -155 59 -251.5t156 -96.5q176 0 195 183h24v-193h-24l-12 63q-21 -26 -72.5 -48.5t-112.5 -22.5q-41 0 -84.5 13t-86.5 42t-76.5 70.5t-54.5 103.5t-21 136t21 136t54.5 103.5t76.5 70.5t86.5 42t84.5 13q61 0 112.5 -19.5t72.5 -41.5l12 53h24v-183h-24 q-19 173 -195 173q-97 0 -156 -96t-59 -250z" />
<glyph unicode="D" horiz-adv-x="720" d="M193 25l92 -1q77 -1 132 29.5t83 83t40.5 108.5t12.5 118q0 58 -15 113t-46 104.5t-87 79.5t-130 30l-82 -1v-664zM31 714h261q167 0 265.5 -101t98.5 -247q0 -174 -102 -270t-262 -96h-143l-118 -2v14l69 11v666l-70 9z" />
<glyph unicode="E" horiz-adv-x="609" d="M46 714h496l11 -187h-31l-10 31q-22 69 -60.5 101t-110.5 31h-133v-317h43q121 -2 121 82v20h30v-232h-30v20q0 89 -118 87h-46v-326h164q72 -1 110.5 31t60.5 101l10 31h31l-11 -187h-409l-118 -2v14l69 11v666l-70 9z" />
<glyph unicode="F" horiz-adv-x="568" d="M46 714h496l11 -187h-31l-10 31q-22 69 -60.5 101t-110.5 31h-133v-316h86q120 -2 120 82v20h31v-232h-31v20q0 88 -118 86h-88v-325l71 -8v-19l-115 2l-118 -2v14l69 11v666l-70 9z" />
<glyph unicode="G" horiz-adv-x="736" d="M175 359v-2q0 -153 58.5 -247t156.5 -94q42 0 74.5 5.5t50 13t28.5 18t14.5 18t3.5 14.5v178l-71 19v22l115 -3l106 3v-20l-61 -19v-194l1 -75l-19 -2l-23 47q-89 -48 -221 -48q-41 0 -84.5 13t-86.5 42t-76.5 70.5t-54.5 103.5t-21 136t21 136t54.5 103.5t76.5 70.5 t86.5 42t84.5 13q64 0 116 -22.5t75 -48.5l11 63h29v-172h-24q-19 79 -67 118t-138 39q-98 0 -156.5 -94t-58.5 -247z" />
<glyph unicode="H" horiz-adv-x="783" d="M208 25l68 -13v-14l-112 2l-118 -2v14l69 11v666l-70 9l1 16l116 -2l113 2v-16l-67 -9v-320h369v320l-69 9l1 16l115 -2l113 2v-16l-66 -9v-664l67 -13v-14l-112 2l-117 -2v14l68 11v317h-369v-315z" />
<glyph unicode="I" horiz-adv-x="343" d="M218 25l68 -13v-14l-112 2l-118 -2v14l69 11v666l-70 9l1 16l116 -3l113 3v-16l-67 -9v-664z" />
<glyph unicode="J" horiz-adv-x="475" d="M263 689l-68 9l1 16l111 -3l118 3v-16l-69 -11l-1 -412q0 -126 -61.5 -203.5t-170.5 -77.5q-43 0 -73 18t-30 40q0 16 11 27t30 11q18 0 32 -11t22.5 -25t24.5 -25t36 -11q87 0 87 185v486z" />
<glyph unicode="K" horiz-adv-x="692" d="M208 25l68 -13v-14l-112 2l-118 -2v14l69 11v666l-70 9l1 16l116 -3l113 3v-16l-67 -9v-380l273 361l-2 16l-64 4l2 24l101 -2l97 2v-23l-73 -9l-227 -275l305 -377l53 -14l-1 -16l-99 1l-127 -1v15l55 12l-1 11l-240 303l-52 -63v-253z" />
<glyph unicode="L" horiz-adv-x="599" d="M208 689v-664h153q72 -1 110 33t62 108l10 31h30l-11 -197h-398l-118 -2v14l69 11v666l-70 9l1 16l116 -3l113 3v-16z" />
<glyph unicode="M" horiz-adv-x="915" d="M807 25l67 -13v-14l-117 2l-112 -2v14l68 11v558l-265 -581h-24l-267 549v-221l5 -303l72 -13v-14l-97 2l-96 -2v14l72 11q6 124 6 303v302q0 26 -12.5 41.5t-26.5 20t-39 8.5l1 16h133l290 -583l267 583h141v-16l-66 -9v-664z" />
<glyph unicode="N" horiz-adv-x="738" d="M582 687l-80 13v14l106 -2l100 2v-14l-76 -11q-7 -129 -7 -264v-425h-52l-418 560v-253q0 -77 2 -147.5t4 -102.5l2 -32l71 -13v-14l-97 2l-96 -2v14l71 11q6 102 6 284v316q0 37 -21 53.5t-57 21.5l1 16l124 -3l424 -574v290q0 60 -1.5 125t-3.5 100z" />
<glyph unicode="O" horiz-adv-x="790" d="M65 357q0 159 90.5 263t239.5 104t239.5 -104t90.5 -263t-90.5 -262.5t-239.5 -103.5t-239.5 103.5t-90.5 262.5zM176 357q0 -157 52 -249t167 -92t167 92t52 249t-52 249.5t-167 92.5t-167 -92.5t-52 -249.5z" />
<glyph unicode="P" horiz-adv-x="616" d="M208 25l68 -13v-14l-112 2l-118 -2v14l69 11v666l-70 9l1 16h252q133 0 207.5 -56t74.5 -144q0 -98 -79.5 -152t-202.5 -54h-90v-283zM290 687h-82v-352h93q54 -1 92 13.5t57 42t27.5 56.5t8.5 64q0 72 -47.5 124.5t-148.5 51.5z" />
<glyph unicode="Q" horiz-adv-x="790" d="M65 357q0 159 90.5 263t239.5 104t239.5 -104t90.5 -263q0 -138 -69.5 -236t-188.5 -123l-121 -48q46 -11 125 -54t131 -43q57 0 85 15q2 1 4.5 9t8 14.5t15.5 6.5q14 0 16.5 -9t-7.5 -15q-27 -28 -72.5 -53.5t-87.5 -25.5q-61 0 -108.5 18t-95 47.5t-74.5 40.5 q-25 10 -66 -16q-33 39 25 47l153 59h-3q-149 0 -239.5 103.5t-90.5 262.5zM176 357q0 -157 52 -249t167 -92t167 92t52 249t-52 249.5t-167 92.5t-167 -92.5t-52 -249.5z" />
<glyph unicode="R" horiz-adv-x="682" d="M208 25l68 -13v-14l-112 2l-118 -2v14l69 11v666l-70 9l1 16h251q125 0 193.5 -48t68.5 -127q0 -129 -174 -164l5 -8q81 -2 121.5 -46t40.5 -116v-47q0 -119 45 -119q16 0 26 9.5t21 36.5l16 -9q-38 -82 -97 -82q-51 0 -77 43t-26 120v49q0 57 -27 101.5t-77 44.5h-148 v-327zM290 690h-82v-310h62q102 -2 146.5 44t44.5 112q0 64 -40.5 109.5t-130.5 44.5z" />
<glyph unicode="S" horiz-adv-x="541" d="M86 204q18 -193 178 -193q63 0 103 42t40 106q0 18 -4.5 34t-16.5 30.5t-21 24t-29.5 22.5t-29.5 18.5t-33.5 18t-30.5 15.5q-104 50 -145.5 102.5t-41.5 117.5q0 79 66 130t139 51q50 0 91 -19.5t60 -42.5l10 54h30v-192h-25q-6 89 -52 136t-112 47t-101.5 -39.5 t-35.5 -103.5q0 -22 9 -39.5t30 -33.5t37 -26t50 -27.5t49 -25.5q94 -50 138.5 -101t44.5 -113q0 -95 -62 -151t-150 -56q-110 0 -175 75l-9 -64h-27v202z" />
<glyph unicode="T" horiz-adv-x="615" d="M419 689h-61v-666l69 -9l-1 -16l-112 3l-116 -3v16l66 9v666h-67q-59 1 -90 -25.5t-51 -85.5l-10 -30h-31l11 166h563l11 -166h-30l-10 30q-20 59 -51 85.5t-90 25.5z" />
<glyph unicode="U" horiz-adv-x="716" d="M353 -2q-103 0 -175.5 57.5t-72.5 161.5v472l-70 9l1 16l111 -3l118 3v-16l-67 -9v-470q0 -89 48.5 -133.5t136.5 -44.5q94 0 146.5 47t52.5 141v460l-71 9v16l86 -3l88 3l1 -16l-69 -9v-462q0 -112 -72 -170.5t-192 -58.5z" />
<glyph unicode="V" horiz-adv-x="676" d="M666 701l-67 -13l-235 -688h-51l-236 688l-67 13v14l117 -2l112 2v-14l-68 -11l195 -575l195 575l-68 11v14l85 -2l88 2v-14z" />
<glyph unicode="W" horiz-adv-x="1000" d="M305 0h-43l-185 682l-67 17l1 16l117 -2l120 1v-20l-69 -11l-1 -9l141 -536l191 576h45l202 -577l123 539v8l-85 13v16l95 -2l100 2v-18l-67 -14l-168 -681h-42l-206 592z" />
<glyph unicode="X" horiz-adv-x="687" d="M35 11l65 13l204 334l-190 331l-61 13v14l106 -2l128 2v-14l-64 -11l133 -247l149 247l-71 11v14l83 -2l95 2v-14l-63 -13l-174 -278l15 -28l211 -359l61 -13v-14l-118 2l-123 -2v14l67 11l-166 303l-178 -303l69 -11v-14l-87 2l-91 -2v14z" />
<glyph unicode="Y" horiz-adv-x="653" d="M76 689l-61 13v14l111 -2l118 2v-14l-62 -11v-10l170 -340l171 335v14l-66 11v15l100 -2l81 2v-15l-65 -13l-199 -383v-280l67 -13v-14l-112 2l-117 -2v14l68 11v274z" />
<glyph unicode="Z" horiz-adv-x="585" d="M76 714h448v-25l-385 -666h227q38 0 65 11.5t43 34.5t22.5 38t14.5 40l10 34l34 -1l-16 -181h-499v39l384 655h-161q-25 0 -41.5 -1.5t-40 -7.5t-38 -17.5t-27 -34t-16.5 -53.5l-4 -33l-31 2z" />
<glyph unicode="[" horiz-adv-x="343" d="M208 -119l88 -13v-19h-161v925h160v-21l-87 -9v-863z" />
<glyph unicode="\" horiz-adv-x="462" d="M79 731l343 -839h-44l-343 839h44z" />
<glyph unicode="]" horiz-adv-x="343" d="M135 742l-88 13v19h161v-925h-160v21l87 9v863z" />
<glyph unicode="^" horiz-adv-x="324" d="M246 432l-87 230l-82 -230h-47l109 279h47l108 -279h-48z" />
<glyph unicode="_" horiz-adv-x="482" d="M30 -86v43h422v-43h-422z" />
<glyph unicode="`" horiz-adv-x="279" d="M198 565l-111 96q-16 16 -13 32q2 17 15 27t29 6q17 -4 25 -19l76 -125z" />
<glyph unicode="a" horiz-adv-x="520" d="M124 331q-33 0 -43.5 32.5t8.5 56.5q29 42 77 66t99 24q75 0 115.5 -36.5t40.5 -122.5v-256q0 -57 25 -57q24 0 41 35l14 -9q-32 -74 -105 -69q-61 4 -61 78v28q-19 -50 -58.5 -78.5t-89.5 -28.5q-65 0 -103.5 33t-38.5 83q0 60 44.5 94t160.5 61l85 21v70q0 125 -96 125 q-49 0 -82 -33q20 -38 20 -72q0 -20 -15.5 -32.5t-37.5 -12.5zM214 35q89 0 121 96v132l-78 -20q-124 -31 -124 -117q0 -42 23 -66.5t58 -24.5z" />
<glyph unicode="b" horiz-adv-x="567" d="M73 143v551l-53 10l2 40l138 12v-373q21 56 67 91.5t99 35.5q91 0 143 -74t52 -180q0 -64 -25 -120.5t-81.5 -96t-134.5 -39.5q-80 0 -151 61l-40 -64l-23 4q7 65 7 142zM160 310v-182q13 -104 122 -104q40 0 70 21.5t46 57t23.5 74t7.5 79.5q0 89 -32.5 147t-93.5 58 q-57 0 -100 -43.5t-43 -107.5z" />
<glyph unicode="c" horiz-adv-x="494" d="M365 470q-37 16 -75 16q-71 0 -110.5 -68t-39.5 -174q0 -83 43 -140.5t111 -57.5q110 0 149 104l16 -4q-21 -69 -71 -112.5t-112 -43.5q-108 0 -169.5 75t-61.5 169q0 105 68.5 190.5t167.5 85.5q108 0 152 -69q21 -26 12 -62.5t-48 -36.5q-21 0 -37 15.5t-16 34.5 q0 37 21 78z" />
<glyph unicode="d" horiz-adv-x="575" d="M405 694l-53 10l2 40l138 12v-694l58 -19v-27l-134 -22l-9 122q-21 -54 -64.5 -90t-92.5 -36q-95 0 -150 75.5t-55 175.5q0 68 25 127.5t81.5 100.5t134.5 41q70 0 119 -32v216zM268 41q52 0 93 38t44 95v208q0 43 -29 73.5t-92 30.5q-81 0 -114 -62.5t-33 -182.5 q0 -84 33 -142t98 -58z" />
<glyph unicode="e" horiz-adv-x="501" d="M451 298h-313q-2 -40 -2 -62q0 -75 44.5 -133t122.5 -58q102 0 142 89l14 -5q-26 -62 -78.5 -100.5t-115.5 -38.5q-103 0 -162 76t-59 170q0 106 60.5 190t163.5 84q76 0 129.5 -46t53.5 -132v-34zM266 486q-100 0 -124 -157h227q0 79 -29.5 118t-73.5 39z" />
<glyph unicode="f" horiz-adv-x="330" d="M18 465v16l75 13v24q0 100 47 167t130 67q102 0 117 -59q5 -19 -6.5 -33.5t-31.5 -15.5q-27 -1 -44 23.5t-19 59.5q-10 6 -28 6q-78 0 -78 -165v-68h137v-35h-137v-441l68 -12l-1 -15l-111 3l-108 -3l-2 15l67 10v443h-75z" />
<glyph unicode="g" horiz-adv-x="532" d="M48 341q0 72 56 120.5t148 48.5q36 0 73 -10l171 10l-5 -40h-93v-7q58 -49 58 -122q0 -68 -56.5 -117t-147.5 -49q-42 0 -78 11q-50 -26 -50 -75q0 -22 17 -35.5t47 -14.5l122 -5q101 -3 147.5 -41t46.5 -92q0 -71 -81.5 -127t-181.5 -56q-87 0 -151.5 32.5t-64.5 89.5 q0 78 135 120v9q-39 8 -63.5 31.5t-23.5 53.5q1 40 27 71.5t55 45.5q-50 21 -78.5 60.5t-28.5 87.5zM298 -15l-107 1q-50 -30 -68 -55t-18 -61q0 -45 39 -73.5t97 -27.5q88 1 137.5 34.5t49.5 97.5q0 38 -32.5 60.5t-97.5 23.5zM322 465v3q-27 22 -70 22q-59 0 -84.5 -37.5 t-25.5 -111.5q0 -146 110 -146t110 146q0 88 -35 123z" />
<glyph unicode="h" horiz-adv-x="592" d="M93 22v672l-53 10l2 40l138 12v-399q21 67 69.5 110t102.5 43q147 0 147 -149v-337l68 -12l-1 -15l-110 3l-108 -3l-2 15l67 10v329q0 110 -86 110q-56 0 -100.5 -52.5t-46.5 -130.5v-254l68 -12l-1 -15l-111 3l-108 -3l-2 15z" />
<glyph unicode="i" horiz-adv-x="282" d="M97 22v421l-53 10l2 40l137 12l1 -481l68 -12l-1 -15l-111 3l-108 -3l-2 15zM82 658q0 24 14.5 37.5t39.5 13.5t39.5 -13.5t14.5 -37.5q0 -25 -14.5 -39t-39.5 -14t-39.5 14t-14.5 39z" />
<glyph unicode="j" horiz-adv-x="260" d="M179 505v-471q0 -131 -45 -206t-141 -75q-34 0 -58.5 14.5t-24.5 33.5q0 16 11 27t30 11q21 0 45 -28.5t50 -28.5t36.5 41t10.5 139v481l-53 10l2 40zM82 658q0 24 14.5 37.5t39.5 13.5t39.5 -13.5t14.5 -37.5q0 -25 -14.5 -39t-39.5 -14t-39.5 14t-14.5 39z" />
<glyph unicode="k" horiz-adv-x="547" d="M93 22v672l-53 10l2 40l138 12v-532l187 232l-2 16l-63 4l2 23l99 -2l103 2v-22l-72 -9l-159 -170l226 -268l49 -11l-1 -16l-104 -1l-108 -1v15l56 11l-1 16l-173 195l-39 -42v-172l58 -12l-1 -15l-101 3l-108 -3l-2 15z" />
<glyph unicode="l" horiz-adv-x="282" d="M97 23v671l-53 10l2 40l138 12v-731l68 -12l-1 -16l-111 3l-108 -3l-2 16z" />
<glyph unicode="m" horiz-adv-x="898" d="M93 22v421l-53 10l2 40l138 12v-145q21 67 68 108.5t101 41.5q147 0 150 -134h1q22 59 64.5 96.5t89.5 37.5q150 0 150 -149v-337l68 -12l-1 -15l-110 3l-108 -3l-2 15l67 10v329q0 110 -86 110q-45 0 -83.5 -39t-49.5 -99v-299l68 -12l-1 -15l-110 3l-108 -3l-2 15 l67 10v339q0 100 -86 100q-56 0 -100.5 -52.5t-46.5 -130.5v-254l68 -12l-1 -15l-111 3l-108 -3l-2 15z" />
<glyph unicode="n" d="M92 22v421l-53 10l2 40l137 12v-149q22 68 70.5 111t103.5 43q145 0 145 -149v-337l68 -12l-1 -15l-110 3l-108 -3l-2 15l67 10v329q0 110 -86 110q-56 0 -100.5 -52.5t-46.5 -130.5v-254l68 -12l-1 -15l-110 3l-108 -3l-2 15z" />
<glyph unicode="o" horiz-adv-x="578" d="M45 250q0 111 67 185.5t177 74.5t177 -74.5t67 -185.5t-67 -185t-177 -74t-177 74t-67 185zM139 250q0 -106 36 -171.5t114 -65.5t114 65.5t36 171.5t-36 172.5t-114 66.5t-114 -66.5t-36 -172.5z" />
<glyph unicode="p" d="M185 -222l68 -12l-1 -15l-111 3l-108 -3l-2 15l67 10v651l-58 19v37l134 22l9 -123q20 55 63.5 91t93.5 36q95 0 150 -75.5t55 -175.5q0 -68 -25 -127.5t-81.5 -100.5t-134.5 -41q-69 0 -119 36v-247zM185 319v-197q0 -44 29.5 -76.5t91.5 -32.5q81 0 114 62.5t33 182.5 q0 84 -33 142t-98 58q-54 0 -95.5 -40t-41.5 -99z" />
<glyph unicode="q" horiz-adv-x="587" d="M494 -224l68 -12l-1 -15l-111 3l-108 -3l-2 15l67 10v351q-21 -57 -65 -93.5t-96 -36.5q-91 0 -145.5 74.5t-54.5 179.5q-4 63 21.5 120t83.5 96.5t136 39.5q69 0 137 -51l54 54l23 -4q-7 -65 -7 -142v-586zM264 44q55 0 97.5 41t45.5 103v184q-14 109 -122 109 q-40 0 -70 -21.5t-46 -57t-23.5 -74t-7.5 -79.5q0 -89 32.5 -147t93.5 -58z" />
<glyph unicode="r" horiz-adv-x="402" d="M93 22v421l-53 10l2 40l132 12v-166h3q21 67 58 118t87 51q29 0 49.5 -16t20.5 -42q0 -22 -14 -38t-37 -16q-45 0 -65 47q-38 -13 -66 -60t-31 -97l1 -262l68 -12l-1 -15l-111 3l-108 -3l-2 15z" />
<glyph unicode="s" horiz-adv-x="450" d="M85 159q19 -77 48.5 -113t86.5 -36q44 0 72 27.5t28 67.5q0 12 -3.5 23.5t-12.5 21.5t-15 16.5t-21.5 16t-22 13t-25 13t-22.5 11.5q-73 38 -102.5 75.5t-29.5 84.5q0 59 50.5 93.5t109.5 34.5q70 0 111 -43l8 35h28v-139h-24q-12 57 -44.5 93t-76.5 36q-45 0 -70 -25.5 t-25 -63.5q0 -14 6 -26t22 -23.5t25.5 -18t35 -19.5t33.5 -17q72 -38 105 -73.5t33 -81.5q0 -71 -47.5 -112t-118.5 -41q-44 0 -79.5 16.5t-55.5 43.5l-6 -49h-26v158z" />
<glyph unicode="t" horiz-adv-x="335" d="M10 465v19l65 10v124l87 17v-135h137v-35h-137v-324q0 -96 55 -99q49 -5 94 43l14 -14q-56 -72 -144 -74q-37 -1 -71 31.5t-34 101.5l-1 335h-65z" />
<glyph unicode="u" d="M502 510v-466l53 -10l-2 -30l-132 -12v164q-19 -74 -67.5 -121.5t-106.5 -47.5q-149 0 -149 149v312l-63 12l1 40l147 10v-364q0 -110 86 -110q56 0 100 52t47 130v230l-63 12l1 40z" />
<glyph unicode="v" horiz-adv-x="545" d="M295 -5h-37l-196 474l-57 17l1 15l101 -2l115 1v-17l-65 -11l1 -11l143 -373l130 376l-5 8l-81 14v15l95 -2l100 2v-17l-67 -14z" />
<glyph unicode="w" horiz-adv-x="790" d="M15 485l1 16l101 -2l105 1v-20l-62 -11l1 -9l100 -344l137 384h39l145 -389l87 351l-4 8l-75 13v16l90 -2l95 2v-18l-62 -14l-132 -467h-37l-149 399l-145 -399h-37l-141 468z" />
<glyph unicode="x" horiz-adv-x="541" d="M175 460l106 -153l111 154v8l-68 11v19l85 -2l100 2v-18l-71 -14l-137 -189l172 -247l52 -17l-1 -16l-101 2l-115 -1v18l62 11l-1 11l-117 167l-119 -168v-8l68 -11v-19l-85 2l-100 -2v18l71 14l145 203l-161 233l-52 17l1 16l101 -2l115 1v-15l-62 -14z" />
<glyph unicode="y" horiz-adv-x="525" d="M285 -5l-37 -105q-23 -66 -59.5 -95.5t-74.5 -29.5q-77 0 -91 54q-6 22 8.5 39.5t42.5 17.5q12 0 21.5 -3t17.5 -12t11.5 -13t11.5 -19t9 -17q17 0 38 23t32 56l34 104h-1l-196 474l-57 17l1 15l101 -2l115 1v-17l-65 -11l1 -11l143 -373l130 376l-5 8l-81 14v15l95 -2 l100 2v-17l-67 -14z" />
<glyph unicode="z" horiz-adv-x="465" d="M69 500h350v-24l-288 -442v-5h190q13 0 23 3t18 10t13.5 13t11 18t7.5 18t6.5 20t5.5 17h24l-5 -128h-390v39l287 433v3h-152q-58 0 -82 -102l-30 2z" />
<glyph unicode="{" horiz-adv-x="332" d="M80 288q57 -18 81.5 -89t16.5 -130q-15 -117 11 -177t103 -95l-6 -15q-106 19 -155 87.5t-34 199.5q21 189 -67 211v16q88 22 67 211q-15 131 34 199.5t155 87.5l6 -15q-77 -35 -103 -95t-11 -177q8 -59 -16.5 -130t-81.5 -89z" />
<glyph unicode="|" horiz-adv-x="244" d="M144 731v-899h-44v899h44z" />
<glyph unicode="}" horiz-adv-x="332" d="M252 288q-57 18 -81.5 89t-16.5 130q15 117 -11 177t-103 95l6 15q106 -19 155 -87.5t34 -199.5q-21 -189 67 -211v-16q-88 -22 -67 -211q15 -131 -34 -199.5t-155 -87.5l-6 15q77 35 103 95t11 177q-8 59 16.5 130t81.5 89z" />
<glyph unicode="~" horiz-adv-x="662" d="M367 326q16 -22 27 -34.5t35.5 -25.5t54.5 -13t55.5 20t37.5 55q-3 4 -9.5 12t-10 13t-7 12.5t-4.5 14.5q0 18 7.5 32t22.5 14q17 0 25.5 -19.5t3.5 -41.5q-13 -77 -59 -127t-104 -50q-53 0 -86.5 23.5t-71.5 75.5q-1 2 -9.5 13t-11.5 15t-11.5 13t-15 13t-16 9.5 t-20.5 7.5t-23 2q-29 0 -54 -20t-38 -55q3 -4 9.5 -12t10 -13t7 -12.5t4.5 -14.5q-2 -46 -31 -46q-18 0 -26 19t-3 42q13 79 57 128t108 49q49 0 81 -24t65 -75z" />
<glyph unicode="&#xa1;" horiz-adv-x="314" d="M140 304l-32 -477q-1 -23 12 -37.5t33 -13.5q21 1 35.5 15.5t13.5 35.5l-29 477q-1 14 -16.5 14.5t-16.5 -14.5zM214 454q0 -24 -16 -39t-41 -15t-41 15t-16 39q0 25 16 40.5t41 15.5t41 -15.5t16 -40.5z" />
<glyph unicode="&#xa2;" horiz-adv-x="484" d="M355 470q-36 15 -61 16l-46 -435q18 -5 36 -5q110 0 149 104l16 -4q-21 -69 -71 -112.5t-112 -43.5q-17 0 -25 1l-10 -99h-33l12 105q-83 18 -129 87t-46 150q0 67 29.5 129.5t84 104t119.5 42.5l13 111l28 -1l-12 -111q88 -8 126 -68q21 -26 12 -62.5t-48 -36.5 q-21 0 -37 15.5t-16 34.5q0 37 21 78zM130 244q0 -59 23.5 -108t63.5 -73l48 422q-64 -7 -99.5 -74t-35.5 -167z" />
<glyph unicode="&#xa3;" horiz-adv-x="567" d="M312 720q79 0 126 -59l11 53h29v-173h-24q-31 158 -146 158q-70 0 -89.5 -51t-11.5 -179l4 -69q0 -6 0.5 -17.5t0.5 -16.5h212l-5 -35h-207q-5 -183 -93 -285q37 16 70 18q66 3 160 -25.5t106 -28.5q15 0 29 8t14 15q-22 24 -22 53q0 43 40 43q31 0 31 -48q0 -32 -41 -71 t-93 -39q-41 -1 -120.5 15t-115.5 17q-41 0 -79 -5l-47 -6l-3 5q6 9 20 19q40 37 51 104.5t5 210.5h-71l5 35h65q-1 6 -1 20l-3 60q-6 129 41.5 201.5t151.5 72.5z" />
<glyph unicode="&#xa5;" horiz-adv-x="653" d="M638 701l-65 -13l-188 -360h164v-37h-175v-77h175v-37h-175v-152l67 -13v-14l-112 2l-117 -2v14l68 11v154h-164v37h164v77h-164v37h148l-188 361l-61 13v14l111 -2l118 2v-14l-62 -11v-10l170 -340l171 335v14l-66 11v15l100 -2l81 2v-15z" />
<glyph unicode="&#xa6;" horiz-adv-x="244" d="M144 -168h-44v383h44v-383zM144 731v-354h-44v354h44z" />
<glyph unicode="&#xa7;" horiz-adv-x="537" d="M81 552q0 73 59.5 120t126.5 47q81 0 142 -61l10 54h26v-178h-22q-14 74 -55.5 120t-98.5 46q-61 0 -93.5 -35.5t-32.5 -94.5q0 -20 8.5 -36t28 -30.5t35 -24t46.5 -25.5t46 -24q95 -53 137.5 -94t42.5 -105q0 -61 -30.5 -104.5t-80.5 -63.5q71 -60 71 -135 q0 -82 -52 -127.5t-127 -45.5q-93 0 -164 73l-8 -63h-24v187l23 1q24 -92 61 -134t109 -42q52 0 83 31.5t31 85.5q0 17 -4 31.5t-14.5 27.5t-19 22t-26 20t-26 16.5t-29.5 16.5t-27 14q-98 51 -140.5 100.5t-42.5 118.5q0 50 29 89t73 60q-71 60 -71 142zM420 196 q0 23 -10 42.5t-31.5 36.5t-37 26.5t-46.5 25t-39 20.5q-56 27 -87 50q-57 -33 -57 -116q0 -20 9 -37.5t32 -36t36.5 -27.5t50 -29.5t44.5 -25.5q45 -26 69 -44q67 34 67 115z" />
<glyph unicode="&#xa8;" horiz-adv-x="458" d="M284 674q0 20 13.5 32.5t34.5 12.5t34.5 -12.5t13.5 -32.5q0 -21 -13.5 -34t-34.5 -13t-34.5 13t-13.5 34zM87 674q0 20 13.5 32.5t34.5 12.5t34.5 -12.5t13.5 -32.5q0 -21 -13.5 -34t-34.5 -13t-34.5 13t-13.5 34z" />
<glyph unicode="&#xaa;" horiz-adv-x="436" d="M112 582q-26 0 -34.5 25.5t6.5 44.5q22 32 56.5 51t71.5 19q111 0 111 -124v-160q0 -42 19 -42q21 0 33 17l11 -7q-11 -21 -33.5 -34t-48.5 -12q-48 6 -48 61v14q-13 -32 -42 -53.5t-63 -21.5q-47 0 -74 23t-27 57q0 44 33 70t117 41l56 10v41q0 98 -64 98q-33 0 -54 -23 q15 -30 15 -59q0 -16 -12 -26t-29 -10zM172 398q62 0 84 67v75l-51 -10q-87 -17 -87 -78q0 -27 15 -40.5t39 -13.5z" />
<glyph unicode="&#xab;" horiz-adv-x="468" d="M229 379l-96 -186l96 -187l-19 -9l-160 189v16l160 189zM418 379l-96 -186l96 -187l-19 -9l-160 189v16l160 189z" />
<glyph unicode="&#xaf;" horiz-adv-x="432" d="M50 671v43h332v-43h-332z" />
<glyph unicode="&#xb0;" horiz-adv-x="288" d="M35 612q0 46 31.5 77.5t77.5 31.5t77.5 -31.5t31.5 -77.5t-31.5 -77.5t-77.5 -31.5t-77.5 31.5t-31.5 77.5zM68 612q0 -32 22 -54t54 -22t54 22t22 54t-22 54t-54 22t-54 -22t-22 -54z" />
<glyph unicode="&#xb1;" horiz-adv-x="482" d="M215 500h53v-174h184v-53h-184v-175h-53v175h-185v53h185v174zM30 1v43h422v-43h-422z" />
<glyph unicode="&#xb2;" horiz-adv-x="361" d="M107 352h209l8 20l15 -1l-14 -82h-279l-1 32q120 108 162.5 173.5t42.5 126.5q0 33 -21 53.5t-63 20.5q-41 0 -81 -34q2 -4 8.5 -14.5t9 -15.5t5.5 -14t3 -18q0 -15 -12 -26.5t-30 -11.5q-24 0 -33 27.5t5 50.5q57 86 148 86q61 0 97 -28.5t36 -83.5q0 -47 -60.5 -119 t-154.5 -142z" />
<glyph unicode="&#xb3;" horiz-adv-x="400" d="M118 494l-2 16l-3 4q53 7 86 18t48 26.5t19 29t4 34.5q0 81 -84 81q-46 0 -73 -30q14 -30 14 -51q0 -37 -42 -37q-26 0 -34 22.5t6 44.5q19 36 62.5 54t85.5 18q55 0 95.5 -26t40.5 -78q0 -80 -125 -106l2 -7q68 0 105.5 -29t37.5 -68q0 -61 -51.5 -91.5t-125.5 -30.5 q-49 0 -91 20t-55 45q-16 29 -4 51.5t40 22.5q36 0 36 -44q0 -16 -16 -35q19 -41 90 -41q102 0 102 105q0 47 -43 69.5t-125 12.5z" />
<glyph unicode="&#xb4;" horiz-adv-x="279" d="M205 661l-111 -96l-21 17l76 125q8 15 25 19q16 4 29 -6t15 -27q3 -16 -13 -32z" />
<glyph unicode="&#xb6;" horiz-adv-x="522" d="M247 12l68 13v278q-116 4 -190.5 60t-74.5 151q0 88 74.5 144t207.5 56h174l1 -16l-70 -9v-666l69 -11v-14l-69 2h-78l-112 -2v14zM144 511q0 -34 7.5 -62.5t25.5 -55t53.5 -42t84.5 -16.5v351q-88 -6 -129.5 -57t-41.5 -118zM349 687v-352h54v352h-54zM349 19l54 2v282 h-54v-284z" />
<glyph unicode="&#xb7;" horiz-adv-x="204" d="M45 304q0 24 16 39t41 15t41 -15t16 -39q0 -25 -16 -40.5t-41 -15.5t-41 15.5t-16 40.5z" />
<glyph unicode="&#xb8;" horiz-adv-x="484" d="M199 -99l36 114h26l-20 -67q24 9 60 9q40 0 67 -19t27 -52q0 -34 -20.5 -57t-50.5 -32t-59.5 -13.5t-50.5 -3.5l-20 1l-2 18q1 1 14.5 -0.5t35.5 2t42 9t35 19.5t15 34q0 39 -57 39q-34 0 -69 -10z" />
<glyph unicode="&#xb9;" horiz-adv-x="278" d="M171 307l54 -9v-17l-86 2l-85 -2v17l54 7v338h-65l1 22q70 4 95 51h32v-409z" />
<glyph unicode="&#xba;" horiz-adv-x="416" d="M50 546q0 76 43 127t115 51t115 -51t43 -127q0 -80 -43 -133t-115 -53t-115 53t-43 133zM126 546q0 -163 82 -163t82 163q0 155 -82 155t-82 -155z" />
<glyph unicode="&#xbb;" horiz-adv-x="468" d="M50 9l96 186l-96 187l19 9l160 -189v-16l-160 -189zM239 9l96 186l-96 187l19 9l160 -189v-16l-160 -189z" />
<glyph unicode="&#xbc;" horiz-adv-x="811" d="M158 0l443 714h44l-443 -714h-44zM392 110v23h1l256 302l34 -1v-300h64v-24h-64v-90l54 -9v-11l-86 2l-85 -2v11l53 8v91h-227zM619 355l-187 -221h187v221zM208 307l54 -9v-17l-86 2l-85 -2v17l54 7v338h-65l1 22q70 4 95 51h32v-409z" />
<glyph unicode="&#xbd;" horiz-adv-x="867" d="M208 307l54 -9v-17l-86 2l-85 -2v17l54 7v338h-65l1 22q70 4 95 51h32v-409zM154 0l443 714h44l-443 -714h-44zM555 62h209l8 20l15 -1l-14 -82h-279l-1 32q120 108 162.5 173.5t42.5 126.5q0 33 -21 53.5t-63 20.5q-41 0 -81 -34q2 -4 8.5 -14.5t9 -15.5t5.5 -14t3 -18 q0 -15 -12 -26.5t-30 -11.5q-24 0 -33 27.5t5 50.5q57 86 148 86q61 0 97 -28.5t36 -83.5q0 -47 -60.5 -119t-154.5 -142z" />
<glyph unicode="&#xbe;" horiz-adv-x="935" d="M169 494l-2 16l-3 4q53 7 86 18t48 26.5t19 29t4 34.5q0 81 -84 81q-46 0 -73 -30q14 -30 14 -51q0 -37 -42 -37q-26 0 -34 22.5t6 44.5q19 36 62.5 54t85.5 18q55 0 95.5 -26t40.5 -78q0 -80 -125 -106l2 -7q68 0 105.5 -29t37.5 -68q0 -61 -51.5 -91.5t-125.5 -30.5 q-49 0 -91 20t-55 45q-16 29 -4 51.5t40 22.5q36 0 36 -44q0 -16 -16 -35q19 -41 90 -41q102 0 102 105q0 47 -43 69.5t-125 12.5zM282 0l443 714h44l-443 -714h-44zM516 110v23h1l256 302l34 -1v-300h64v-24h-64v-90l54 -9v-11l-86 2l-85 -2v11l53 8v91h-227zM743 355 l-187 -221h187v221z" />
<glyph unicode="&#xbf;" horiz-adv-x="488" d="M225 155v150q0 12 36.5 11.5t36.5 -11.5v-134q-79 -27 -116 -84.5t-37 -121.5q0 -75 34.5 -115.5t96.5 -40.5q56 0 102 38q-26 43 -26 80q0 22 16 37.5t41 15.5q33 0 41.5 -33t-10.5 -62q-33 -49 -88.5 -79.5t-117.5 -30.5q-82 0 -129 39.5t-47 120.5q0 65 48.5 123 t118.5 97zM321 455q0 -24 -16 -39t-41 -15t-41 15t-16 39q0 25 16 40.5t41 15.5t41 -15.5t16 -40.5z" />
<glyph unicode="&#xc0;" horiz-adv-x="676" d="M15 12l57 9q42 116 84 238l157 455h51l235 -689l61 -13v-14l-111 2l-112 -2v14l68 11l-66 196h-263q-16 -50 -30 -99t-20 -73l-6 -24l78 -11v-14l-94 2l-89 -2v14zM309 611l-120 -351h237zM337 776l-111 96q-16 16 -13 32q2 17 15 27t29 6q17 -4 25 -19l76 -125z" />
<glyph unicode="&#xc1;" horiz-adv-x="676" d="M15 12l57 9q42 116 84 238l157 455h51l235 -689l61 -13v-14l-111 2l-112 -2v14l68 11l-66 196h-263q-16 -50 -30 -99t-20 -73l-6 -24l78 -11v-14l-94 2l-89 -2v14zM309 611l-120 -351h237zM448 876l-111 -96l-21 17l76 125q8 15 25 19q16 4 29 -6t15 -27q3 -16 -13 -32z " />
<glyph unicode="&#xc2;" horiz-adv-x="676" d="M15 12l57 9q42 116 84 238l157 455h51l235 -689l61 -13v-14l-111 2l-112 -2v14l68 11l-66 196h-263q-16 -50 -30 -99t-20 -73l-6 -24l78 -11v-14l-94 2l-89 -2v14zM309 611l-120 -351h237zM324 875h32l116 -109h-52l-81 78l-84 -78h-50z" />
<glyph unicode="&#xc3;" horiz-adv-x="676" d="M15 12l57 9q42 116 84 238l157 455h51l235 -689l61 -13v-14l-111 2l-112 -2v14l68 11l-66 196h-263q-16 -50 -30 -99t-20 -73l-6 -24l78 -11v-14l-94 2l-89 -2v14zM309 611l-120 -351h237zM397 771q-32 6 -67 24.5t-67 24.5q-26 4 -42.5 -11t-13.5 -43l-14 5 q-7 50 18.5 79.5t67.5 21.5q31 -5 66 -24t68 -25q26 -4 42.5 11t13.5 43l14 -5q7 -50 -18.5 -79.5t-67.5 -21.5z" />
<glyph unicode="&#xc4;" horiz-adv-x="676" d="M15 12l57 9q42 116 84 238l157 455h51l235 -689l61 -13v-14l-111 2l-112 -2v14l68 11l-66 196h-263q-16 -50 -30 -99t-20 -73l-6 -24l78 -11v-14l-94 2l-89 -2v14zM309 611l-120 -351h237zM398 852q0 24 16 39t41 15t41 -15t16 -39q0 -25 -16 -40.5t-41 -15.5t-41 15.5 t-16 40.5zM201 852q0 24 16 39t41 15t41 -15t16 -39q0 -25 -16 -40.5t-41 -15.5t-41 15.5t-16 40.5z" />
<glyph unicode="&#xc5;" horiz-adv-x="676" d="M15 12l57 9q42 116 84 238l157 455h51l235 -689l61 -13v-14l-111 2l-112 -2v14l68 11l-66 196h-263q-16 -50 -30 -99t-20 -73l-6 -24l78 -11v-14l-94 2l-89 -2v14zM309 611l-120 -351h237zM254 850q0 34 25 59t59 25t59 -25t25 -59t-25 -59t-59 -25t-59 25t-25 59z M287 850q0 -20 15.5 -35.5t35.5 -15.5t35.5 15.5t15.5 35.5t-15.5 35.5t-35.5 15.5t-35.5 -15.5t-15.5 -35.5z" />
<glyph unicode="&#xc6;" horiz-adv-x="1009" d="M507 714h435l11 -187h-31l-10 31q-22 69 -60.5 101t-110.5 31h-133v-322h43q56 -1 88.5 20.5t32.5 66.5v20h30v-232h-30v20q0 84 -121 82h-43v-321h164q69 -1 102.5 29.5t68.5 102.5l15 31h31l-16 -187h-409l-118 -2v14l69 11v215h-265l-135 -215l68 -11v-14l-84 2 l-89 -2v14l59 13zM276 279h239v378z" />
<glyph unicode="&#xc7;" horiz-adv-x="654" d="M342 -102l30 96q-52 3 -104 26.5t-98.5 65.5t-75.5 113t-29 159q0 74 21 136t54.5 103.5t76.5 70.5t86.5 42t84.5 13q61 0 112.5 -19.5t72.5 -41.5l12 53h24v-183h-24q-19 173 -195 173q-97 0 -156 -96t-59 -250q0 -150 55 -245.5t148 -102.5v1h26v-1q162 7 181 183h24 v-193h-24l-12 63q-20 -25 -68.5 -47t-106.5 -24l-14 -48q24 9 60 9q40 0 67 -19t27 -52q0 -34 -20.5 -57t-50 -32t-59.5 -13.5t-50 -3.5l-21 1l-2 18q1 1 14.5 -0.5t35.5 2t42 9t35 19.5t15 34q0 39 -57 39q-34 0 -69 -10z" />
<glyph unicode="&#xc8;" horiz-adv-x="609" d="M46 714h496l11 -187h-31l-10 31q-22 69 -60.5 101t-110.5 31h-133v-317h43q121 -2 121 82v20h30v-232h-30v20q0 89 -118 87h-46v-326h164q72 -1 110.5 31t60.5 101l10 31h31l-11 -187h-409l-118 -2v14l69 11v666l-70 9zM308 779l-111 96q-16 16 -13 32q2 17 15 27t29 6 q17 -4 25 -19l76 -125z" />
<glyph unicode="&#xc9;" horiz-adv-x="609" d="M542 714h-496l-1 -16l70 -9v-666l-69 -11v-14l118 2h409l11 187h-31l-10 -31q-22 -69 -60.5 -101t-110.5 -31h-164v326h46q118 2 118 -87v-20h30v232h-30v-20q0 -84 -121 -82h-43v317h133q72 1 110.5 -31t60.5 -101l10 -31h31zM419 879l-111 -96l-21 17l76 125 q8 15 25 19q16 4 29 -6t15 -27q3 -16 -13 -32z" />
<glyph unicode="&#xca;" horiz-adv-x="609" d="M46 714h496l11 -187h-31l-10 31q-22 69 -60.5 101t-110.5 31h-133v-317h43q121 -2 121 82v20h30v-232h-30v20q0 89 -118 87h-46v-326h164q72 -1 110.5 31t60.5 101l10 31h31l-11 -187h-409l-118 -2v14l69 11v666l-70 9zM295 878h32l116 -109h-52l-81 78l-84 -78h-50z" />
<glyph unicode="&#xcb;" horiz-adv-x="609" d="M542 714h-496l-1 -16l70 -9v-666l-69 -11v-14l118 2h409l11 187h-31l-10 -31q-22 -69 -60.5 -101t-110.5 -31h-164v326h46q118 2 118 -87v-20h30v232h-30v-20q0 -84 -121 -82h-43v317h133q72 1 110.5 -31t60.5 -101l10 -31h31zM369 855q0 24 16 39t41 15t41 -15t16 -39 q0 -25 -16 -40.5t-41 -15.5t-41 15.5t-16 40.5zM172 855q0 24 16 39t41 15t41 -15t16 -39q0 -25 -16 -40.5t-41 -15.5t-41 15.5t-16 40.5z" />
<glyph unicode="&#xcc;" horiz-adv-x="343" d="M218 25l68 -13v-14l-112 2l-118 -2v14l69 11v666l-70 9l1 16l116 -3l113 3v-16l-67 -9v-664zM169 779l-111 96q-16 16 -13 32q2 17 15 27t29 6q17 -4 25 -19l76 -125z" />
<glyph unicode="&#xcd;" horiz-adv-x="343" d="M218 25l68 -13v-14l-112 2l-118 -2v14l69 11v666l-70 9l1 16l116 -3l113 3v-16l-67 -9v-664zM280 879l-111 -96l-21 17l76 125q8 15 25 19q16 4 29 -6t15 -27q3 -16 -13 -32z" />
<glyph unicode="&#xce;" horiz-adv-x="343" d="M218 25l68 -13v-14l-112 2l-118 -2v14l69 11v666l-70 9l1 16l116 -3l113 3v-16l-67 -9v-664zM156 878h32l116 -109h-52l-81 78l-84 -78h-50z" />
<glyph unicode="&#xcf;" horiz-adv-x="343" d="M218 25l68 -13v-14l-112 2l-118 -2v14l69 11v666l-70 9l1 16l116 -3l113 3v-16l-67 -9v-664zM230 855q0 24 16 39t41 15t41 -15t16 -39q0 -25 -16 -40.5t-41 -15.5t-41 15.5t-16 40.5zM33 855q0 24 16 39t41 15t41 -15t16 -39q0 -25 -16 -40.5t-41 -15.5t-41 15.5 t-16 40.5z" />
<glyph unicode="&#xd0;" horiz-adv-x="720" d="M20 344v36h80v309l-70 9l1 16h261q167 0 265.5 -101t98.5 -247q0 -174 -102 -270t-262 -96h-143l-118 -2v14l69 11v321h-80zM193 25l92 -1q77 -1 132 29.5t83 83t40.5 108.5t12.5 118q0 58 -15 113t-46 104.5t-87 79.5t-130 30l-82 -1v-309h149v-36h-149v-319z" />
<glyph unicode="&#xd1;" horiz-adv-x="738" d="M582 687l-80 13v14l106 -2l100 2v-14l-76 -11q-7 -129 -7 -264v-425h-52l-418 560v-253q0 -77 2 -147.5t4 -102.5l2 -32l71 -13v-14l-97 2l-96 -2v14l71 11q6 102 6 284v316q0 37 -21 53.5t-57 21.5l1 16l124 -3l424 -574v290q0 60 -1.5 125t-3.5 100zM428 774 q-32 6 -67 24.5t-67 24.5q-26 4 -42.5 -11t-13.5 -43l-14 5q-7 50 18.5 79.5t67.5 21.5q31 -5 66 -24t68 -25q26 -4 42.5 11t13.5 43l14 -5q7 -50 -18.5 -79.5t-67.5 -21.5z" />
<glyph unicode="&#xd2;" horiz-adv-x="790" d="M65 357q0 159 90.5 263t239.5 104t239.5 -104t90.5 -263t-90.5 -262.5t-239.5 -103.5t-239.5 103.5t-90.5 262.5zM176 357q0 -157 52 -249t167 -92t167 92t52 249t-52 249.5t-167 92.5t-167 -92.5t-52 -249.5zM394 789l-111 96q-16 16 -13 32q2 17 15 27t29 6 q17 -4 25 -19l76 -125z" />
<glyph unicode="&#xd3;" horiz-adv-x="790" d="M65 357q0 159 90.5 263t239.5 104t239.5 -104t90.5 -263t-90.5 -262.5t-239.5 -103.5t-239.5 103.5t-90.5 262.5zM176 357q0 -157 52 -249t167 -92t167 92t52 249t-52 249.5t-167 92.5t-167 -92.5t-52 -249.5zM505 889l-111 -96l-21 17l76 125q8 15 25 19q16 4 29 -6 t15 -27q3 -16 -13 -32z" />
<glyph unicode="&#xd4;" horiz-adv-x="790" d="M65 357q0 159 90.5 263t239.5 104t239.5 -104t90.5 -263t-90.5 -262.5t-239.5 -103.5t-239.5 103.5t-90.5 262.5zM176 357q0 -157 52 -249t167 -92t167 92t52 249t-52 249.5t-167 92.5t-167 -92.5t-52 -249.5zM381 888h32l116 -109h-52l-81 78l-84 -78h-50z" />
<glyph unicode="&#xd5;" horiz-adv-x="790" d="M65 357q0 159 90.5 263t239.5 104t239.5 -104t90.5 -263t-90.5 -262.5t-239.5 -103.5t-239.5 103.5t-90.5 262.5zM176 357q0 -157 52 -249t167 -92t167 92t52 249t-52 249.5t-167 92.5t-167 -92.5t-52 -249.5zM454 784q-32 6 -67 24.5t-67 24.5q-26 4 -42.5 -11 t-13.5 -43l-14 5q-7 50 18.5 79.5t67.5 21.5q31 -5 66 -24t68 -25q26 -4 42.5 11t13.5 43l14 -5q7 -50 -18.5 -79.5t-67.5 -21.5z" />
<glyph unicode="&#xd6;" horiz-adv-x="790" d="M65 357q0 159 90.5 263t239.5 104t239.5 -104t90.5 -263t-90.5 -262.5t-239.5 -103.5t-239.5 103.5t-90.5 262.5zM176 357q0 -157 52 -249t167 -92t167 92t52 249t-52 249.5t-167 92.5t-167 -92.5t-52 -249.5zM455 865q0 24 16 39t41 15t41 -15t16 -39q0 -25 -16 -40.5 t-41 -15.5t-41 15.5t-16 40.5zM258 865q0 24 16 39t41 15t41 -15t16 -39q0 -25 -16 -40.5t-41 -15.5t-41 15.5t-16 40.5z" />
<glyph unicode="&#xd7;" horiz-adv-x="482" d="M370 460l37 -38l-128 -128l128 -128l-37 -38l-129 128l-128 -128l-38 37l129 129l-129 129l38 37l128 -129z" />
<glyph unicode="&#xd8;" horiz-adv-x="790" d="M191 -97l49 124q-82 44 -128.5 131.5t-46.5 198.5q0 159 90.5 263t239.5 104q61 0 115 -20l39 97h45l-46 -114q83 -43 130 -131t47 -199q0 -159 -90.5 -262.5t-239.5 -103.5q-61 0 -116 19l-42 -107h-46zM614 357q0 205 -82 288l-240 -603q43 -26 103 -26q115 0 167 92 t52 249zM176 357q0 -204 81 -288l241 603q-44 27 -103 27q-115 0 -167 -92.5t-52 -249.5z" />
<glyph unicode="&#xd9;" horiz-adv-x="716" d="M353 -2q-103 0 -175.5 57.5t-72.5 161.5v472l-70 9l1 16l111 -3l118 3v-16l-67 -9v-470q0 -89 48.5 -133.5t136.5 -44.5q94 0 146.5 47t52.5 141v460l-71 9v16l86 -3l88 3l1 -16l-69 -9v-462q0 -112 -72 -170.5t-192 -58.5zM359 779l-111 96q-16 16 -13 32q2 17 15 27 t29 6q17 -4 25 -19l76 -125z" />
<glyph unicode="&#xda;" horiz-adv-x="716" d="M353 -2q120 0 192 58.5t72 170.5v462l69 9l-1 16l-88 -3l-86 3v-16l71 -9v-460q0 -94 -52.5 -141t-146.5 -47q-88 0 -136.5 44.5t-48.5 133.5v470l67 9v16l-118 -3l-111 3l-1 -16l70 -9v-472q0 -104 72.5 -161.5t175.5 -57.5zM470 879l-111 -96l-21 17l76 125q8 15 25 19 q16 4 29 -6t15 -27q3 -16 -13 -32z" />
<glyph unicode="&#xdb;" horiz-adv-x="716" d="M353 -2q-103 0 -175.5 57.5t-72.5 161.5v472l-70 9l1 16l111 -3l118 3v-16l-67 -9v-470q0 -89 48.5 -133.5t136.5 -44.5q94 0 146.5 47t52.5 141v460l-71 9v16l86 -3l88 3l1 -16l-69 -9v-462q0 -112 -72 -170.5t-192 -58.5zM346 878h32l116 -109h-52l-81 78l-84 -78h-50z " />
<glyph unicode="&#xdc;" horiz-adv-x="716" d="M353 -2q120 0 192 58.5t72 170.5v462l69 9l-1 16l-88 -3l-86 3v-16l71 -9v-460q0 -94 -52.5 -141t-146.5 -47q-88 0 -136.5 44.5t-48.5 133.5v470l67 9v16l-118 -3l-111 3l-1 -16l70 -9v-472q0 -104 72.5 -161.5t175.5 -57.5zM420 855q0 24 16 39t41 15t41 -15t16 -39 q0 -25 -16 -40.5t-41 -15.5t-41 15.5t-16 40.5zM223 855q0 24 16 39t41 15t41 -15t16 -39q0 -25 -16 -40.5t-41 -15.5t-41 15.5t-16 40.5z" />
<glyph unicode="&#xdd;" horiz-adv-x="653" d="M76 689l-61 13v14l111 -2l118 2v-14l-62 -11v-10l170 -340l171 335v14l-66 11v15l100 -2l81 2v-15l-65 -13l-199 -383v-280l67 -13v-14l-112 2l-117 -2v14l68 11v274zM436 881l-111 -96l-21 17l76 125q8 15 25 19q16 4 29 -6t15 -27q3 -16 -13 -32z" />
<glyph unicode="&#xde;" horiz-adv-x="636" d="M208 25l68 -13v-14l-112 2l-118 -2v14l69 11v666l-70 9l1 16h242v-18l-80 -7v-125h128q127 0 193 -50t66 -130q0 -91 -71.5 -141t-187.5 -50h-128v-168zM328 537h-120v-317h131q51 -1 85 12.5t49.5 39.5t21.5 51.5t6 57.5q0 30 -8 55.5t-26 49.5t-53.5 37.5t-85.5 13.5z " />
<glyph unicode="&#xdf;" horiz-adv-x="571" d="M180 548l1 -548l-143 -3l-2 15l57 10v476q0 108 56 181t159 73q78 0 125.5 -35.5t47.5 -98.5q0 -33 -13.5 -64t-25 -46t-42.5 -46.5t-39 -40.5q19 -21 58.5 -60.5t57 -59.5t34 -56t16.5 -76q0 -79 -49.5 -128.5t-118.5 -49.5q-50 0 -86.5 20t-50.5 42q-6 17 0 30.5 t20 13.5q34 0 34 -43q0 -14 -1 -25q30 -19 65 -19q47 0 81.5 28.5t34.5 91.5q0 42 -41.5 103t-107.5 120q-17 20 4 41q96 86 96 217q0 51 -27 86t-84 35q-116 0 -116 -184z" />
<glyph unicode="&#xe0;" horiz-adv-x="520" d="M124 331q-33 0 -43.5 32.5t8.5 56.5q29 42 77 66t99 24q75 0 115.5 -36.5t40.5 -122.5v-256q0 -57 25 -57q24 0 41 35l14 -9q-32 -74 -105 -69q-61 4 -61 78v28q-19 -50 -58.5 -78.5t-89.5 -28.5q-65 0 -103.5 33t-38.5 83q0 60 44.5 94t160.5 61l85 21v70q0 125 -96 125 q-49 0 -82 -33q20 -38 20 -72q0 -20 -15.5 -32.5t-37.5 -12.5zM214 35q89 0 121 96v132l-78 -20q-124 -31 -124 -117q0 -42 23 -66.5t58 -24.5zM272 585l-111 96q-16 16 -13 32q2 17 15 27t29 6q17 -4 25 -19l76 -125z" />
<glyph unicode="&#xe1;" horiz-adv-x="520" d="M124 331q-33 0 -43.5 32.5t8.5 56.5q29 42 77 66t99 24q75 0 115.5 -36.5t40.5 -122.5v-256q0 -57 25 -57q24 0 41 35l14 -9q-32 -74 -105 -69q-61 4 -61 78v28q-19 -50 -58.5 -78.5t-89.5 -28.5q-65 0 -103.5 33t-38.5 83q0 60 44.5 94t160.5 61l85 21v70q0 125 -96 125 q-49 0 -82 -33q20 -38 20 -72q0 -20 -15.5 -32.5t-37.5 -12.5zM214 35q89 0 121 96v132l-78 -20q-124 -31 -124 -117q0 -42 23 -66.5t58 -24.5zM383 685l-111 -96l-21 17l76 125q8 15 25 19q16 4 29 -6t15 -27q3 -16 -13 -32z" />
<glyph unicode="&#xe2;" horiz-adv-x="520" d="M124 331q-33 0 -43.5 32.5t8.5 56.5q29 42 77 66t99 24q75 0 115.5 -36.5t40.5 -122.5v-256q0 -57 25 -57q24 0 41 35l14 -9q-32 -74 -105 -69q-61 4 -61 78v28q-19 -50 -58.5 -78.5t-89.5 -28.5q-65 0 -103.5 33t-38.5 83q0 60 44.5 94t160.5 61l85 21v70q0 125 -96 125 q-49 0 -82 -33q20 -38 20 -72q0 -20 -15.5 -32.5t-37.5 -12.5zM214 35q89 0 121 96v132l-78 -20q-124 -31 -124 -117q0 -42 23 -66.5t58 -24.5zM259 684h32l116 -109h-52l-81 78l-84 -78h-50z" />
<glyph unicode="&#xe3;" horiz-adv-x="520" d="M124 331q-33 0 -43.5 32.5t8.5 56.5q29 42 77 66t99 24q75 0 115.5 -36.5t40.5 -122.5v-256q0 -57 25 -57q24 0 41 35l14 -9q-32 -74 -105 -69q-61 4 -61 78v28q-19 -50 -58.5 -78.5t-89.5 -28.5q-65 0 -103.5 33t-38.5 83q0 60 44.5 94t160.5 61l85 21v70q0 125 -96 125 q-49 0 -82 -33q20 -38 20 -72q0 -20 -15.5 -32.5t-37.5 -12.5zM214 35q89 0 121 96v132l-78 -20q-124 -31 -124 -117q0 -42 23 -66.5t58 -24.5zM332 580q-32 6 -67 24.5t-67 24.5q-26 4 -42.5 -11t-13.5 -43l-14 5q-7 50 18.5 79.5t67.5 21.5q31 -5 66 -24t68 -25 q26 -4 42.5 11t13.5 43l14 -5q7 -50 -18.5 -79.5t-67.5 -21.5z" />
<glyph unicode="&#xe4;" horiz-adv-x="520" d="M124 331q-33 0 -43.5 32.5t8.5 56.5q29 42 77 66t99 24q75 0 115.5 -36.5t40.5 -122.5v-256q0 -57 25 -57q24 0 41 35l14 -9q-32 -74 -105 -69q-61 4 -61 78v28q-19 -50 -58.5 -78.5t-89.5 -28.5q-65 0 -103.5 33t-38.5 83q0 60 44.5 94t160.5 61l85 21v70q0 125 -96 125 q-49 0 -82 -33q20 -38 20 -72q0 -20 -15.5 -32.5t-37.5 -12.5zM214 35q89 0 121 96v132l-78 -20q-124 -31 -124 -117q0 -42 23 -66.5t58 -24.5zM333 661q0 24 16 39t41 15t41 -15t16 -39q0 -25 -16 -40.5t-41 -15.5t-41 15.5t-16 40.5zM136 661q0 24 16 39t41 15t41 -15 t16 -39q0 -25 -16 -40.5t-41 -15.5t-41 15.5t-16 40.5z" />
<glyph unicode="&#xe5;" horiz-adv-x="520" d="M124 331q-33 0 -43.5 32.5t8.5 56.5q29 42 77 66t99 24q75 0 115.5 -36.5t40.5 -122.5v-256q0 -57 25 -57q24 0 41 35l14 -9q-32 -74 -105 -69q-61 4 -61 78v28q-19 -50 -58.5 -78.5t-89.5 -28.5q-65 0 -103.5 33t-38.5 83q0 60 44.5 94t160.5 61l85 21v70q0 125 -96 125 q-49 0 -82 -33q20 -38 20 -72q0 -20 -15.5 -32.5t-37.5 -12.5zM214 35q89 0 121 96v132l-78 -20q-124 -31 -124 -117q0 -42 23 -66.5t58 -24.5zM189 659q0 35 24.5 59.5t59.5 24.5t59.5 -24.5t24.5 -59.5t-24.5 -59.5t-59.5 -24.5t-59.5 24.5t-24.5 59.5zM222 659 q0 -20 15.5 -35.5t35.5 -15.5t35.5 15.5t15.5 35.5t-15.5 35.5t-35.5 15.5t-35.5 -15.5t-15.5 -35.5z" />
<glyph unicode="&#xe6;" horiz-adv-x="782" d="M125 331q-33 0 -43.5 32.5t8.5 56.5q29 42 77 66t99 24q106 0 139 -71q63 71 154 71q76 0 129.5 -46t53.5 -132v-34h-313q-2 -40 -2 -62q0 -75 44.5 -133t122.5 -58q102 0 142 89l14 -5q-26 -62 -78.5 -100.5t-115.5 -38.5q-124 0 -186 110q-26 -50 -74 -78t-108 -28 q-65 0 -103.5 33t-38.5 83q0 60 44.5 94t160.5 61l85 21v70q0 125 -96 125q-49 0 -82 -33q20 -38 20 -72q0 -20 -15.5 -32.5t-37.5 -12.5zM215 40q103 0 148 74q-28 57 -28 122q0 15 1 22l-78 -20q-124 -31 -124 -112q0 -42 22.5 -64t58.5 -22zM557 486q-100 0 -124 -157 h227q0 79 -29.5 118t-73.5 39z" />
<glyph unicode="&#xe7;" horiz-adv-x="494" d="M225 -102l29 93q-98 8 -153.5 81t-55.5 162q0 105 68.5 190.5t167.5 85.5q108 0 152 -69q21 -26 12 -62.5t-48 -36.5q-21 0 -37 15.5t-16 34.5q0 37 21 78q-37 16 -75 16q-71 0 -110.5 -68t-39.5 -174q0 -83 43 -140.5t111 -57.5q110 0 149 104l16 -4 q-21 -68 -69.5 -111.5t-109.5 -44.5l-13 -45q24 9 60 9q40 0 67 -19t27 -52q0 -34 -20.5 -57t-50.5 -32t-59.5 -13.5t-50.5 -3.5l-20 1l-2 18q1 1 14.5 -0.5t35.5 2t42 9t35 19.5t15 34q0 39 -57 39q-34 0 -69 -10z" />
<glyph unicode="&#xe8;" horiz-adv-x="501" d="M451 298h-313q-2 -40 -2 -62q0 -75 44.5 -133t122.5 -58q102 0 142 89l14 -5q-26 -62 -78.5 -100.5t-115.5 -38.5q-103 0 -162 76t-59 170q0 106 60.5 190t163.5 84q76 0 129.5 -46t53.5 -132v-34zM266 486q-100 0 -124 -157h227q0 79 -29.5 118t-73.5 39zM251 585 l-111 96q-16 16 -13 32q2 17 15 27t29 6q17 -4 25 -19l76 -125z" />
<glyph unicode="&#xe9;" horiz-adv-x="501" d="M451 298h-313q-2 -40 -2 -62q0 -75 44.5 -133t122.5 -58q102 0 142 89l14 -5q-26 -62 -78.5 -100.5t-115.5 -38.5q-103 0 -162 76t-59 170q0 106 60.5 190t163.5 84q76 0 129.5 -46t53.5 -132v-34zM266 486q-100 0 -124 -157h227q0 79 -29.5 118t-73.5 39zM362 685 l-111 -96l-21 17l76 125q8 15 25 19q16 4 29 -6t15 -27q3 -16 -13 -32z" />
<glyph unicode="&#xea;" horiz-adv-x="501" d="M451 298h-313q-2 -40 -2 -62q0 -75 44.5 -133t122.5 -58q102 0 142 89l14 -5q-26 -62 -78.5 -100.5t-115.5 -38.5q-103 0 -162 76t-59 170q0 106 60.5 190t163.5 84q76 0 129.5 -46t53.5 -132v-34zM266 486q-100 0 -124 -157h227q0 79 -29.5 118t-73.5 39zM238 684h32 l116 -109h-52l-81 78l-84 -78h-50z" />
<glyph unicode="&#xeb;" horiz-adv-x="501" d="M451 298h-313q-2 -40 -2 -62q0 -75 44.5 -133t122.5 -58q102 0 142 89l14 -5q-26 -62 -78.5 -100.5t-115.5 -38.5q-103 0 -162 76t-59 170q0 106 60.5 190t163.5 84q76 0 129.5 -46t53.5 -132v-34zM266 486q-100 0 -124 -157h227q0 79 -29.5 118t-73.5 39zM312 661 q0 24 16 39t41 15t41 -15t16 -39q0 -25 -16 -40.5t-41 -15.5t-41 15.5t-16 40.5zM115 661q0 24 16 39t41 15t41 -15t16 -39q0 -25 -16 -40.5t-41 -15.5t-41 15.5t-16 40.5z" />
<glyph unicode="&#xec;" horiz-adv-x="282" d="M97 22v421l-53 10l2 40l137 12l1 -481l68 -12l-1 -15l-111 3l-108 -3l-2 15zM140 580l-111 96q-16 16 -13 32q2 17 15 27t29 6q17 -4 25 -19l76 -125z" />
<glyph unicode="&#xed;" horiz-adv-x="282" d="M97 22v421l-53 10l2 40l137 12l1 -481l68 -12l-1 -15l-111 3l-108 -3l-2 15zM251 680l-111 -96l-21 17l76 125q8 15 25 19q16 4 29 -6t15 -27q3 -16 -13 -32z" />
<glyph unicode="&#xee;" horiz-adv-x="282" d="M97 22v421l-53 10l2 40l137 12l1 -481l68 -12l-1 -15l-111 3l-108 -3l-2 15zM127 679h32l116 -109h-52l-81 78l-84 -78h-50z" />
<glyph unicode="&#xef;" horiz-adv-x="282" d="M97 22v421l-53 10l2 40l137 12l1 -481l68 -12l-1 -15l-111 3l-108 -3l-2 15zM201 656q0 24 16 39t41 15t41 -15t16 -39q0 -25 -16 -40.5t-41 -15.5t-41 15.5t-16 40.5zM4 656q0 24 16 39t41 15t41 -15t16 -39q0 -25 -16 -40.5t-41 -15.5t-41 15.5t-16 40.5z" />
<glyph unicode="&#xf0;" horiz-adv-x="582" d="M194 547l-14 30l129 52q-63 49 -157 64l7 29q122 -13 205 -71l123 50l14 -30l-106 -43q127 -110 127 -318q0 -54 -13 -107t-40 -101t-74.5 -77.5t-109.5 -29.5q-101 0 -168 73t-67 168q0 111 56.5 178.5t150.5 67.5q51 0 98 -27.5t68 -72.5q-13 146 -87 222zM280 22 q32 0 56.5 12t40 34.5t25.5 48t15 59.5t7 61.5t2 62.5q-11 74 -55 115t-99 41q-63 0 -93.5 -57.5t-30.5 -156.5q0 -100 32.5 -160t99.5 -60z" />
<glyph unicode="&#xf1;" d="M92 22v421l-53 10l2 40l137 12v-149q22 68 70.5 111t103.5 43q145 0 145 -149v-337l68 -12l-1 -15l-110 3l-108 -3l-2 15l67 10v329q0 110 -86 110q-56 0 -100.5 -52.5t-46.5 -130.5v-254l68 -12l-1 -15l-110 3l-108 -3l-2 15zM364 580q-32 6 -67 24.5t-67 24.5 q-26 4 -42.5 -11t-13.5 -43l-14 5q-7 50 18.5 79.5t67.5 21.5q31 -5 66 -24t68 -25q26 -4 42.5 11t13.5 43l14 -5q7 -50 -18.5 -79.5t-67.5 -21.5z" />
<glyph unicode="&#xf2;" horiz-adv-x="578" d="M45 250q0 111 67 185.5t177 74.5t177 -74.5t67 -185.5t-67 -185t-177 -74t-177 74t-67 185zM139 250q0 -106 36 -171.5t114 -65.5t114 65.5t36 171.5t-36 172.5t-114 66.5t-114 -66.5t-36 -172.5zM288 585l-111 96q-16 16 -13 32q2 17 15 27t29 6q17 -4 25 -19l76 -125z " />
<glyph unicode="&#xf3;" horiz-adv-x="578" d="M45 250q0 111 67 185.5t177 74.5t177 -74.5t67 -185.5t-67 -185t-177 -74t-177 74t-67 185zM139 250q0 -106 36 -171.5t114 -65.5t114 65.5t36 171.5t-36 172.5t-114 66.5t-114 -66.5t-36 -172.5zM399 685l-111 -96l-21 17l76 125q8 15 25 19q16 4 29 -6t15 -27 q3 -16 -13 -32z" />
<glyph unicode="&#xf4;" horiz-adv-x="578" d="M45 250q0 111 67 185.5t177 74.5t177 -74.5t67 -185.5t-67 -185t-177 -74t-177 74t-67 185zM139 250q0 -106 36 -171.5t114 -65.5t114 65.5t36 171.5t-36 172.5t-114 66.5t-114 -66.5t-36 -172.5zM275 684h32l116 -109h-52l-81 78l-84 -78h-50z" />
<glyph unicode="&#xf5;" horiz-adv-x="578" d="M45 250q0 111 67 185.5t177 74.5t177 -74.5t67 -185.5t-67 -185t-177 -74t-177 74t-67 185zM139 250q0 -106 36 -171.5t114 -65.5t114 65.5t36 171.5t-36 172.5t-114 66.5t-114 -66.5t-36 -172.5zM348 580q-32 6 -67 24.5t-67 24.5q-26 4 -42.5 -11t-13.5 -43l-14 5 q-7 50 18.5 79.5t67.5 21.5q31 -5 66 -24t68 -25q26 -4 42.5 11t13.5 43l14 -5q7 -50 -18.5 -79.5t-67.5 -21.5z" />
<glyph unicode="&#xf6;" horiz-adv-x="578" d="M45 250q0 111 67 185.5t177 74.5t177 -74.5t67 -185.5t-67 -185t-177 -74t-177 74t-67 185zM139 250q0 -106 36 -171.5t114 -65.5t114 65.5t36 171.5t-36 172.5t-114 66.5t-114 -66.5t-36 -172.5zM349 661q0 24 16 39t41 15t41 -15t16 -39q0 -25 -16 -40.5t-41 -15.5 t-41 15.5t-16 40.5zM152 661q0 24 16 39t41 15t41 -15t16 -39q0 -25 -16 -40.5t-41 -15.5t-41 15.5t-16 40.5z" />
<glyph unicode="&#xf7;" horiz-adv-x="482" d="M20 275v53h442v-53h-442zM185 153q0 24 16 39t41 15t41 -15t16 -39q0 -25 -16 -40.5t-41 -15.5t-41 15.5t-16 40.5zM183 454q0 24 16 39t41 15t41 -15t16 -39q0 -25 -16 -40.5t-41 -15.5t-41 15.5t-16 40.5z" />
<glyph unicode="&#xf8;" horiz-adv-x="578" d="M118 -81l48 103q-57 32 -89 92.5t-32 135.5q0 111 67 185.5t177 74.5q51 0 97 -19l40 85h39l-47 -101q54 -34 84.5 -93.5t30.5 -131.5q0 -111 -67 -185t-177 -74q-45 0 -90 15l-41 -87h-40zM139 250q0 -126 46 -187l187 397q-35 29 -83 29q-78 0 -114 -66.5t-36 -172.5z M439 250q0 117 -42 181l-184 -395q31 -23 76 -23q78 0 114 65.5t36 171.5z" />
<glyph unicode="&#xf9;" d="M502 510v-466l53 -10l-2 -30l-132 -12v164q-19 -74 -67.5 -121.5t-106.5 -47.5q-149 0 -149 149v312l-63 12l1 40l147 10v-364q0 -110 86 -110q56 0 100 52t47 130v230l-63 12l1 40zM284 585l-111 96q-16 16 -13 32q2 17 15 27t29 6q17 -4 25 -19l76 -125z" />
<glyph unicode="&#xfa;" d="M502 510v-466l53 -10l-2 -30l-132 -12v164q-19 -74 -67.5 -121.5t-106.5 -47.5q-149 0 -149 149v312l-63 12l1 40l147 10v-364q0 -110 86 -110q56 0 100 52t47 130v230l-63 12l1 40zM395 685l-111 -96l-21 17l76 125q8 15 25 19q16 4 29 -6t15 -27q3 -16 -13 -32z" />
<glyph unicode="&#xfb;" d="M502 510v-466l53 -10l-2 -30l-132 -12v164q-19 -74 -67.5 -121.5t-106.5 -47.5q-149 0 -149 149v312l-63 12l1 40l147 10v-364q0 -110 86 -110q56 0 100 52t47 130v230l-63 12l1 40zM271 684h32l116 -109h-52l-81 78l-84 -78h-50z" />
<glyph unicode="&#xfc;" d="M502 510v-466l53 -10l-2 -30l-132 -12v164q-19 -74 -67.5 -121.5t-106.5 -47.5q-149 0 -149 149v312l-63 12l1 40l147 10v-364q0 -110 86 -110q56 0 100 52t47 130v230l-63 12l1 40zM345 661q0 24 16 39t41 15t41 -15t16 -39q0 -25 -16 -40.5t-41 -15.5t-41 15.5 t-16 40.5zM148 661q0 24 16 39t41 15t41 -15t16 -39q0 -25 -16 -40.5t-41 -15.5t-41 15.5t-16 40.5z" />
<glyph unicode="&#xfd;" horiz-adv-x="525" d="M321 661l-111 -96l-21 17l76 125q8 15 25 19q16 4 29 -6t15 -27q3 -16 -13 -32z" />
<glyph unicode="&#xfe;" d="M185 -222l68 -12l-1 -15l-111 3l-108 -3l-2 15l67 10v901l-58 19v37l144 22l1 -138v-216q20 48 63 78t92 30q95 0 150 -75.5t55 -175.5q0 -68 -25 -127.5t-81.5 -100.5t-134.5 -41q-71 0 -119 32v-243zM322 458q-49 0 -89.5 -32t-47.5 -81v-223q0 -44 29.5 -76.5 t91.5 -32.5q81 0 114 62.5t33 182.5q0 84 -33 142t-98 58z" />
<glyph unicode="&#xff;" horiz-adv-x="525" d="M320 681q0 24 16 39t41 15t41 -15t16 -39q0 -25 -16 -40.5t-41 -15.5t-41 15.5t-16 40.5zM123 681q0 24 16 39t41 15t41 -15t16 -39q0 -25 -16 -40.5t-41 -15.5t-41 15.5t-16 40.5z" />
<glyph unicode="&#x131;" horiz-adv-x="282" d="M97 22v421l-53 10l2 40l137 12l1 -481l68 -12l-1 -15l-111 3l-108 -3l-2 15z" />
<glyph unicode="&#x141;" horiz-adv-x="599" d="M208 689v-290l115 44l11 -36l-126 -48v-334h153q72 -1 110 33t62 108l10 31h30l-11 -197h-398l-118 -2v14l69 11v300l-82 -31l-11 36l93 35v326l-70 9l1 16l116 -3l113 3v-16z" />
<glyph unicode="&#x142;" horiz-adv-x="302" d="M26 312l-11 36l90 39v307l-53 10l2 40l138 12v-330l84 37l11 -36l-95 -42v-360l68 -12l-1 -16l-111 3l-108 -3l-2 16l67 10v324z" />
<glyph unicode="&#x152;" horiz-adv-x="1008" d="M531 714h410l11 -187h-31l-10 31q-22 69 -60.5 101t-110.5 31h-133v-317h43q121 -2 121 82v20h30v-232h-30v20q0 84 -121 82h-43v-321h164q72 -1 110.5 31t60.5 101l10 31h31l-11 -187h-457q-56 -7 -117 -7q-43 0 -87.5 13t-89 42t-79 70.5t-56 103.5t-21.5 136t21.5 136 t56 103.5t79 70.5t89 42t87.5 13q70 0 133 -9zM175 359q0 -154 61.5 -248.5t163.5 -94.5q72 0 114 31v626q-43 27 -114 27q-102 0 -163.5 -94t-61.5 -247z" />
<glyph unicode="&#x153;" horiz-adv-x="900" d="M45 250q0 111 67 185.5t177 74.5q131 0 200 -105q64 105 178 105q76 0 129.5 -46t53.5 -132v-34h-313q-2 -40 -2 -62q0 -75 44.5 -133t122.5 -58q102 0 142 89l14 -5q-26 -62 -78.5 -100.5t-115.5 -38.5q-117 0 -179 98q-69 -97 -196 -97q-110 0 -177 74t-67 185z M139 250q0 -106 36 -171.5t114 -65.5t114 65.5t36 171.5t-36 172.5t-114 66.5t-114 -66.5t-36 -172.5zM665 486q-100 0 -124 -157h227q0 79 -29.5 118t-73.5 39z" />
<glyph unicode="&#x160;" horiz-adv-x="541" d="M86 204q18 -193 178 -193q63 0 103 42t40 106q0 18 -4.5 34t-16.5 30.5t-21 24t-29.5 22.5t-29.5 18.5t-33.5 18t-30.5 15.5q-104 50 -145.5 102.5t-41.5 117.5q0 79 66 130t139 51q50 0 91 -19.5t60 -42.5l10 54h30v-192h-25q-6 89 -52 136t-112 47t-101.5 -39.5 t-35.5 -103.5q0 -22 9 -39.5t30 -33.5t37 -26t50 -27.5t49 -25.5q94 -50 138.5 -101t44.5 -113q0 -95 -62 -151t-150 -56q-110 0 -175 75l-9 -64h-27v202zM284 778h-32l-116 109h52l81 -78l84 78h50z" />
<glyph unicode="&#x161;" horiz-adv-x="450" d="M85 159q19 -77 48.5 -113t86.5 -36q44 0 72 27.5t28 67.5q0 12 -3.5 23.5t-12.5 21.5t-15 16.5t-21.5 16t-22 13t-25 13t-22.5 11.5q-73 38 -102.5 75.5t-29.5 84.5q0 59 50.5 93.5t109.5 34.5q70 0 111 -43l8 35h28v-139h-24q-12 57 -44.5 93t-76.5 36q-45 0 -70 -25.5 t-25 -63.5q0 -14 6 -26t22 -23.5t25.5 -18t35 -19.5t33.5 -17q72 -38 105 -73.5t33 -81.5q0 -71 -47.5 -112t-118.5 -41q-44 0 -79.5 16.5t-55.5 43.5l-6 -49h-26v158zM241 573h-32l-116 109h52l81 -78l84 78h50z" />
<glyph unicode="&#x178;" horiz-adv-x="653" d="M76 689l-61 13v14l111 -2l118 2v-14l-62 -11v-10l170 -340l171 335v14l-66 11v15l100 -2l81 2v-15l-65 -13l-199 -383v-280l67 -13v-14l-112 2l-117 -2v14l68 11v274zM386 857q0 24 16 39t41 15t41 -15t16 -39q0 -25 -16 -40.5t-41 -15.5t-41 15.5t-16 40.5zM189 857 q0 24 16 39t41 15t41 -15t16 -39q0 -25 -16 -40.5t-41 -15.5t-41 15.5t-16 40.5z" />
<glyph unicode="&#x17d;" horiz-adv-x="585" d="M76 714h448v-25l-385 -666h227q38 0 65 11.5t43 34.5t22.5 38t14.5 40l10 34l34 -1l-16 -181h-499v39l384 655h-161q-25 0 -41.5 -1.5t-40 -7.5t-38 -17.5t-27 -34t-16.5 -53.5l-4 -33l-31 2zM307 769h-32l-116 109h52l81 -78l84 78h50z" />
<glyph unicode="&#x17e;" horiz-adv-x="465" d="M69 500h350v-24l-288 -442v-5h190q13 0 23 3t18 10t13.5 13t11 18t7.5 18t6.5 20t5.5 17h24l-5 -128h-390v39l287 433v3h-152q-58 0 -82 -102l-30 2zM247 565h-32l-116 109h52l81 -78l84 78h50z" />
<glyph unicode="&#x192;" horiz-adv-x="330" d="M18 460v21l75 13v24q0 100 47 167t130 67q102 0 117 -59q5 -19 -6.5 -33.5t-31.5 -15.5q-27 -1 -44 21.5t-19 56.5q-10 6 -28 6q-78 0 -78 -160v-68h137v-40h-137v-401q0 -131 -45.5 -206t-141.5 -75q-34 0 -58.5 14.5t-24.5 33.5q0 16 11 27t30 11q21 0 45 -26t50 -26 q27 0 37 39t10 136v473h-75z" />
<glyph unicode="&#x2c6;" horiz-adv-x="324" d="M149 711h32l116 -109h-52l-81 78l-84 -78h-50z" />
<glyph unicode="&#x2c7;" horiz-adv-x="324" d="M178 602h-32l-116 109h52l81 -78l84 78h50z" />
<glyph unicode="&#x2d8;" horiz-adv-x="365" d="M183 599q-52 0 -89.5 32.5t-43.5 82.5h21q8 -33 39.5 -54t72.5 -21t71.5 21t38.5 54h22q-7 -50 -44 -82.5t-88 -32.5z" />
<glyph unicode="&#x2d9;" horiz-adv-x="204" d="M45 670q0 24 16 39t41 15t41 -15t16 -39q0 -25 -16 -40.5t-41 -15.5t-41 15.5t-16 40.5z" />
<glyph unicode="&#x2da;" horiz-adv-x="288" d="M60 637q0 35 25 59.5t59 24.5t59 -24.5t25 -59.5t-25 -59.5t-59 -24.5t-59 24.5t-25 59.5zM93 637q0 -20 15.5 -35.5t35.5 -15.5t35.5 15.5t15.5 35.5t-15.5 35.5t-35.5 15.5t-35.5 -15.5t-15.5 -35.5z" />
<glyph unicode="&#x2db;" horiz-adv-x="320" d="M175 27l11 -14q-67 -27 -67 -91q0 -63 69 -63q35 0 58 25l14 -8q-33 -73 -104 -73q-36 0 -66 25.5t-30 64.5t29 77t86 57z" />
<glyph unicode="&#x2dc;" horiz-adv-x="424" d="M271 614q-32 6 -67 24.5t-67 24.5q-26 4 -42.5 -11t-13.5 -43l-14 5q-7 50 18.5 79.5t67.5 21.5q31 -5 66 -24t68 -25q26 -4 42.5 11t13.5 43l14 -5q7 -50 -18.5 -79.5t-67.5 -21.5z" />
<glyph unicode="&#x2dd;" horiz-adv-x="430" d="M209 661l-144 -96l-15 17l119 125q13 15 31 19t27.5 -6t5.5 -27q-3 -16 -24 -32zM354 661l-144 -96l-15 17l119 125q13 15 31 19t27.5 -6t5.5 -27q-3 -16 -24 -32z" />
<glyph unicode="&#x394;" horiz-adv-x="676" d="M40 -2l273 713h51l269 -711h-554zM310 600l-204 -542h407z" />
<glyph unicode="&#x3bc;" horiz-adv-x="613" d="M433 227v221l-63 12l1 40l148 10v-466l53 -10l-2 -30l-132 -12v164q-19 -74 -67.5 -121.5t-106.5 -47.5q-34 0 -63 9v-217l68 -12l-1 -16l-111 3l-108 -3l-2 16l67 10v671l-53 10l-9 2l1 40l147 10h1v-389q8 -85 85 -85q58 0 102.5 55t44.5 136z" />
<glyph unicode="&#x2013;" horiz-adv-x="542" d="M50 276v63h442v-63h-442z" />
<glyph unicode="&#x2014;" horiz-adv-x="642" d="M50 276v63h542v-63h-542z" />
<glyph unicode="&#x2018;" horiz-adv-x="221" d="M164 560q0 -24 -16 -39t-41 -15t-41 20.5t-16 53.5q0 58 35 107t67 68l19 -22q-29 -24 -46 -48t-19 -62q24 -4 41 -22.5t17 -40.5z" />
<glyph unicode="&#x2019;" horiz-adv-x="221" d="M57 670q0 24 16 39t41 15t41 -20.5t16 -53.5q0 -58 -35 -107t-67 -68l-19 22q29 24 46 48t19 62q-24 4 -41 22.5t-17 40.5z" />
<glyph unicode="&#x201a;" horiz-adv-x="211" d="M52 45q0 24 16 39t41 15t41 -20.5t16 -53.5q0 -58 -35 -107t-67 -68l-19 22q29 24 46 48t19 62q-24 4 -41 22.5t-17 40.5z" />
<glyph unicode="&#x201c;" horiz-adv-x="376" d="M319 550q0 -24 -16 -39t-41 -15t-41 20.5t-16 53.5q0 58 35 107t67 68l19 -22q-29 -24 -46 -48t-19 -62q24 -4 41 -22.5t17 -40.5zM164 550q0 -24 -16 -39t-41 -15t-41 20.5t-16 53.5q0 58 35 107t67 68l19 -22q-29 -24 -46 -48t-19 -62q24 -4 41 -22.5t17 -40.5z" />
<glyph unicode="&#x201d;" horiz-adv-x="370" d="M57 670q0 24 16 39t41 15t41 -20.5t16 -53.5q0 -58 -35 -107t-67 -68l-19 22q29 24 46 48t19 62q-24 4 -41 22.5t-17 40.5zM206 670q0 24 16 39t41 15t41 -20.5t16 -53.5q0 -58 -35 -107t-67 -68l-19 22q29 24 46 48t19 62q-24 4 -41 22.5t-17 40.5z" />
<glyph unicode="&#x201e;" horiz-adv-x="359" d="M52 45q0 24 16 39t41 15t41 -20.5t16 -53.5q0 -58 -35 -107t-67 -68l-19 22q29 24 46 48t19 62q-24 4 -41 22.5t-17 40.5zM200 45q0 24 16 39t41 15t41 -20.5t16 -53.5q0 -58 -35 -107t-67 -68l-19 22q29 24 46 48t19 62q-24 4 -41 22.5t-17 40.5z" />
<glyph unicode="&#x2020;" horiz-adv-x="363" d="M30 500h125v214h44v-214h134v-44h-134v-455h-44v455h-125v44z" />
<glyph unicode="&#x2021;" horiz-adv-x="363" d="M30 500h125v214h44v-214h134v-44h-134v-412h134v-44h-134v-239h-44v239h-125v44h125v412h-125v44z" />
<glyph unicode="&#x2022;" horiz-adv-x="321" d="M50 313q0 47 31 75.5t80 28.5t79.5 -28.5t30.5 -75.5q0 -48 -31 -78.5t-79 -30.5t-79.5 30.5t-31.5 78.5z" />
<glyph unicode="&#x2026;" horiz-adv-x="612" d="M45 45q0 24 16 39t41 15t41 -15t16 -39q0 -25 -16 -40.5t-41 -15.5t-41 15.5t-16 40.5zM249 45q0 24 16 39t41 15t41 -15t16 -39q0 -25 -16 -40.5t-41 -15.5t-41 15.5t-16 40.5zM453 45q0 24 16 39t41 15t41 -15t16 -39q0 -25 -16 -40.5t-41 -15.5t-41 15.5t-16 40.5z " />
<glyph unicode="&#x2030;" horiz-adv-x="1099" d="M90 566q0 67 43 112.5t115 45.5t115 -45.5t43 -112.5q0 -71 -43 -118.5t-115 -47.5t-115 48t-43 118zM166 566q0 -148 82 -148q43 0 62.5 41.5t19.5 106.5q0 62 -19.5 101t-62.5 39q-82 0 -82 -140zM87 170l662 491l23 -27l-662 -492zM350 156q0 67 43 112.5t115 45.5 t115 -45.5t43 -112.5q0 -71 -43 -118.5t-115 -47.5t-115 48t-43 118zM426 156q0 -148 82 -148q43 0 62.5 41.5t19.5 106.5q0 62 -19.5 101t-62.5 39q-82 0 -82 -140zM719 156q0 67 43 112.5t115 45.5t115 -45.5t43 -112.5q0 -71 -43 -118.5t-115 -47.5t-115 48t-43 118z M795 156q0 -148 82 -148q43 0 62.5 41.5t19.5 106.5q0 62 -19.5 101t-62.5 39q-82 0 -82 -140z" />
<glyph unicode="&#x2039;" horiz-adv-x="279" d="M229 379l-96 -186l96 -187l-19 -9l-160 189v16l160 189z" />
<glyph unicode="&#x203a;" horiz-adv-x="279" d="M50 9l96 186l-96 187l19 9l160 -189v-16l-160 -189z" />
<glyph unicode="&#x2044;" horiz-adv-x="497" d="M5 0l443 714h44l-443 -714h-44z" />
<glyph unicode="&#x2074;" horiz-adv-x="397" d="M25 397v23h1l256 302l34 -1v-300h64v-24h-64v-90l54 -9v-11l-86 2l-85 -2v11l53 8v91h-227zM252 642l-187 -221h187v221z" />
<glyph unicode="&#x20ac;" horiz-adv-x="708" d="M20 390v34h88q11 75 45 134.5t80.5 94t96.5 52.5t97 18q61 0 112.5 -19.5t72.5 -41.5l12 53h24v-183h-24q-19 173 -195 173q-87 0 -143.5 -76.5t-68.5 -204.5h338v-34h-341v-31q0 -26 1 -38h340v-33h-338q13 -127 69.5 -202t142.5 -75q176 0 195 183h24v-193h-24l-12 63 q-21 -26 -72.5 -48.5t-112.5 -22.5q-47 0 -96.5 17.5t-95.5 52t-80.5 93t-45.5 132.5h-89v33h85q-1 12 -1 37q0 21 1 32h-85z" />
<glyph unicode="&#x2122;" horiz-adv-x="567" d="M496 527l21 -5v-10l-41 1l-41 -1v10l22 3v149l-73 -161h-9l-79 152v-138l24 -5v-10l-34 1l-32 -1v10l23 3v157q0 18 -23 22l1 10h58l76 -143l64 143h64v-10l-21 -3v-174zM183 698h-19v-173l22 -2l-1 -11l-40 1l-41 -1v11l21 2v173h-21q-42 0 -42 -33v-9h-12v58h185v-58 h-12v9q0 33 -40 33z" />
<glyph unicode="&#x2202;" horiz-adv-x="582" d="M242 -5q-101 0 -157.5 73t-43.5 168q16 112 80.5 181.5t157.5 69.5q53 0 98.5 -28t58.5 -86q4 33 6 59.5t1.5 60t-6 59t-16 51t-30 41.5t-45.5 26t-65 8t-88 -15l1 28q70 25 126.5 26.5t94.5 -18.5t65.5 -57t38.5 -88.5t13.5 -113t-8.5 -130.5q-6 -42 -20 -84.5 t-38 -84.5t-55 -74t-75 -52t-94 -20zM234 27q150 0 192 273q0 74 -38.5 115t-93.5 41q-63 0 -101.5 -57.5t-52.5 -156.5q-31 -215 94 -215z" />
<glyph unicode="&#x2212;" horiz-adv-x="502" d="M30 273v53h442v-53h-442z" />
<glyph unicode="&#x222b;" horiz-adv-x="330" d="M93 -18v536q0 100 47 167t130 67q102 0 117 -59q5 -19 -6.5 -33.5t-31.5 -15.5q-27 -1 -44 23.5t-19 59.5q-10 6 -28 6q-78 0 -78 -165v-509q0 -131 -45.5 -206t-141.5 -75q-34 0 -58.5 14.5t-24.5 33.5q0 16 11 27t30 11q21 0 45 -28.5t50 -28.5q27 0 37 39t10 136z" />
<glyph unicode="&#x2248;" horiz-adv-x="526" d="M340 321q-45 6 -93.5 24.5t-92.5 24.5q-35 4 -58 -11t-19 -43l-20 5q-9 50 26 79.5t93 21.5q44 -6 92.5 -24.5t93.5 -24.5q35 -4 58 11t19 43l20 -5q9 -50 -26 -79.5t-93 -21.5zM350 191q-45 6 -93.5 24.5t-92.5 24.5q-35 4 -58 -11t-19 -43l-20 5q-9 50 26 79.5t93 21.5 q44 -6 92.5 -24.5t93.5 -24.5q35 -4 58 11t19 43l20 -5q9 -50 -26 -79.5t-93 -21.5z" />
<glyph unicode="&#x2260;" horiz-adv-x="522" d="M40 366v53h242l38 91h38l-38 -91h162v-53h-185l-46 -110h231v-53h-253l-41 -99h-38l41 99h-151v53h173l46 110h-219z" />
<glyph unicode="&#x2264;" horiz-adv-x="482" d="M431 441l-325 -149l325 -144v-48l-379 168v47l379 169v-43zM30 0v43h422v-43h-422z" />
<glyph unicode="&#x2265;" horiz-adv-x="482" d="M52 143l325 149l-325 144v48l379 -168v-47l-379 -169v43zM30 0v43h422v-43h-422z" />
<glyph unicode="&#xe000;" horiz-adv-x="500" d="M0 500h500v-500h-500v500z" />
<glyph horiz-adv-x="819" d="M494 465v19l65 10v159q-47 32 -136 32q-46 0 -76.5 -25t-30.5 -65q0 -61 61 -110q28 -17 46 -44q21 -26 12 -62.5t-48 -36.5q-21 0 -37 15.5t-16 34.5q0 37 21 78q-37 16 -75 16q-71 0 -110.5 -68t-39.5 -174q0 -83 43 -140.5t111 -57.5q110 0 149 104l16 -4 q-21 -69 -71 -112.5t-112 -43.5q-108 0 -169.5 75t-61.5 169q0 105 68.5 190.5t167.5 85.5q17 0 47 -4l4 12q-53 43 -53 102q0 35 31.5 66t88.5 31q65 0 144 -31.5t113 -31.5v-154h137v-35h-137v-324q0 -96 55 -99q49 -5 94 43l14 -14q-56 -72 -144 -74q-37 -1 -71 31.5 t-34 101.5l-1 335h-65z" />
<glyph horiz-adv-x="386" d="M150 464l-88 13v24l132 -2l133 2v-24l-89 -11v-431l88 -13v-24l-132 2l-133 -2v24l89 11v431z" />
<glyph horiz-adv-x="501" d="M129 81h297l11 27l21 -3l-20 -105h-393l-3 45q127 90 188 145.5t79 92t18 85.5t-24.5 80.5t-72.5 31.5q-62 0 -113 -44q32 -50 32 -90q0 -54 -51 -54q-33 0 -44 38t8 70q70 109 200 109q77 0 121.5 -34.5t44.5 -104.5q0 -29 -19 -61.5t-43.5 -58t-71 -59.5t-77.5 -54.5 t-88 -55.5z" />
<glyph horiz-adv-x="555" d="M173 124l-12 28h1l-4 5q63 9 107 24.5t68 31.5t37 39t16 41.5t3 45.5q0 55 -34 98t-96 43q-60 0 -102 -33q19 -53 19 -94q0 -26 -15.5 -39.5t-41.5 -13.5q-37 0 -48.5 36.5t8.5 69.5q26 52 86.5 76t119.5 24q82 0 142 -43t60 -127q0 -64 -50 -111t-151 -69l3 -8 q104 -1 165 -53.5t61 -124.5q0 -67 -39 -112.5t-95.5 -64t-125.5 -18.5q-68 0 -126 27.5t-77 63.5q-21 44 -4.5 80t54.5 36q25 0 37.5 -16.5t12.5 -40.5q0 -37 -22 -78q10 -21 50.5 -35t74.5 -14q74 0 115 45t41 130q0 95 -60.5 134.5t-177.5 16.5z" />
<glyph horiz-adv-x="551" d="M35 -1v33h1l334 479l46 -1v-478h90v-33h-90v-177l75 -13v-18l-119 2l-118 -2v18l74 11v179h-293zM328 389l-250 -357h250v357z" />
<glyph horiz-adv-x="527" d="M341 421h-179l-37 -236q57 49 150 49q104 0 153 -63t49 -147q0 -114 -67.5 -181t-174.5 -67q-60 0 -113 27.5t-70 63.5q-21 44 -4.5 80t54.5 36q25 0 37.5 -16.5t12.5 -40.5q0 -37 -22 -78q9 -21 41.5 -35t63.5 -14q72 0 107.5 58t35.5 150q0 194 -131 194 q-73 0 -122 -51h-5l-32 1l50 348h323v-115h-31q-5 12 -11 18.5t-25.5 12.5t-52.5 6z" />
<glyph horiz-adv-x="587" d="M507 588q-3 -43 -45 -43t-55 40q-14 49 4 96q-40 19 -70 19q-170 0 -175 -382q24 56 73 88.5t99 32.5q93 0 146 -56t53 -146q0 -98 -67 -172.5t-168 -74.5q-62 0 -110 28t-75 73.5t-40.5 96t-13.5 102.5q0 199 77 316.5t191 117.5q66 0 122.5 -35.5t53.5 -100.5zM311 12 q67 0 97.5 54.5t30.5 146.5q0 186 -122 186q-53 0 -94 -34.5t-57 -97.5q0 -50 5.5 -88.5t19.5 -79.5t44.5 -64t75.5 -23z" />
<glyph horiz-adv-x="458" d="M249 -174q0 -46 -45 -46q-44 0 -44 46q0 134 57.5 289.5t174.5 301.5l-2 2h-297q-29 0 -40.5 -7t-26.5 -30l-21 1l16 117h417v-50q-109 -150 -149 -303.5t-40 -320.5z" />
<glyph horiz-adv-x="578" d="M503 561q0 -61 -43 -105.5t-112 -63.5q78 -33 131 -83t53 -116q0 -84 -64.5 -142t-169.5 -58t-169.5 49t-64.5 121q0 65 45 113t119 70q-66 31 -109.5 77.5t-43.5 107.5q0 80 59 135t155 55q97 0 155.5 -46t58.5 -114zM275 328l-25 9q-52 -20 -77 -64.5t-25 -99.5 q0 -71 36.5 -115.5t113.5 -44.5t113.5 42t36.5 108q0 31 -15 57t-42.5 46.5t-54 34t-61.5 27.5zM312 406l15 -5q92 37 92 150q0 66 -31.5 108t-98.5 42t-98.5 -39.5t-31.5 -100.5q0 -93 153 -155z" />
<glyph horiz-adv-x="582" d="M88 -120v1q-4 11 -6 30.5t10.5 38.5t36.5 19q25 0 38 -15t13 -38q0 -39 -28 -76q43 -33 103 -33q50 0 86 38t53 99.5t24.5 121.5t7.5 123q-21 -62 -71.5 -93t-104.5 -31q-93 0 -146.5 58.5t-53.5 152.5q0 91 67 161t168 70q62 0 109.5 -29.5t74.5 -77.5t40 -101t13 -107 q0 -197 -73.5 -304.5t-182.5 -107.5q-69 0 -115 29.5t-63 70.5zM272 480q-124 0 -124 -210q0 -80 30 -127t92 -47q55 0 99 41t55 115q-15 228 -152 228z" />
<glyph horiz-adv-x="680" d="M60 247q0 111 72.5 186.5t197.5 75.5t197.5 -75.5t72.5 -186.5q0 -110 -72.5 -183t-197.5 -73t-197.5 73t-72.5 183zM166 247q0 -231 164 -231t164 231q0 237 -164 237t-164 -237z" />
<glyph horiz-adv-x="785" d="M460 465v19l65 10v149q-6 5 -18.5 12t-55.5 18.5t-92 11.5q-56 0 -91.5 -23t-35.5 -63q0 -37 17 -60.5t47 -43.5v-2q25 -12 41 -28l8 35h28v-139h-24q-12 57 -44.5 93t-76.5 36q-45 0 -70 -25.5t-25 -63.5q0 -14 6 -26t22 -23.5t25.5 -18t35 -19.5t33.5 -17 q72 -38 105 -73.5t33 -81.5q0 -71 -47.5 -112t-118.5 -41q-44 0 -79.5 16.5t-55.5 43.5l-6 -49h-26v158l25 1q19 -77 48.5 -113t86.5 -36q44 0 72 27.5t28 67.5q0 12 -3.5 23.5t-12.5 21.5t-15 16.5t-21.5 16t-22 13t-25 13t-22.5 11.5q-73 38 -102.5 75.5t-29.5 84.5 q0 59 50.5 93.5t109.5 34.5q7 0 23 -2l3 9q-36 23 -51.5 45.5t-15.5 63.5q0 35 36.5 64t103.5 29q57 0 110.5 -18.5t97.5 -36.5t79 -18v-144h137v-35h-137v-324q0 -96 55 -99q49 -5 94 43l14 -14q-56 -72 -144 -74q-37 -1 -71 31.5t-34 101.5l-1 335h-65z" />
<glyph horiz-adv-x="661" d="M35 12l67 13l69 174v1l147 371h51l215 -546l67 -13v-14l-117 2l-112 -2v14l68 11l-54 136h-244l-52 -136l68 -11v-14l-84 2l-89 -2v14zM311 472l-104 -272h212z" />
<glyph horiz-adv-x="600" d="M35 554l1 16h251q114 0 178 -39.5t64 -100.5q0 -110 -165 -138l1 -5q93 -6 149 -40.5t56 -97.5q0 -66 -64 -107.5t-178 -41.5h-174l-118 -2v14l69 11v522zM198 25h1l122 -1q80 -1 117.5 38t37.5 90q0 49 -37.5 84t-127.5 33h-113v-244zM202 297l122 4q60 11 86 46.5 t26 79.5q0 47 -38 83.5t-118 35.5l-82 -1v-248h4z" />
<glyph horiz-adv-x="619" d="M175 289q0 -123 53.5 -200.5t141.5 -77.5q147 0 185 183h24v-193h-24l-12 73q-19 -32 -67 -56.5t-108 -24.5q-49 0 -100.5 17.5t-97.5 51.5t-75.5 93t-29.5 133t29.5 132.5t76 92t97 50.5t100.5 17q60 0 108 -21.5t67 -49.5l12 63h24v-183h-24q-38 173 -185 173 q-89 0 -142 -75.5t-53 -197.5z" />
<glyph horiz-adv-x="686" d="M198 25l82 -1q68 -1 117 22t74 64t36 83.5t11 89.5q0 49 -13.5 93.5t-41 84t-77.5 62.5t-116 23l-72 -1v-520zM36 570h251q156 0 245 -80t89 -204q0 -135 -94 -210.5t-240 -75.5h-133l-118 -2v14l69 11v522l-70 9z" />
<glyph horiz-adv-x="559" d="M31 570h466l11 -177h-31l-10 31q-20 63 -59.5 93t-111.5 29l-103 -1v-242h33q101 -2 101 72v20h30v-212h-30v20q0 74 -101 72h-33v-250l134 -1q72 -1 111.5 29t59.5 93l10 31h31l-11 -177h-379l-118 -2v14l69 11v522l-70 9z" />
<glyph horiz-adv-x="533" d="M36 570h466l11 -177h-31l-10 31q-20 63 -59.5 93t-111.5 29l-103 -1v-245h56q120 -2 120 72v20h31v-212h-31v20q0 40 -32.5 59t-87.5 18h-56v-252l71 -8v-19l-115 2l-118 -2v14l69 11v522l-70 9z" />
<glyph horiz-adv-x="701" d="M175 289v-2q0 -122 53.5 -199t141.5 -77q48 0 83 11t50.5 27t21.5 28.5t6 22.5v122l-71 13v19l115 -3l106 3v-17l-61 -13v-143q-32 -38 -103 -63t-149 -25q-49 0 -100.5 17.5t-97.5 51.5t-75.5 93t-29.5 133t29.5 132.5t76 92t97 50.5t100.5 17q60 0 109.5 -22.5 t71.5 -48.5l11 63h29v-173h-24q-39 158 -195 158q-89 0 -142 -73.5t-53 -194.5z" />
<glyph horiz-adv-x="718" d="M198 25l68 -13v-14l-112 2l-118 -2v14l69 11v523l-70 9l1 16l116 -2l113 2v-16l-67 -9v-247h329v247l-69 9l1 16l115 -2l113 2v-16l-66 -9v-521l67 -13v-14l-112 2l-117 -2v14l68 11v242h-329v-240z" />
<glyph horiz-adv-x="311" d="M203 25l68 -13v-14l-112 2l-118 -2v14l69 11v526l-70 9l1 16l116 -3l113 3v-16l-67 -9v-524z" />
<glyph horiz-adv-x="445" d="M243 547l-68 9l1 16l111 -3l118 3v-16l-69 -11l-1 -270q0 -127 -53.5 -204t-148.5 -77q-43 0 -73 18t-30 40q0 16 11 27t30 11q18 0 32 -10.5t22.5 -23t24.5 -23t36 -10.5q57 0 57 180v344z" />
<glyph horiz-adv-x="644" d="M198 25l68 -13v-14l-112 2l-118 -2v14l69 11v523l-70 9l1 16l116 -3l113 3v-16l-67 -9v-305l253 291l-2 16l-64 4l2 19l101 -2l97 2v-18l-73 -9l-198 -212l257 -302l53 -14l-1 -16l-99 1l-127 -1v15l55 12l-1 11l-195 233l-58 -63v-183z" />
<glyph horiz-adv-x="543" d="M198 545v-520h123q67 -1 102.5 32.5t59.5 108.5l10 31h30l-11 -197h-358l-118 -2v14l69 11v522l-70 9l1 16l116 -3l113 3v-16z" />
<glyph horiz-adv-x="828" d="M434 113l231 457v-2l1 2h131v-16l-66 -9v-520l67 -13v-14l-117 2l-112 -2v14l68 11v422l-224 -445h-24l-238 414v-389l77 -13v-14l-97 2l-96 -2v14l74 11v456q0 38 -19.5 54t-54.5 21l1 16h133z" />
<glyph horiz-adv-x="693" d="M550 544l-83 13v14l97 -2l99 2v-14l-73 -11v-546h-52l-388 429v-404l79 -13v-14l-97 2l-96 -2v14l74 11v457q0 38 -20 54t-55 21l1 16l124 -3l390 -433v409z" />
<glyph horiz-adv-x="750" d="M65 283q0 127 85 212t225 85t225 -85t85 -212t-85 -209.5t-225 -82.5t-225 82.5t-85 209.5zM176 283q0 -267 199 -267t199 267q0 124 -47 198t-152 74t-152 -74t-47 -198z" />
<glyph d="M198 25l68 -13v-14l-112 2l-118 -2v14l69 11v522l-70 9l1 16h262q124 0 193 -47.5t69 -122.5q0 -84 -74 -130t-188 -46h-100v-199zM290 543h-92v-292h103q48 -1 82 11t51 35t24.5 47t7.5 53q0 59 -42.5 103t-133.5 43z" />
<glyph horiz-adv-x="750" d="M413 7l44 -3l-136 -54q39 -9 108.5 -43t112.5 -34q57 0 85 15q2 1 4.5 9t8 14.5t15.5 6.5q13 0 15 -8.5t-6 -15.5q-27 -28 -72.5 -53.5t-87.5 -25.5q-52 0 -92.5 14.5t-81.5 38.5t-64 33q-25 10 -66 -16q-34 40 19 47zM65 283q0 127 85 212t225 85t225 -85t85 -212 t-85 -209.5t-225 -82.5t-225 82.5t-85 209.5zM176 283q0 -267 199 -267t199 267q0 124 -47 198t-152 74t-152 -74t-47 -198z" />
<glyph horiz-adv-x="672" d="M198 25l68 -13v-14l-112 2l-118 -2v14l69 11v522l-70 9l1 16h261q115 0 178.5 -40t63.5 -105q0 -102 -143 -133q2 -9 4 -9q66 -2 99 -38t33 -94v-27q0 -91 67 -91q19 0 33 12q3 20 6 21q3 2 9.5 -1t8.5 -9t-6 -16q-44 -46 -107 -46q-103 0 -103 129v29q0 45 -22 80.5 t-62 35.5h-42h-7h-109v-243zM290 546h-92v-250h72q91 -2 131 36t40 90q0 51 -36 88t-115 36z" />
<glyph horiz-adv-x="518" d="M76 194q27 -95 69 -139t122 -44q59 0 94.5 28t35.5 74q0 21 -11 40t-22 30.5t-38.5 27t-38.5 20.5l-44 20q-105 42 -147.5 83.5t-42.5 92.5q0 73 61 112.5t134 39.5q55 0 98.5 -19t62.5 -44l10 59h30v-172h-25q-15 70 -62 114t-112 44q-61 0 -94 -29t-33 -74 q0 -14 7.5 -27t18 -22.5t30 -20t34 -17t41 -17.5t41.5 -18q92 -40 135 -82t43 -93q0 -82 -58.5 -126.5t-143.5 -44.5q-116 0 -185 80l-9 -69h-27v192z" />
<glyph horiz-adv-x="595" d="M409 545h-61v-522l69 -9l-1 -16l-112 3l-116 -3v16l66 9v522h-67q-60 1 -95.5 -27t-35.5 -84v-30h-31l1 166h543l1 -166h-30v30q0 56 -35.5 84t-95.5 27z" />
<glyph horiz-adv-x="681" d="M333 -2q-95 0 -161.5 57.5t-66.5 161.5v331l-70 9l1 16l111 -3l118 3v-16l-67 -9v-329q0 -90 43.5 -137t121.5 -47q83 0 128.5 49.5t45.5 144.5v319l-66 9v16l86 -3l83 3l1 -16l-69 -9v-321q0 -112 -64 -170.5t-175 -58.5z" />
<glyph horiz-adv-x="636" d="M626 557l-67 -13l-215 -544h-51l-216 544l-67 13v14l117 -2l112 2v-14l-68 -11l175 -438l175 438l-68 11v14l85 -2l88 2v-14z" />
<glyph horiz-adv-x="920" d="M285 0h-43l-165 538l-67 17l1 16l117 -2l120 1v-20l-69 -11l-1 -9l123 -403l170 443h44l183 -439l102 401l-5 8l-80 13v16l95 -2l100 2v-18l-67 -14l-148 -537h-42l-188 459z" />
<glyph horiz-adv-x="619" d="M22 11l63 13l176 246l-180 275l-61 13v14l106 -2l128 2v-14l-64 -11l130 -195l140 195l-69 11v14l83 -2l95 2v-14l-65 -13l-162 -226l196 -295l61 -13v-14l-118 2l-123 -2v14l67 11l-142 215l-154 -215l71 -11v-14l-87 2l-91 -2v14z" />
<glyph horiz-adv-x="613" d="M71 545l-61 13v14l111 -2l118 2v-14l-62 -11v-10l159 -275l159 270l-2 14l-71 11v15l100 -2l81 2v-15l-65 -13l-184 -315v-204l67 -13v-14l-112 2l-117 -2v14l68 11v199z" />
<glyph horiz-adv-x="535" d="M61 570h418v-25l-345 -522h187q38 0 65.5 11t43 31t23 35.5t13.5 36.5l10 34l34 -1l-16 -171h-459v39l344 511h-131q-31 0 -52.5 -2.5t-48 -12t-42 -32t-20.5 -57.5l-4 -33l-31 2z" />
</font>
</defs>
</svg>
