<?xml version="1.0" standalone="no"?>
<!DOCTYPE svg PUBLIC "-//W3C//DTD SVG 1.1//EN" "http://www.w3.org/Graphics/SVG/1.1/DTD/svg11.dtd" >
<svg xmlns="http://www.w3.org/2000/svg">
<metadata></metadata>
<defs>
<font id="theinhardt_thinregular" horiz-adv-x="1208" >
<font-face units-per-em="2048" ascent="1393" descent="-655" />
<missing-glyph horiz-adv-x="552" />
<glyph unicode="&#xfb01;" horiz-adv-x="1052" d="M25 905v70h223v221q0 109 45 160q53 61 170 61q62 0 127 -18v-74q-73 25 -131 25q-71 0 -105 -37q-30 -33 -30 -111v-227h266v-70h-266v-905h-76v905h-223zM809 0v975h76v-975h-76zM809 1178v215h76v-215h-76z" />
<glyph unicode="&#xfb02;" horiz-adv-x="1052" d="M25 905v70h223v221q0 109 45 160q53 61 170 61q62 0 127 -18v-74q-73 25 -131 25q-71 0 -105 -37q-30 -33 -30 -111v-227h266v-70h-266v-905h-76v905h-223zM809 0v1393h76v-1393h-76z" />
<glyph horiz-adv-x="2048" />
<glyph horiz-adv-x="2048" />
<glyph unicode="&#xd;" horiz-adv-x="2048" />
<glyph unicode=" "  horiz-adv-x="552" />
<glyph unicode="&#x09;" horiz-adv-x="552" />
<glyph unicode="&#xa0;" horiz-adv-x="552" />
<glyph unicode="!" horiz-adv-x="411" d="M154 0v233h104v-233h-104zM166 690v703h80v-703l-13 -330h-55z" />
<glyph unicode="&#x22;" horiz-adv-x="569" d="M125 1188v205h76v-205l-17 -352h-43zM369 1188v205h75v-205l-16 -352h-43z" />
<glyph unicode="#" d="M-14 426v70h346l65 383h-368v71h381l75 443h78l-76 -443h304l75 443h78l-76 -443h351v-71h-363l-65 -383h385v-70h-398l-71 -426h-78l71 426h-303l-71 -426h-78l71 426h-333zM410 496h303l65 383h-303z" />
<glyph unicode="$" d="M74 287l65 51q51 -105 157 -180t251 -88v624l-51 13q-65 14 -114.5 29.5t-99 42.5t-81.5 62t-52 88t-20 120q0 151 114 243.5t304 100.5v184h76v-184q251 -16 401 -193l-57 -61q-136 168 -344 186v-569l86 -19q183 -38 280.5 -120.5t97.5 -233.5q0 -170 -123 -274.5 t-341 -110.5v-176h-76v178q-171 11 -292.5 93t-180.5 194zM211 1057q0 -122 74.5 -184.5t234.5 -94.5l27 -6v553q-150 -6 -243 -77t-93 -191zM623 68q183 4 284 89t101 220q0 118 -81.5 187.5t-240.5 101.5l-63 12v-610z" />
<glyph unicode="%" horiz-adv-x="1855" d="M92 963q0 90 16.5 167t51.5 142.5t99 103t151 37.5q72 0 128 -27t90.5 -70t56 -103.5t30 -121t8.5 -128.5q0 -118 -33.5 -212t-106.5 -153t-177 -59q-83 0 -145 34.5t-98 94.5t-53.5 134t-17.5 161zM168 979q0 -107 24 -189.5t79.5 -134t136.5 -51.5q124 0 181.5 97 t57.5 260q0 184 -60.5 285.5t-178.5 101.5q-117 0 -178.5 -100.5t-61.5 -268.5zM512 0l723 1393h82l-725 -1393h-80zM1122 414q0 90 16.5 167t51.5 142.5t99 103t151 37.5q72 0 128 -27t90.5 -70t56 -103.5t30 -121t8.5 -128.5q0 -118 -33.5 -212t-106.5 -153t-177 -59 q-83 0 -145 34.5t-98 94.5t-53.5 134t-17.5 161zM1198 430q0 -107 24 -189.5t79.5 -134t136.5 -51.5q124 0 181.5 97t57.5 260q0 184 -60.5 285.5t-178.5 101.5q-117 0 -178.5 -100.5t-61.5 -268.5z" />
<glyph unicode="&#x26;" horiz-adv-x="1245" d="M78 342q0 56 12.5 103.5t40.5 88t58 71.5t80.5 64.5t90.5 56t105 56.5q-58 69 -86.5 105.5t-58.5 85t-41 91t-11 93.5q0 110 86 186t226 76q147 0 225 -74.5t78 -187.5q0 -234 -308 -393l359 -426q69 146 92 307l68 -35q-27 -174 -111 -329l236 -281h-99l-180 213 q-70 -119 -186.5 -178.5t-255.5 -59.5q-118 0 -211.5 40.5t-151 125t-57.5 201.5zM156 352q0 -76 28.5 -136.5t77 -98t109.5 -57t129 -19.5q124 0 230.5 57.5t164.5 167.5l-387 465q-154 -80 -213 -124q-136 -111 -139 -255zM348 1155q0 -31 8 -62t18 -54.5t32.5 -56t37 -51 t46.5 -57t47 -57.5q125 63 197.5 147.5t72.5 184.5q0 104 -65.5 156.5t-161.5 52.5q-101 0 -166.5 -54t-65.5 -149z" />
<glyph unicode="'" horiz-adv-x="405" d="M166 1188v205h76v-205l-17 -352h-43z" />
<glyph unicode="(" horiz-adv-x="544" d="M164 522q0 228 66 455t186 430l67 -8q-239 -411 -239 -877q0 -464 235 -848l-76 -6q-114 193 -176.5 413t-62.5 441z" />
<glyph unicode=")" horiz-adv-x="544" d="M61 1399l68 8q120 -203 186 -430t66 -455q0 -221 -63 -440.5t-177 -413.5l-75 6q235 384 235 848q0 465 -240 877z" />
<glyph unicode="*" horiz-adv-x="753" d="M10 1096l21 69l311 -98v326h72v-326l303 113l26 -68l-307 -113l199 -256l-57 -45l-199 258l-186 -266l-60 41l186 268z" />
<glyph unicode="+" horiz-adv-x="1583" d="M190 569v68h566v577h67v-577h568v-68h-568v-569h-67v569h-566z" />
<glyph unicode="," horiz-adv-x="360" d="M139 -248q35 34 46.5 84t11.5 144v20h-43v233h98v-249q0 -110 -14 -170q-24 -94 -99 -131v69z" />
<glyph unicode="-" horiz-adv-x="772" d="M102 510v74h568v-74h-568z" />
<glyph unicode="." horiz-adv-x="315" d="M109 0v233h98v-233h-98z" />
<glyph unicode="/" horiz-adv-x="856" d="M18 0l738 1393h82l-736 -1393h-84z" />
<glyph unicode="0" d="M109 694q0 156 30 285.5t89 228.5t155 154t221 55q126 0 222 -55t155.5 -154t89 -228.5t29.5 -285.5q0 -119 -15.5 -221.5t-52.5 -195.5t-93 -159t-141.5 -104.5t-193.5 -38.5t-193 38.5t-141 104.5t-93 159t-52.5 196t-15.5 221zM190 698q0 -106 11.5 -197t41 -176.5 t75.5 -145.5t119 -96t167 -36q95 0 168 36t119 96t75 145.5t40.5 176t11.5 197.5q0 138 -25.5 254.5t-75 205t-130 138.5t-183.5 50t-183 -50t-130 -138.5t-75.5 -205t-25.5 -254.5z" />
<glyph unicode="1" d="M274 1028v68h29q158 0 238 59q98 71 104 238h68v-1393h-78v1155q-75 -129 -305 -129q-38 0 -56 2z" />
<glyph unicode="2" d="M154 0v61q103 68 250 178.5t266 215.5q70 61 115.5 109t90.5 112t67 136.5t22 154.5q0 178 -104 278.5t-263 100.5q-167 0 -259.5 -98t-92.5 -244q0 -113 53 -222l-90 21q-45 96 -45 201q0 112 50 205t151 150.5t237 57.5q110 0 197.5 -35.5t141.5 -97t82 -141.5t28 -172 q0 -70 -15 -135t-47 -123t-65.5 -105.5t-86.5 -100t-92.5 -87.5t-101.5 -86q-100 -81 -209.5 -159t-146.5 -99v-2h772v-74h-905z" />
<glyph unicode="3" d="M119 336l71 51q2 -73 24 -131.5t58 -96.5t85 -64t102 -37t112 -11q162 0 271.5 89.5t109.5 244.5q0 203 -170 281q-53 24 -120 33.5t-209 9.5h-91v65h72q122 0 188 8.5t119 30.5q80 33 128.5 96t48.5 154q0 127 -92 207t-253 80q-163 0 -260.5 -82.5t-97.5 -202.5l-65 45 q1 35 14 74t45 82t78.5 77t120.5 56t165 22q201 0 312.5 -99t111.5 -249q0 -133 -82 -219.5t-208 -104.5v-2q61 -5 117 -28.5t104.5 -66t77 -113t28.5 -158.5q0 -176 -128.5 -289t-336.5 -113q-195 0 -316.5 96t-133.5 265z" />
<glyph unicode="4" d="M113 387v59l643 959h61v-944h307v-74h-307v-387h-78v387h-626zM207 461h532v528q0 193 6 281h-2q-10 -19 -29 -50.5t-37.5 -59t-53 -79t-56.5 -84.5z" />
<glyph unicode="5" d="M147 287l72 51q10 -56 36.5 -106t70 -92.5t111.5 -67.5t151 -25q175 0 282 113t107 307q0 169 -98.5 279t-276.5 110q-130 0 -225.5 -76.5t-124.5 -201.5l-62 20l43 795h732v-74h-660l-33 -561l2 -2q36 66 130 119t223 53q192 0 311 -123t119 -338t-124.5 -353.5 t-344.5 -138.5q-166 0 -282 83t-159 229z" />
<glyph unicode="6" d="M131 688q0 346 130.5 537.5t377.5 191.5q161 0 261.5 -76.5t135.5 -207.5l-71 -56q-5 32 -15.5 63.5t-35.5 70.5t-59 67.5t-91 48t-127 19.5q-208 0 -318 -175t-110 -481h2q58 97 171 155t251 58q70 0 134 -17t120 -53.5t97 -88.5t65 -126.5t24 -162.5 q0 -95 -29.5 -180.5t-84 -153t-140.5 -107t-192 -39.5q-234 0 -365 172.5t-131 540.5zM213 588q14 -266 119 -403.5t295 -137.5q158 0 262 108t104 294q0 97 -30.5 172t-83.5 120t-118 67.5t-140 22.5q-141 0 -251 -68.5t-157 -174.5z" />
<glyph unicode="7" d="M178 991v402h946v-60q-212 -314 -333 -608q-157 -387 -179 -725h-84q22 354 193 752q115 271 315 569h-782v-330h-76z" />
<glyph unicode="8" d="M121 369q0 136 81 232.5t220 133.5q-122 38 -192 123t-70 209q0 161 121.5 255.5t322.5 94.5t323 -94.5t122 -255.5q0 -124 -70.5 -209t-192.5 -123q139 -37 220 -133.5t81 -232.5q0 -170 -108 -275q-132 -119 -375 -119t-375 119q-108 105 -108 275zM203 371 q0 -156 103.5 -240t297.5 -84t298 84t104 240q0 155 -110.5 243t-291.5 88t-291 -88t-110 -243zM240 1065q0 -139 101.5 -218t262.5 -79t263 79t102 218q0 133 -94.5 207t-270.5 74t-270 -74t-94 -207z" />
<glyph unicode="9" d="M115 938q0 95 29.5 180.5t84 152.5t140.5 106.5t192 39.5q234 0 365 -172t131 -540q0 -346 -130.5 -538t-377.5 -192q-161 0 -261.5 77t-135.5 208l71 55q5 -32 15.5 -63.5t35.5 -70t59 -67t91 -48t127 -19.5q208 0 318 174.5t110 480.5h-2q-58 -97 -171 -155t-251 -58 q-88 0 -166 28t-139.5 82t-98 141.5t-36.5 197.5zM195 944q0 -97 30.5 -172.5t83.5 -120.5t118 -67.5t140 -22.5q140 0 250.5 69t157.5 175q-14 266 -119 403.5t-295 137.5q-158 0 -262 -108t-104 -294z" />
<glyph unicode=":" horiz-adv-x="315" d="M109 0v233h98v-233h-98zM109 741v234h98v-234h-98z" />
<glyph unicode=";" horiz-adv-x="360" d="M139 -248q35 34 46.5 84t11.5 144v20h-43v233h98v-249q0 -110 -14 -170q-24 -94 -99 -131v69zM154 741v234h98v-234h-98z" />
<glyph unicode="&#x3c;" horiz-adv-x="1583" d="M39 649v78l1442 678v-82l-1344 -635l1344 -639v-82z" />
<glyph unicode="=" horiz-adv-x="1583" d="M102 383v68h1379v-68h-1379zM102 739v68h1379v-68h-1379z" />
<glyph unicode="&#x3e;" horiz-adv-x="1583" d="M102 -33v82l1344 639l-1344 635v82l1442 -678v-78z" />
<glyph unicode="?" horiz-adv-x="925" d="M72 1047q0 162 105.5 266t281.5 104q183 0 287 -103.5t104 -260.5q0 -121 -46 -203t-142 -168l-50 -43q-99 -89 -122.5 -134t-24.5 -153v-35h-82v60q0 87 25.5 143t115.5 137l78 70q83 73 124.5 148t41.5 169q0 133 -83 219.5t-228 86.5t-225 -89.5t-80 -220.5 q0 -94 34 -166l-88 19q-26 77 -26 154zM373 0v199h104v-199h-104z" />
<glyph unicode="@" horiz-adv-x="1740" d="M143 651q0 233 96.5 415.5t269.5 283t394 100.5q140 0 256 -41t194 -108.5t132 -157.5t78 -186.5t24 -196.5q0 -144 -38.5 -264.5t-115.5 -195.5t-178 -75q-70 0 -106.5 39.5t-36.5 106.5v4q-85 -158 -283 -158q-134 0 -206 72.5t-72 187.5q0 107 70 164.5t215 83.5 l231 41q27 5 36 13.5t9 31.5v33q0 108 -54.5 158.5t-172.5 50.5q-124 0 -181 -60t-57 -176l-67 43q-1 123 85.5 191.5t221.5 68.5q295 0 295 -264v-448q0 -60 18 -89.5t66 -29.5q70 0 127.5 66t88.5 171.5t31 223.5q0 92 -21.5 180.5t-69 171t-117 144.5t-173 99t-229.5 37 q-146 0 -272.5 -54t-216.5 -149t-141.5 -231t-51.5 -295t54.5 -295.5t149 -231.5t224.5 -148.5t277 -53.5q178 0 328 74.5t249 206.5l41 -64q-112 -137 -268 -211.5t-350 -74.5q-171 0 -317 58.5t-248.5 162.5t-160 252.5t-57.5 322.5zM631 481q0 -91 58.5 -144.5 t156.5 -53.5q124 0 195 83t71 199v150q-23 -9 -113 -25l-125 -22q-40 -7 -69.5 -14.5t-64 -22t-57 -33.5t-37.5 -49t-15 -68z" />
<glyph unicode="A" horiz-adv-x="1185" d="M20 0l525 1393h98l522 -1393h-80l-163 438h-660l-160 -438h-82zM289 512h604l-213 567q-59 157 -86 252q-11 -31 -27.5 -76.5t-36.5 -98.5t-28 -75z" />
<glyph unicode="B" horiz-adv-x="1304" d="M168 0v1393h475q147 0 235.5 -14.5t153.5 -61.5q65 -45 101 -115.5t36 -159.5q0 -126 -75.5 -208.5t-186.5 -104.5q145 -20 230.5 -115.5t85.5 -236.5q0 -216 -183 -314q-63 -33 -139.5 -48t-214.5 -15h-518zM248 76h454q125 0 192.5 14.5t121.5 48.5q121 75 121 240 q0 203 -183 278q-87 33 -252 33h-454v-614zM248 762h424q104 0 160 8t100 27q153 70 153 241q0 129 -88 205q-50 42 -121.5 58t-193.5 16h-434v-555z" />
<glyph unicode="C" horiz-adv-x="1288" d="M106 696q0 329 159 525t431 196q179 0 310.5 -86.5t201.5 -245.5l-63 -59q-60 153 -176 236.5t-273 83.5q-231 0 -369.5 -178t-138.5 -472q0 -293 139.5 -471t368.5 -178q159 0 278 86.5t179 243.5l64 -47q-69 -169 -202.5 -262t-318.5 -93q-273 0 -431.5 196t-158.5 525 z" />
<glyph unicode="D" horiz-adv-x="1353" d="M168 0v1393h352q185 0 284 -17t189 -80q117 -81 185.5 -238t68.5 -358q0 -176 -52 -320.5t-148 -238.5q-41 -40 -86 -66.5t-87.5 -41.5t-109 -22.5t-122 -9t-155.5 -1.5h-319zM248 76h295q68 0 102 0.5t89 6t89.5 15.5t74.5 30t73 50q89 80 142.5 211.5t53.5 304.5 q0 161 -51.5 297t-148.5 221q-81 71 -175.5 88t-299.5 17h-244v-1241z" />
<glyph unicode="E" horiz-adv-x="1185" d="M168 0v1393h872v-76h-792v-559h719v-76h-719v-606h835v-76h-915z" />
<glyph unicode="F" horiz-adv-x="1038" d="M168 0v1393h829v-76h-749v-559h676v-76h-676v-682h-80z" />
<glyph unicode="G" horiz-adv-x="1376" d="M106 696q0 329 159 525t431 196q179 0 310.5 -86.5t201.5 -245.5l-63 -59q-60 153 -176 236.5t-273 83.5q-231 0 -369.5 -178t-138.5 -472q0 -292 141.5 -470.5t370.5 -178.5q89 0 168.5 29t140.5 81.5t96.5 134t35.5 179.5v139h-498v76h574v-686h-76v240h-2 q-23 -51 -59 -95t-89 -84t-131 -63t-170 -23q-271 0 -427.5 197t-156.5 524z" />
<glyph unicode="H" horiz-adv-x="1343" d="M168 0v1393h80v-635h848v635h80v-1393h-80v682h-848v-682h-80z" />
<glyph unicode="I" horiz-adv-x="415" d="M168 0v1393h80v-1393h-80z" />
<glyph unicode="J" horiz-adv-x="980" d="M25 336l77 33q3 -159 79 -243.5t247 -84.5q186 0 256 115q57 90 57 286v951h80v-951q0 -232 -73 -338q-91 -135 -326 -135q-84 0 -153 20t-124.5 62t-87 114.5t-32.5 170.5z" />
<glyph unicode="K" horiz-adv-x="1245" d="M168 0v1393h80v-824l821 824h109l-547 -547l594 -846h-103l-553 791l-321 -328v-463h-80z" />
<glyph unicode="L" horiz-adv-x="1073" d="M168 0v1393h80v-1317h774v-76h-854z" />
<glyph unicode="M" horiz-adv-x="1540" d="M168 0v1393h94l445 -1082q55 -134 77 -205h2q18 62 72 205l412 1082h102v-1393h-80v889q0 318 8 397h-2q-23 -91 -110 -321l-369 -965h-71l-388 940q-92 222 -118 324h-2q8 -84 8 -355v-909h-80z" />
<glyph unicode="N" horiz-adv-x="1368" d="M168 0v1393h78l764 -1088q24 -35 51.5 -77t42.5 -66l16 -25h2q-2 166 -2 266v990h80v-1393h-78l-762 1087l-112 170h-2q2 -104 2 -225v-1032h-80z" />
<glyph unicode="O" horiz-adv-x="1392" d="M106 696q0 329 159 525t431 196q273 0 431.5 -196t158.5 -525q0 -217 -70 -379.5t-204 -252t-316 -89.5q-273 0 -431.5 196t-158.5 525zM188 696q0 -293 139.5 -471t368.5 -178t369.5 178t140.5 471q0 294 -139 472t-371 178q-231 0 -369.5 -178t-138.5 -472z" />
<glyph unicode="P" horiz-adv-x="1198" d="M168 0v1393h477q195 0 291 -41q102 -44 161.5 -131.5t59.5 -206.5q0 -124 -58 -210t-161 -132q-100 -41 -291 -41h-399v-631h-80zM248 707h407q114 0 186.5 17t129.5 60q102 76 102 230q0 159 -135 243q-59 34 -126 47t-179 13h-385v-610z" />
<glyph unicode="Q" horiz-adv-x="1392" d="M106 696q0 329 159 525t431 196q273 0 431.5 -196t158.5 -525q0 -317 -145 -510l182 -170l-53 -53l-180 166q-154 -154 -394 -154q-273 0 -431.5 196t-158.5 525zM188 696q0 -293 139.5 -471t368.5 -178t369.5 178t140.5 471q0 294 -139 472t-371 178q-231 0 -369.5 -178 t-138.5 -472z" />
<glyph unicode="R" horiz-adv-x="1236" d="M168 0v1393h469q199 0 299 -41q103 -44 162 -131t59 -205q0 -188 -133 -287q-99 -76 -281 -86l463 -643h-104l-451 637h-403v-637h-80zM248 711h387q122 0 200.5 17t135.5 60q104 77 104 228q0 76 -34.5 137.5t-94.5 99.5q-58 37 -126.5 50.5t-184.5 13.5h-387v-606z" />
<glyph unicode="S" horiz-adv-x="1185" d="M45 274l68 54q58 -120 180 -200.5t289 -80.5q197 0 306 88t109 232q0 122 -82.5 194t-244.5 105l-195 41q-67 14 -117 30t-100.5 44t-82.5 64t-52.5 90.5t-20.5 123.5q0 162 125.5 260t331.5 98q155 0 269 -56.5t186 -143.5l-58 -64q-155 195 -397 195 q-164 0 -269.5 -75.5t-105.5 -205.5q0 -125 76 -189t240 -98l192 -41q91 -19 158.5 -47t120.5 -71t80.5 -105t27.5 -143q0 -180 -132.5 -289t-366.5 -109q-101 0 -190 26t-154.5 70t-112.5 94.5t-78 108.5z" />
<glyph unicode="T" horiz-adv-x="1112" d="M31 1317v76h1050v-76h-485v-1317h-82v1317h-483z" />
<glyph unicode="U" horiz-adv-x="1343" d="M152 571v822h79v-818q0 -131 9.5 -195.5t35.5 -117.5q49 -108 150.5 -163.5t245.5 -55.5q294 0 397 219q24 51 33.5 116t9.5 197v818h80v-822q0 -169 -18 -252q-37 -174 -168.5 -261t-333.5 -87t-333.5 87t-168.5 261q-18 80 -18 252z" />
<glyph unicode="V" horiz-adv-x="1091" d="M10 1393h86l363 -1041q53 -152 82 -260q30 101 86 258l374 1043h80l-499 -1393h-88z" />
<glyph unicode="W" horiz-adv-x="1732" d="M16 1393h90l273 -944q83 -284 90 -326h2q23 104 88 326l275 944h77l275 -944q65 -218 90 -328h2q13 60 90 328l268 944h80l-397 -1393h-82l-242 819q-95 321 -123 451h-2q-9 -41 -55.5 -209.5t-69.5 -245.5l-235 -815h-82z" />
<glyph unicode="X" horiz-adv-x="1200" d="M20 0l537 748l-455 645h101l407 -582l410 582h94l-457 -639l523 -754h-103l-473 690l-489 -690h-95z" />
<glyph unicode="Y" horiz-adv-x="1110" d="M10 1393h96l455 -711l449 711h90l-502 -795v-598h-80v598z" />
<glyph unicode="Z" horiz-adv-x="1130" d="M43 0v59l911 1258h-868v76h973v-60l-909 -1257h929v-76h-1036z" />
<glyph unicode="[" horiz-adv-x="546" d="M168 -324v1717h338v-70h-262v-1577h262v-70h-338z" />
<glyph unicode="\" horiz-adv-x="860" d="M20 1393h82l738 -1393h-84z" />
<glyph unicode="]" horiz-adv-x="557" d="M51 -254h262v1577h-262v70h338v-1717h-338v70z" />
<glyph unicode="^" horiz-adv-x="1583" d="M406 657l346 736h94l330 -736h-86l-293 658l-301 -658h-90z" />
<glyph unicode="_" horiz-adv-x="1060" d="M-10 -240h1077v-57h-1077v57z" />
<glyph unicode="`" horiz-adv-x="860" d="M240 1393h129l215 -279h-80z" />
<glyph unicode="a" horiz-adv-x="976" d="M90 266q0 123 76.5 188.5t239.5 94.5l272 47q35 6 46 17t11 40v33q0 127 -64.5 186.5t-203.5 59.5q-279 0 -279 -264l-67 41q-1 138 95.5 213t250.5 75q199 0 281 -100q57 -70 57 -197v-518q0 -71 19 -102t77 -31q36 0 66 10v-61q-32 -12 -86 -12q-73 0 -109.5 34.5 t-36.5 110.5q0 25 2 39h-2q-36 -86 -118 -140.5t-216 -54.5q-151 0 -231 81t-80 210zM170 270q0 -108 68.5 -168.5t183.5 -60.5q146 0 229.5 97.5t83.5 232.5v180q-21 -15 -135 -33l-147 -26q-52 -10 -83 -17t-74.5 -24t-67 -38.5t-41 -58t-17.5 -84.5z" />
<glyph unicode="b" horiz-adv-x="1097" d="M168 0v1393h76v-621h2q34 96 121.5 161.5t214.5 65.5q196 0 304.5 -137.5t108.5 -378.5q0 -235 -112 -371.5t-301 -136.5q-247 0 -336 224h-2v-199h-76zM238 485q0 -212 90 -328t247 -116q160 0 249 117t89 329q0 214 -91.5 330.5t-250.5 116.5q-155 0 -244 -117 t-89 -332z" />
<glyph unicode="c" horiz-adv-x="970" d="M102 483q0 234 115.5 375t314.5 141q140 0 235.5 -63.5t143.5 -181.5l-59 -62q-38 116 -121 179t-199 63q-160 0 -254 -120.5t-94 -328.5q0 -205 95 -324.5t253 -119.5q107 0 187.5 55t124.5 158l57 -51q-120 -228 -369 -228q-199 0 -314.5 138.5t-115.5 369.5z" />
<glyph unicode="d" horiz-adv-x="1097" d="M102 492q0 235 112.5 371t301.5 136q247 0 336 -223h2v617h76v-1393h-76v203h-2q-34 -96 -121.5 -162t-214.5 -66q-196 0 -305 138t-109 379zM184 487q0 -214 91.5 -330t250.5 -116q155 0 244.5 116.5t89.5 331.5q0 212 -90.5 328.5t-247.5 116.5q-160 0 -249 -117.5 t-89 -329.5z" />
<glyph unicode="e" horiz-adv-x="1058" d="M102 483q0 232 117.5 374t312.5 142q191 0 301.5 -135.5t110.5 -353.5v-18h-760v-19q0 -188 94 -308t271 -120q61 0 112.5 15t86 36t65.5 54t48.5 59t35.5 61l53 -53q-22 -42 -53.5 -80.5t-80 -77t-118.5 -61.5t-151 -23q-203 0 -324 136t-121 372zM186 557h674 q-1 71 -23.5 137.5t-62.5 120.5t-103 86.5t-139 32.5q-146 0 -236.5 -99.5t-109.5 -277.5z" />
<glyph unicode="f" horiz-adv-x="641" d="M25 905v70h223v221q0 109 45 160q53 61 170 61q62 0 127 -18v-74q-73 25 -131 25q-71 0 -105 -37q-30 -33 -30 -111v-227h266v-70h-266v-905h-76v905h-223z" />
<glyph unicode="g" horiz-adv-x="1093" d="M102 492q0 235 112.5 371t301.5 136q247 0 336 -223h2v199h76v-920q0 -250 -97 -355.5t-317 -105.5q-106 0 -183.5 27t-121 75t-64.5 103.5t-24 122.5l74 35q13 -297 319 -297q86 0 148 21t98.5 55t57.5 90t27.5 113.5t6.5 138.5v125h-2q-34 -98 -119.5 -163t-216.5 -65 q-196 0 -305 138t-109 379zM184 487q0 -214 91.5 -330t250.5 -116q155 0 244.5 116.5t89.5 331.5q0 212 -90.5 328.5t-247.5 116.5q-160 0 -249 -117.5t-89 -329.5z" />
<glyph unicode="h" horiz-adv-x="1058" d="M168 0v1393h76v-600h2q32 84 116 145t213 61q196 0 275 -141q49 -88 49 -264v-594h-76v532q0 80 -4.5 134.5t-20.5 108.5t-44.5 85t-77.5 50.5t-119 19.5q-135 0 -223 -88q-90 -97 -90 -252v-590h-76z" />
<glyph unicode="i" horiz-adv-x="411" d="M168 0v975h76v-975h-76zM168 1178v215h76v-215h-76z" />
<glyph unicode="j" horiz-adv-x="446" d="M-72 -303q64 -39 142 -39q24 0 43 4t33 14t23.5 20.5t16 31t10 36.5t5 46.5t2 51.5t0.5 60v1053h76v-993q0 -170 -8.5 -231t-39.5 -103q-48 -62 -157 -62q-80 0 -146 29v82zM203 1178v215h76v-215h-76z" />
<glyph unicode="k" horiz-adv-x="964" d="M168 0v1393h76v-955l563 537h113l-388 -359l420 -616h-100l-377 563l-231 -215v-348h-76z" />
<glyph unicode="l" horiz-adv-x="423" d="M174 0v1393h76v-1393h-76z" />
<glyph unicode="m" horiz-adv-x="1587" d="M168 0v975h76v-180h2q28 83 106 143.5t195 60.5q225 0 268 -225q11 38 36 75.5t64 72t97.5 56t126.5 21.5q183 0 247 -147q41 -93 41 -277v-575h-75v532q0 81 -4 134.5t-17.5 108t-38 85.5t-68.5 50.5t-106 19.5q-129 0 -204 -94.5t-78 -233.5v-27v-575h-76v532 q0 81 -4 134.5t-17.5 108t-38 85.5t-68.5 50.5t-106 19.5q-132 0 -207 -98t-75 -242v-590h-76z" />
<glyph unicode="n" horiz-adv-x="1058" d="M168 0v975h76v-182h2q30 84 114 145t215 61q196 0 275 -141q49 -88 49 -264v-594h-76v532q0 80 -4.5 134.5t-20.5 108.5t-44.5 85t-77.5 50.5t-119 19.5q-135 0 -223 -88q-90 -97 -90 -252v-590h-76z" />
<glyph unicode="o" horiz-adv-x="1067" d="M102 483q0 234 115 375t315 141q201 0 317 -141t116 -375q0 -230 -117.5 -369t-315.5 -139q-197 0 -313.5 139t-116.5 369zM184 485q0 -205 95 -324.5t253 -119.5q159 0 255 120t96 324q0 210 -94.5 329.5t-256.5 119.5q-160 0 -254 -120.5t-94 -328.5z" />
<glyph unicode="p" horiz-adv-x="1097" d="M168 -389v1364h76v-203h2q34 96 121.5 161.5t214.5 65.5q196 0 304.5 -137.5t108.5 -378.5q0 -235 -112 -371.5t-301 -136.5q-247 0 -336 224h-2v-588h-76zM238 485q0 -212 90 -328t247 -116q160 0 249 117t89 329q0 214 -91.5 330.5t-250.5 116.5q-155 0 -244 -117 t-89 -332z" />
<glyph unicode="q" horiz-adv-x="1097" d="M102 492q0 235 112.5 371t301.5 136q247 0 336 -223h2v199h76v-1364h-76v592h-2q-34 -96 -121.5 -162t-214.5 -66q-196 0 -305 138t-109 379zM184 487q0 -214 91.5 -330t250.5 -116q155 0 244.5 116.5t89.5 331.5q0 212 -90.5 328.5t-247.5 116.5q-160 0 -249 -117.5 t-89 -329.5z" />
<glyph unicode="r" horiz-adv-x="624" d="M168 0v975h76v-201q23 88 101.5 156.5t178.5 68.5q53 0 80 -10v-69q-36 8 -74 8q-88 0 -155 -52.5t-99 -129.5t-32 -162v-584h-76z" />
<glyph unicode="s" horiz-adv-x="878" d="M45 154l53 57q129 -168 344 -168q136 1 206.5 58.5t70.5 152.5q-1 47 -17.5 81t-50.5 56.5t-70.5 35.5t-93.5 26l-141 34q-131 31 -198.5 87.5t-67.5 166.5q0 120 95 188t241 70q210 0 332 -147l-48 -59q-52 67 -128 104t-164 37q-109 -2 -178.5 -50.5t-69.5 -135.5 q0 -84 51.5 -125.5t169.5 -69.5l117 -29q72 -17 120.5 -35.5t92.5 -48t66 -74.5t22 -106q0 -132 -100.5 -208.5t-264.5 -76.5q-130 0 -232.5 53t-156.5 126z" />
<glyph unicode="t" horiz-adv-x="589" d="M16 905v70h197v375l76 16v-391h241v-70h-241v-704q0 -76 16 -109q22 -43 92 -43q41 0 84.5 15t71.5 36v-73q-31 -20 -78.5 -33.5t-91.5 -13.5q-97 0 -137 59q-33 47 -33 160v706h-197z" />
<glyph unicode="u" horiz-adv-x="1048" d="M160 381v594h76v-533q0 -82 4 -134.5t19 -107.5t42.5 -85.5t76 -50t118.5 -19.5q131 0 219 88q90 97 90 252v590h76v-975h-76v176h-2q-38 -85 -117.5 -143t-208.5 -58q-189 0 -268 142q-49 88 -49 264z" />
<glyph unicode="v" horiz-adv-x="827" d="M16 975h84l242 -666q41 -111 64 -198h2q19 73 69 200l254 664h80l-379 -975h-61z" />
<glyph unicode="w" horiz-adv-x="1282" d="M16 975h84l203 -621q43 -124 72 -233h2q50 203 57 229l178 625h70l180 -619q30 -97 62 -221h2q27 108 67 230l195 610h78l-318 -975h-57l-195 653q-30 95 -51 191h-2q-19 -93 -49 -193l-186 -651h-70z" />
<glyph unicode="x" horiz-adv-x="858" d="M25 0l358 504l-330 471h94l285 -414l285 414h90l-336 -469l363 -506h-97l-311 446l-311 -446h-90z" />
<glyph unicode="y" horiz-adv-x="843" d="M31 975h86l248 -694l55 -162h2q23 71 61 168l262 688h82l-432 -1108q-53 -136 -82 -184q-31 -50 -71 -73.5t-105 -23.5q-50 0 -94 19v78q42 -25 98 -25q49 0 78 23q35 28 72 122l86 220z" />
<glyph unicode="z" horiz-adv-x="806" d="M49 0v57l569 848h-550v70h641l2 -57l-574 -848h615v-70h-703z" />
<glyph unicode="{" horiz-adv-x="536" d="M72 512v63q34 11 58 25.5t40 36.5t25 43.5t13.5 59t5.5 69t1 86.5v129q0 47 0.5 75.5t3 66t8 59.5t14.5 49.5t22.5 43t33 32t45 24.5t59.5 13.5t76 5.5h39v-62q-76 0 -119.5 -10.5t-68.5 -42.5t-32 -76.5t-7 -126.5v-127q0 -87 -2.5 -137.5t-10 -100t-23 -77t-41 -50.5 t-65.5 -38v-2q40 -15 65.5 -38t41 -51t23 -77.5t10 -100t2.5 -137.5v-145q0 -82 7 -126.5t32 -76.5t68.5 -42.5t119.5 -10.5v-62h-39q-42 0 -76 5.5t-59.5 13.5t-45 24.5t-33 32t-22.5 43t-14.5 49.5t-8 59.5t-3 66t-0.5 75.5v148q0 55 -1 86.5t-5.5 69t-13.5 58.5t-25 43 t-40 36.5t-58 25.5z" />
<glyph unicode="|" horiz-adv-x="403" d="M164 -324v1717h76v-1717h-76z" />
<glyph unicode="}" horiz-adv-x="653" d="M41 -262q76 0 119.5 10.5t68.5 42.5t32 76.5t7 126.5v145q0 87 2.5 137.5t10 100t23 77.5t41 51t65.5 38v2q-40 15 -65.5 38t-41 50.5t-23 77t-10 100t-2.5 137.5v127q0 82 -7 126.5t-32 76.5t-68.5 42.5t-119.5 10.5v62h39q42 0 76 -5.5t59.5 -13.5t45 -24.5t33 -32 t22.5 -43t14.5 -49.5t8 -59.5t3 -66t0.5 -75.5v-129q0 -55 1 -86.5t5.5 -69t13.5 -59t25 -43.5t40 -36.5t58 -25.5v-63q-34 -11 -58 -25.5t-40 -36.5t-25 -43t-13.5 -58.5t-5.5 -69t-1 -86.5v-148q0 -47 -0.5 -75.5t-3 -66t-8 -59.5t-14.5 -49.5t-22.5 -43t-33 -32 t-45 -24.5t-59.5 -13.5t-76 -5.5h-39v62z" />
<glyph unicode="~" horiz-adv-x="1583" d="M311 569q21 33 52 64.5t84.5 59.5t109.5 28q51 0 105 -17.5t143 -60.5q96 -46 131.5 -59t71.5 -13q106 0 198 113l51 -57q-107 -127 -251 -127q-39 0 -84.5 12.5t-77.5 26.5t-88 41q-44 22 -65.5 31.5t-62.5 21.5t-75 12q-52 0 -95 -29.5t-96 -97.5z" />
<glyph unicode="&#xa1;" horiz-adv-x="411" d="M154 741v234h104v-234h-104zM166 285l12 329h55l13 -329v-703h-80v703z" />
<glyph unicode="&#xa2;" d="M184 483q0 220 102 358.5t283 155.5v191h76v-191q121 -6 211.5 -69t138.5 -172l-61 -64q-37 108 -111.5 170.5t-177.5 69.5v-891q97 7 170 65t111 156l61 -59q-50 -102 -138 -161t-204 -65v-208h-76v208q-178 17 -281.5 153t-103.5 353zM266 485q0 -190 82 -307.5 t221 -134.5v887q-141 -17 -222 -135t-81 -310z" />
<glyph unicode="&#xa3;" d="M109 0v57q91 10 141 46t74 115.5t24 221.5q0 95 -10 228h-229v69h225q-8 152 -8 236q0 446 368 446q172 0 264 -87t103 -228l-70 -27q-7 119 -80.5 197t-218.5 78q-73 0 -126.5 -21.5t-85 -56t-50 -87.5t-25 -105t-6.5 -119q0 -48 2.5 -104.5t4.5 -88.5l2 -33h331v-69 h-325q0 -14 4 -97.5t4 -130.5q0 -139 -28.5 -234t-106.5 -136l2 -4q113 4 268 4h473v-70h-921z" />
<glyph unicode="&#xa4;" horiz-adv-x="1099" d="M113 225l135 135q-86 115 -86 246t86 250l-135 133l55 53l133 -133q118 86 250 86q130 0 246 -86l133 133l57 -55l-131 -131q86 -123 86 -250q0 -133 -84 -250l129 -129l-57 -55l-129 129q-120 -84 -250 -84q-128 0 -248 86l-133 -133zM233 606q0 -135 91.5 -228 t226.5 -93q137 0 228 92.5t91 228.5q0 137 -90.5 230.5t-228.5 93.5q-135 0 -226.5 -93.5t-91.5 -230.5z" />
<glyph unicode="&#xa5;" d="M59 1393h95l456 -711l451 711h88l-465 -725h385v-72h-426v-207h426v-72h-426v-317h-76v317h-428v72h428v207h-428v72h387z" />
<glyph unicode="&#xa6;" horiz-adv-x="387" d="M156 -324v662h75v-662h-75zM156 731v662h75v-662h-75z" />
<glyph unicode="&#xa7;" horiz-adv-x="991" d="M88 20l53 62q55 -91 141.5 -143t198.5 -52q135 0 207 58.5t72 150.5q0 37 -16.5 69.5t-39 54.5t-61 44t-67.5 34.5t-74 29.5l-119 45q-41 15 -65 24.5t-59 26t-55 31t-44 36.5t-36.5 46t-21 56t-8.5 69q0 102 64.5 168t158.5 92q-37 20 -60.5 36.5t-50.5 44.5t-40.5 68 t-13.5 92q0 121 94 187.5t239 66.5q215 0 336 -149l-53 -64q-43 64 -116.5 106t-170.5 42q-110 0 -180 -48t-70 -133q0 -84 52.5 -131.5t167.5 -87.5l141 -49q60 -21 105.5 -44.5t87 -56.5t63.5 -79t22 -102q0 -112 -59 -177.5t-156 -103.5q185 -76 185 -236 q0 -133 -97.5 -208.5t-261.5 -75.5q-139 0 -241.5 56.5t-151.5 143.5zM174 670q0 -34 7 -61t24.5 -49t36 -38.5t53 -34t62.5 -29t77 -30.5l139 -53q98 25 159 84.5t61 146.5q0 91 -66 144t-201 98l-125 43q-100 -22 -163.5 -79t-63.5 -142z" />
<glyph unicode="&#xa8;" horiz-adv-x="962" d="M250 1157v186h84v-186h-84zM627 1157v186h84v-186h-84z" />
<glyph unicode="&#xa9;" horiz-adv-x="1622" d="M111 717q0 194 92 354.5t253 253t355 92.5t355 -92.5t253 -253t92 -354.5q0 -145 -54 -274.5t-147 -222.5t-223 -147.5t-276 -54.5t-276 54.5t-223 147.5t-147 222.5t-54 274.5zM186 717q0 -174 81 -319t224.5 -229.5t319.5 -84.5t319.5 84.5t224.5 229.5t81 319 t-81 319.5t-224.5 230.5t-319.5 85t-319.5 -85t-224.5 -230.5t-81 -319.5zM440 715q0 200 101 320t270 120q112 0 190 -51.5t119 -145.5l-59 -43q-65 175 -250 175q-135 0 -215 -99t-80 -274q0 -174 81 -271.5t214 -97.5q180 0 250 152l59 -41q-92 -176 -309 -176 q-168 0 -269.5 118.5t-101.5 313.5z" />
<glyph unicode="&#xaa;" horiz-adv-x="649" d="M63 956q0 78 48.5 120.5t150.5 60.5l170 28q33 7 33 31v23q0 75 -39.5 111t-122.5 36q-170 0 -170 -172l-51 35q-1 90 62 139t159 49q120 0 178 -63q39 -45 39 -129v-322q0 -40 11 -58t44 -18q22 0 46 9v-52q-23 -10 -60 -10q-96 0 -96 100q-56 -106 -203 -106 q-94 0 -146.5 53t-52.5 135zM125 958q0 -64 41 -100.5t108 -36.5q89 0 140 57.5t51 135.5v110q-37 -10 -78 -18l-92 -16q-37 -6 -62 -13.5t-52.5 -21.5t-41.5 -38.5t-14 -58.5z" />
<glyph unicode="&#xab;" horiz-adv-x="706" d="M86 549v72l276 325v-112l-215 -246l215 -250v-115zM358 549v72l277 325v-112l-215 -246l215 -250v-115z" />
<glyph unicode="&#xac;" horiz-adv-x="1583" d="M381 860v70h811v-477h-76v407h-735z" />
<glyph unicode="&#xad;" horiz-adv-x="772" d="M102 510v74h568v-74h-568z" />
<glyph unicode="&#xae;" horiz-adv-x="1622" d="M111 717q0 194 92 354.5t253 253t355 92.5t355 -92.5t253 -253t92 -354.5q0 -145 -54 -274.5t-147 -222.5t-223 -147.5t-276 -54.5t-276 54.5t-223 147.5t-147 222.5t-54 274.5zM186 717q0 -174 81 -319t224.5 -229.5t319.5 -84.5t319.5 84.5t224.5 229.5t81 319 t-81 319.5t-224.5 230.5t-319.5 85t-319.5 -85t-224.5 -230.5t-81 -319.5zM518 303v836h338q131 0 199 -41q100 -63 100 -187q0 -112 -73 -167t-191 -62l272 -379h-84l-272 379h-221v-379h-68zM586 743h243q105 0 162 23q96 49 96 141q0 99 -96 148q-55 22 -162 22h-243 v-334z" />
<glyph unicode="&#xaf;" horiz-adv-x="921" d="M176 1167v66h555v-66h-555z" />
<glyph unicode="&#xb0;" horiz-adv-x="733" d="M82 1133q0 118 83 201t202 83t201.5 -82.5t82.5 -201.5t-83 -203t-201 -84t-201.5 84t-83.5 203zM150 1133q0 -91 63 -154.5t154 -63.5q89 0 153 63.5t64 154.5q0 89 -64 153t-153 64q-90 0 -153.5 -63.5t-63.5 -153.5z" />
<glyph unicode="&#xb1;" horiz-adv-x="1583" d="M190 0v68h1201v-68h-1201zM190 684v68h568v462h69v-462h564v-68h-564v-465h-69v465h-568z" />
<glyph unicode="&#xb2;" horiz-adv-x="737" d="M90 1174q0 109 76 184.5t207 75.5q134 0 209 -76.5t75 -200.5q0 -48 -12 -93t-29 -81t-49 -75t-57.5 -65t-70.5 -61.5t-72.5 -55.5t-77.5 -54l-80 -54h448v-65h-565v61q10 7 64 43.5t86.5 59.5t81.5 59.5t84 67.5q81 74 125.5 144.5t44.5 162.5q0 100 -59 157.5 t-150 57.5q-98 0 -148.5 -54t-50.5 -136q0 -75 43 -156l-90 14q-33 65 -33 140z" />
<glyph unicode="&#xb3;" horiz-adv-x="737" d="M70 768l75 39q-1 -110 61.5 -159.5t158.5 -49.5q97 0 158 51t61 142q0 100 -70 142t-201 42h-71v63h30q44 0 80 3t77 14t68 29.5t45.5 51.5t18.5 78q0 67 -50.5 109.5t-145.5 42.5q-94 0 -147.5 -52.5t-61.5 -129.5l-64 43q1 29 18.5 63t49 67t86 55t119.5 22 q134 0 204 -63t70 -152q0 -76 -45.5 -130.5t-124.5 -76.5q84 -16 137 -73t53 -148q0 -116 -79 -188.5t-218 -72.5q-130 0 -207 63.5t-85 174.5z" />
<glyph unicode="&#xb4;" horiz-adv-x="860" d="M207 1114l215 279h129l-264 -279h-80z" />
<glyph unicode="&#xb5;" horiz-adv-x="1056" d="M168 -389v1364h76v-545q0 -80 5 -133.5t20.5 -105t43.5 -81t75.5 -47.5t115.5 -18q131 0 219 88q90 97 90 252v590h76v-975h-76v176h-2q-38 -85 -117.5 -143t-208.5 -58q-85 0 -149 32.5t-92 90.5v-487h-76z" />
<glyph unicode="&#xb6;" horiz-adv-x="1445" d="M164 1030q0 183 121 281q53 41 124 61.5t197 20.5h615v-68h-174v-1587h-74v1587h-252v-1587h-72v930h-43q-126 0 -197 20.5t-124 61.5q-121 98 -121 280z" />
<glyph unicode="&#xb7;" horiz-adv-x="315" d="M109 539v233h98v-233h-98z" />
<glyph unicode="&#xb8;" horiz-adv-x="921" d="M315 -135l107 133h59l-80 -102q16 4 52 4q70 0 115.5 -37t45.5 -107q0 -82 -53 -120.5t-133 -38.5q-51 0 -104 16l16 53q47 -14 88 -14q55 0 89 24.5t34 77.5q0 51 -36 72.5t-89 21.5q-49 0 -86 -16z" />
<glyph unicode="&#xb9;" horiz-adv-x="737" d="M125 1147v65h33q93 0 137 33q56 41 59 148h68v-854h-76v655q-55 -49 -176 -49q-31 0 -45 2z" />
<glyph unicode="&#xba;" horiz-adv-x="712" d="M82 1090q0 149 73.5 237t202.5 88q127 0 200 -88t73 -237q0 -146 -72.5 -233t-200.5 -87q-129 0 -202.5 87t-73.5 233zM150 1090q0 -124 56.5 -193.5t151.5 -69.5q92 0 148.5 70t56.5 193q0 128 -54.5 199t-150.5 71t-152 -72.5t-56 -197.5z" />
<glyph unicode="&#xbb;" horiz-adv-x="706" d="M72 223v115l215 250l-215 246v112l276 -325v-72zM344 223v115l215 250l-215 246v112l277 -325v-72z" />
<glyph unicode="&#xbc;" horiz-adv-x="1511" d="M82 1147v65h33q93 0 137 33q56 41 59 148h68v-854h-76v655q-55 -49 -176 -49q-31 0 -45 2zM305 0l723 1393h82l-725 -1393h-80zM768 225v54l412 575h71v-563h154v-66h-154v-225h-75v225h-408zM852 291h324v231l6 228h-4q-78 -125 -109 -164l-82 -117q-20 -29 -53.5 -73.5 t-57.5 -74.5z" />
<glyph unicode="&#xbd;" horiz-adv-x="1667" d="M82 1147v65h33q93 0 137 33q56 41 59 148h68v-854h-76v655q-55 -49 -176 -49q-31 0 -45 2zM305 0l723 1393h82l-725 -1393h-80zM967 621q0 110 75.5 185t206.5 75q134 0 209.5 -76.5t75.5 -200.5q0 -48 -12 -93t-29 -81t-49.5 -75t-58 -65t-70.5 -61.5t-72.5 -55 t-77.5 -54.5l-80 -53h449v-66h-565v61q7 5 63.5 43.5t87.5 60t80 58.5t84 68q81 74 125.5 144.5t44.5 162.5q0 100 -59 157.5t-150 57.5q-98 0 -148 -54t-50 -136q0 -75 43 -156l-91 14q-32 63 -32 140z" />
<glyph unicode="&#xbe;" horiz-adv-x="1681" d="M70 768l75 39q-1 -110 61.5 -159.5t158.5 -49.5q97 0 158 51t61 142q0 100 -70 142t-201 42h-71v63h30q44 0 80 3t77 14t68 29.5t45.5 51.5t18.5 78q0 67 -50.5 109.5t-145.5 42.5q-94 0 -147.5 -52.5t-61.5 -129.5l-64 43q1 29 18.5 63t49 67t86 55t119.5 22 q134 0 204 -63t70 -152q0 -76 -45.5 -130.5t-124.5 -76.5q84 -16 137 -73t53 -148q0 -116 -79 -188.5t-218 -72.5q-130 0 -207 63.5t-85 174.5zM479 0l723 1393h82l-725 -1393h-80zM942 225v54l412 575h71v-563h154v-66h-154v-225h-75v225h-408zM1026 291h324v231l6 228h-4 q-80 -123 -109 -164l-82 -117q-20 -29 -53.5 -73.5t-57.5 -74.5z" />
<glyph unicode="&#xbf;" horiz-adv-x="942" d="M70 -78q0 121 46 203t142 168l49 43q71 64 97.5 97t38 73t12.5 117v34h82v-59q0 -86 -26 -143t-116 -138l-78 -69q-82 -73 -123.5 -148.5t-41.5 -169.5q0 -133 83 -219t228 -86t225 89t80 220q0 92 -35 166l88 -18q27 -80 27 -154q0 -162 -105.5 -266t-281.5 -104 q-183 0 -287 103.5t-104 260.5zM442 776v199h105v-199h-105z" />
<glyph unicode="&#xc0;" horiz-adv-x="1185" d="M20 0l525 1393h98l522 -1393h-80l-163 438h-660l-160 -438h-82zM289 512h604l-213 567q-59 157 -86 252q-11 -31 -27.5 -76.5t-36.5 -98.5t-28 -75zM340 1821h129l215 -279h-80z" />
<glyph unicode="&#xc1;" horiz-adv-x="1185" d="M20 0l525 1393h98l522 -1393h-80l-163 438h-660l-160 -438h-82zM289 512h604l-213 567q-59 157 -86 252q-11 -31 -27.5 -76.5t-36.5 -98.5t-28 -75zM539 1542l215 279h129l-265 -279h-79z" />
<glyph unicode="&#xc2;" horiz-adv-x="1206" d="M31 0l524 1393h98l523 -1393h-80l-164 438h-660l-159 -438h-82zM299 512h604l-213 567q-59 157 -86 252q-11 -31 -27.5 -76.5t-36.5 -98.5t-28 -75zM328 1542l233 279h107l233 -279h-82l-205 215l-204 -215h-82z" />
<glyph unicode="&#xc3;" horiz-adv-x="1185" d="M20 0l525 1393h98l522 -1393h-80l-163 438h-660l-160 -438h-82zM289 512h604l-213 567q-59 157 -86 252q-11 -31 -27.5 -76.5t-36.5 -98.5t-28 -75zM291 1606q8 35 26.5 67.5t58 59t91.5 26.5t156 -53q88 -45 133 -45q24 0 42 7.5t30.5 24.5t18.5 29t15 35l58 -22 q-44 -138 -166 -138q-60 0 -158 50q-56 28 -83.5 38.5t-51.5 10.5q-41 0 -68.5 -34t-40.5 -79z" />
<glyph unicode="&#xc4;" horiz-adv-x="1185" d="M20 0l525 1393h98l522 -1393h-80l-163 438h-660l-160 -438h-82zM289 512h604l-213 567q-59 157 -86 252q-11 -31 -27.5 -76.5t-36.5 -98.5t-28 -75zM369 1597v187h84v-187h-84zM745 1597v187h84v-187h-84z" />
<glyph unicode="&#xc5;" horiz-adv-x="1185" d="M20 0l525 1393h98l522 -1393h-80l-163 438h-660l-160 -438h-82zM289 512h604l-213 567q-59 157 -86 252q-11 -31 -27.5 -76.5t-36.5 -98.5t-28 -75zM428 1692q0 71 49 118.5t119 47.5t119 -47.5t49 -118.5t-49 -118.5t-119 -47.5t-119 47.5t-49 118.5zM483 1692 q0 -46 32.5 -78.5t78.5 -32.5t78.5 32.5t32.5 78.5t-32.5 78t-78.5 32t-78.5 -32t-32.5 -78z" />
<glyph unicode="&#xc6;" horiz-adv-x="1849" d="M-61 0l874 1393h891v-76h-772v-557h696v-76h-696v-608h815v-76h-895v432h-547l-274 -432h-92zM350 508h502v479q0 92 1.5 177.5t2.5 125.5l2 39h-2q-123 -211 -176 -295z" />
<glyph unicode="&#xc7;" horiz-adv-x="1288" d="M106 696q0 329 159 525t431 196q179 0 310.5 -86.5t201.5 -245.5l-63 -59q-60 153 -176 236.5t-273 83.5q-231 0 -369.5 -178t-138.5 -472q0 -293 139.5 -471t368.5 -178q159 0 278 86.5t179 243.5l64 -47q-67 -164 -194.5 -256.5t-303.5 -98.5l-57 -71q16 4 51 4 q70 0 115.5 -37t45.5 -107q0 -82 -53 -120.5t-133 -38.5q-51 0 -104 16l16 53q47 -14 88 -14q55 0 89 24.5t34 77.5q0 51 -36 73t-89 22q-47 0 -86 -17l-29 37l78 100q-253 17 -398 210.5t-145 508.5z" />
<glyph unicode="&#xc8;" horiz-adv-x="1185" d="M168 0v1393h872v-76h-792v-559h719v-76h-719v-606h835v-76h-915zM377 1821h129l215 -279h-80z" />
<glyph unicode="&#xc9;" horiz-adv-x="1185" d="M168 0v1393h872v-76h-792v-559h719v-76h-719v-606h835v-76h-915zM518 1542l215 279h129l-264 -279h-80z" />
<glyph unicode="&#xca;" horiz-adv-x="1185" d="M168 0v1393h872v-76h-792v-559h719v-76h-719v-606h835v-76h-915zM334 1542l233 279h107l233 -279h-82l-204 215l-205 -215h-82z" />
<glyph unicode="&#xcb;" horiz-adv-x="1185" d="M168 0v1393h872v-76h-792v-559h719v-76h-719v-606h835v-76h-915zM373 1597v187h84v-187h-84zM750 1597v187h84v-187h-84z" />
<glyph unicode="&#xcc;" horiz-adv-x="415" d="M-23 1821h129l216 -279h-80zM168 0v1393h80v-1393h-80z" />
<glyph unicode="&#xcd;" horiz-adv-x="415" d="M135 1542l215 279h129l-264 -279h-80zM168 0v1393h80v-1393h-80z" />
<glyph unicode="&#xce;" horiz-adv-x="415" d="M-68 1542l234 279h106l234 -279h-82l-205 215l-205 -215h-82zM168 0v1393h80v-1393h-80z" />
<glyph unicode="&#xcf;" horiz-adv-x="415" d="M-16 1597v187h84v-187h-84zM168 0v1393h80v-1393h-80zM360 1597v187h84v-187h-84z" />
<glyph unicode="&#xd0;" horiz-adv-x="1353" d="M0 719v76h168v598h352q185 0 284 -17t189 -80q117 -81 185.5 -238t68.5 -358q0 -176 -52 -320.5t-148 -238.5q-41 -40 -86 -66.5t-87.5 -41.5t-109 -22.5t-122 -9t-155.5 -1.5h-319v719h-168zM248 76h295q68 0 102 0.5t89 6t89.5 15.5t74.5 30t73 50q89 80 142.5 211.5 t53.5 304.5q0 161 -51.5 297t-148.5 221q-81 71 -175.5 88t-299.5 17h-244v-522h528v-76h-528v-643z" />
<glyph unicode="&#xd1;" horiz-adv-x="1368" d="M168 0v1393h78l764 -1088q24 -35 51.5 -77t42.5 -66l16 -25h2q-2 166 -2 266v990h80v-1393h-78l-762 1087l-112 170h-2q2 -104 2 -225v-1032h-80zM365 1606q8 35 26.5 67.5t58 59t91.5 26.5q33 0 66.5 -12.5t88.5 -40.5q88 -45 133 -45q24 0 42 7.5t30.5 24.5t19 29 t15.5 35l57 -22q-44 -138 -166 -138q-59 0 -157 50q-56 28 -83.5 38.5t-51.5 10.5q-41 0 -68.5 -34t-40.5 -79z" />
<glyph unicode="&#xd2;" horiz-adv-x="1392" d="M106 696q0 329 159 525t431 196q273 0 431.5 -196t158.5 -525q0 -217 -70 -379.5t-204 -252t-316 -89.5q-273 0 -431.5 196t-158.5 525zM188 696q0 -293 139.5 -471t368.5 -178t369.5 178t140.5 471q0 294 -139 472t-371 178q-231 0 -369.5 -178t-138.5 -472zM467 1821 h129l215 -279h-80z" />
<glyph unicode="&#xd3;" horiz-adv-x="1392" d="M106 696q0 329 159 525t431 196q273 0 431.5 -196t158.5 -525q0 -217 -70 -379.5t-204 -252t-316 -89.5q-273 0 -431.5 196t-158.5 525zM188 696q0 -293 139.5 -471t368.5 -178t369.5 178t140.5 471q0 294 -139 472t-371 178q-231 0 -369.5 -178t-138.5 -472zM600 1542 l215 279h129l-264 -279h-80z" />
<glyph unicode="&#xd4;" horiz-adv-x="1392" d="M106 696q0 329 159 525t431 196q273 0 431.5 -196t158.5 -525q0 -217 -70 -379.5t-204 -252t-316 -89.5q-273 0 -431.5 196t-158.5 525zM188 696q0 -293 139.5 -471t368.5 -178t369.5 178t140.5 471q0 294 -139 472t-371 178q-231 0 -369.5 -178t-138.5 -472zM408 1542 l233 279h107l233 -279h-82l-205 215l-205 -215h-81z" />
<glyph unicode="&#xd5;" horiz-adv-x="1392" d="M106 696q0 329 159 525t431 196q273 0 431.5 -196t158.5 -525q0 -217 -70 -379.5t-204 -252t-316 -89.5q-273 0 -431.5 196t-158.5 525zM188 696q0 -293 139.5 -471t368.5 -178t369.5 178t140.5 471q0 294 -139 472t-371 178q-231 0 -369.5 -178t-138.5 -472zM399 1606 q8 35 26.5 67.5t58 59t91.5 26.5t156 -53q88 -45 133 -45q24 0 42 7.5t30.5 24.5t19 29t15.5 35l57 -22q-44 -138 -166 -138q-59 0 -157 50q-100 49 -136 49q-41 0 -68 -33.5t-40 -79.5z" />
<glyph unicode="&#xd6;" horiz-adv-x="1392" d="M106 696q0 329 159 525t431 196q273 0 431.5 -196t158.5 -525q0 -217 -70 -379.5t-204 -252t-316 -89.5q-273 0 -431.5 196t-158.5 525zM188 696q0 -293 139.5 -471t368.5 -178t369.5 178t140.5 471q0 294 -139 472t-371 178q-231 0 -369.5 -178t-138.5 -472zM473 1597 v187h84v-187h-84zM850 1597v187h84v-187h-84z" />
<glyph unicode="&#xd7;" horiz-adv-x="1583" d="M260 129l477 475l-477 477l53 54l478 -478l477 480l53 -52l-477 -477l477 -481l-53 -53l-477 479l-478 -477z" />
<glyph unicode="&#xd8;" horiz-adv-x="1392" d="M33 -2l196 219q-123 189 -123 479q0 329 159 525t431 196q276 0 432 -198l183 202l57 -51l-194 -217q112 -180 112 -457q0 -217 -70 -379.5t-204 -252t-316 -89.5q-261 0 -417 179l-187 -207zM188 696q0 -246 101 -413l786 874q-143 189 -379 189q-231 0 -369.5 -178 t-138.5 -472zM334 217q137 -170 362 -170q229 0 369.5 178t140.5 471q0 233 -88 394z" />
<glyph unicode="&#xd9;" horiz-adv-x="1343" d="M152 571q0 -173 18 -252q37 -174 168.5 -261t333.5 -87t333.5 87t168.5 261q18 82 18 252v822h-80v-818q0 -132 -9.5 -197t-33.5 -116q-103 -219 -397 -219q-144 0 -245.5 55.5t-150.5 163.5q-26 53 -35.5 117.5t-9.5 195.5v818h-79v-822zM446 1821h129l216 -279h-80z " />
<glyph unicode="&#xda;" horiz-adv-x="1343" d="M152 571v822h79v-818q0 -131 9.5 -195.5t35.5 -117.5q49 -108 150.5 -163.5t245.5 -55.5q294 0 397 219q24 51 33.5 116t9.5 197v818h80v-822q0 -169 -18 -252q-37 -174 -168.5 -261t-333.5 -87t-333.5 87t-168.5 261q-18 80 -18 252zM549 1542l215 279h129l-264 -279 h-80z" />
<glyph unicode="&#xdb;" horiz-adv-x="1343" d="M152 571q0 -173 18 -252q37 -174 168.5 -261t333.5 -87t333.5 87t168.5 261q18 82 18 252v822h-80v-818q0 -132 -9.5 -197t-33.5 -116q-103 -219 -397 -219q-144 0 -245.5 55.5t-150.5 163.5q-26 53 -35.5 117.5t-9.5 195.5v818h-79v-822zM379 1542l233 279h107l233 -279 h-82l-204 215l-205 -215h-82z" />
<glyph unicode="&#xdc;" horiz-adv-x="1343" d="M152 571v822h79v-818q0 -131 9.5 -195.5t35.5 -117.5q49 -108 150.5 -163.5t245.5 -55.5q294 0 397 219q24 51 33.5 116t9.5 197v818h80v-822q0 -169 -18 -252q-37 -174 -168.5 -261t-333.5 -87t-333.5 87t-168.5 261q-18 80 -18 252zM438 1597v187h84v-187h-84z M815 1597v187h84v-187h-84z" />
<glyph unicode="&#xdd;" horiz-adv-x="1110" d="M10 1393h96l455 -711l449 711h90l-502 -795v-598h-80v598zM469 1542l215 279h129l-264 -279h-80z" />
<glyph unicode="&#xde;" horiz-adv-x="1222" d="M168 0v1393h80v-176h407q201 0 299 -43q106 -46 167 -136t61 -213q0 -126 -59.5 -214t-166.5 -136q-101 -43 -299 -43h-409v-432h-80zM248 508h420q117 0 190.5 17.5t132.5 62.5q107 80 107 237q0 166 -140 254q-60 36 -128.5 49t-184.5 13h-397v-633z" />
<glyph unicode="&#xdf;" horiz-adv-x="991" d="M156 0v938q0 136 10.5 204t36.5 120q81 155 297 155q164 0 244.5 -84.5t80.5 -218.5q0 -122 -54 -194.5t-140 -94.5l-2 -2q31 -7 50.5 -13t49.5 -20.5t50 -32t42.5 -48t36 -69t22.5 -95t9 -125.5q0 -434 -299 -434q-145 0 -203 88q-26 43 -35.5 96t-9.5 160v30h68 q0 -45 0.5 -68t3.5 -62t9.5 -59.5t19 -47.5t31 -40.5t46.5 -23.5t64 -10q127 0 177 88.5t50 284.5q0 120 -23 187.5t-86 117.5q-75 57 -274 57h-86v66h74q147 0 202 24q134 63 134 230q0 110 -63 179t-191 69q-95 0 -152 -37.5t-86 -112.5q-17 -45 -23 -98t-6 -182v-922h-75 z" />
<glyph unicode="&#xe0;" horiz-adv-x="976" d="M90 266q0 123 76.5 188.5t239.5 94.5l272 47q35 6 46 17t11 40v33q0 127 -64.5 186.5t-203.5 59.5q-279 0 -279 -264l-67 41q-1 138 95.5 213t250.5 75q199 0 281 -100q57 -70 57 -197v-518q0 -71 19 -102t77 -31q36 0 66 10v-61q-32 -12 -86 -12q-73 0 -109.5 34.5 t-36.5 110.5q0 25 2 39h-2q-36 -86 -118 -140.5t-216 -54.5q-151 0 -231 81t-80 210zM170 270q0 -108 68.5 -168.5t183.5 -60.5q146 0 229.5 97.5t83.5 232.5v180q-21 -15 -135 -33l-147 -26q-52 -10 -83 -17t-74.5 -24t-67 -38.5t-41 -58t-17.5 -84.5zM268 1393h129 l215 -279h-80z" />
<glyph unicode="&#xe1;" horiz-adv-x="976" d="M90 266q0 123 76.5 188.5t239.5 94.5l272 47q35 6 46 17t11 40v33q0 127 -64.5 186.5t-203.5 59.5q-279 0 -279 -264l-67 41q-1 138 95.5 213t250.5 75q199 0 281 -100q57 -70 57 -197v-518q0 -71 19 -102t77 -31q36 0 66 10v-61q-32 -12 -86 -12q-73 0 -109.5 34.5 t-36.5 110.5q0 25 2 39h-2q-36 -86 -118 -140.5t-216 -54.5q-151 0 -231 81t-80 210zM170 270q0 -108 68.5 -168.5t183.5 -60.5q146 0 229.5 97.5t83.5 232.5v180q-21 -15 -135 -33l-147 -26q-52 -10 -83 -17t-74.5 -24t-67 -38.5t-41 -58t-17.5 -84.5zM377 1114l215 279 h129l-264 -279h-80z" />
<glyph unicode="&#xe2;" horiz-adv-x="976" d="M90 266q0 123 76.5 188.5t239.5 94.5l272 47q35 6 46 17t11 40v33q0 127 -64.5 186.5t-203.5 59.5q-279 0 -279 -264l-67 41q-1 138 95.5 213t250.5 75q199 0 281 -100q57 -70 57 -197v-518q0 -71 19 -102t77 -31q36 0 66 10v-61q-32 -12 -86 -12q-73 0 -109.5 34.5 t-36.5 110.5q0 25 2 39h-2q-36 -86 -118 -140.5t-216 -54.5q-151 0 -231 81t-80 210zM170 270q0 -108 68.5 -168.5t183.5 -60.5q146 0 229.5 97.5t83.5 232.5v180q-21 -15 -135 -33l-147 -26q-52 -10 -83 -17t-74.5 -24t-67 -38.5t-41 -58t-17.5 -84.5zM180 1114l234 279 h106l234 -279h-82l-205 215l-205 -215h-82z" />
<glyph unicode="&#xe3;" horiz-adv-x="976" d="M90 266q0 123 76.5 188.5t239.5 94.5l272 47q35 6 46 17t11 40v33q0 127 -64.5 186.5t-203.5 59.5q-279 0 -279 -264l-67 41q-1 138 95.5 213t250.5 75q199 0 281 -100q57 -70 57 -197v-518q0 -71 19 -102t77 -31q36 0 66 10v-61q-32 -12 -86 -12q-73 0 -109.5 34.5 t-36.5 110.5q0 25 2 39h-2q-36 -86 -118 -140.5t-216 -54.5q-151 0 -231 81t-80 210zM166 1180q8 35 26.5 67.5t58 59t91.5 26.5t156 -53q88 -45 133 -45q24 0 42 7.5t30.5 24.5t18.5 29t15 35l58 -22q-44 -138 -166 -138q-60 0 -158 50q-56 28 -83.5 38.5t-51.5 10.5 q-41 0 -68.5 -34t-40.5 -79zM170 270q0 -108 68.5 -168.5t183.5 -60.5q146 0 229.5 97.5t83.5 232.5v180q-21 -15 -135 -33l-147 -26q-52 -10 -83 -17t-74.5 -24t-67 -38.5t-41 -58t-17.5 -84.5z" />
<glyph unicode="&#xe4;" horiz-adv-x="976" d="M90 266q0 123 76.5 188.5t239.5 94.5l272 47q35 6 46 17t11 40v33q0 127 -64.5 186.5t-203.5 59.5q-279 0 -279 -264l-67 41q-1 138 95.5 213t250.5 75q199 0 281 -100q57 -70 57 -197v-518q0 -71 19 -102t77 -31q36 0 66 10v-61q-32 -12 -86 -12q-73 0 -109.5 34.5 t-36.5 110.5q0 25 2 39h-2q-36 -86 -118 -140.5t-216 -54.5q-151 0 -231 81t-80 210zM170 270q0 -108 68.5 -168.5t183.5 -60.5q146 0 229.5 97.5t83.5 232.5v180q-21 -15 -135 -33l-147 -26q-52 -10 -83 -17t-74.5 -24t-67 -38.5t-41 -58t-17.5 -84.5zM264 1157v186h84 v-186h-84zM641 1157v186h84v-186h-84z" />
<glyph unicode="&#xe5;" horiz-adv-x="976" d="M90 266q0 123 76.5 188.5t239.5 94.5l272 47q35 6 46 17t11 40v33q0 127 -64.5 186.5t-203.5 59.5q-279 0 -279 -264l-67 41q-1 138 95.5 213t250.5 75q199 0 281 -100q57 -70 57 -197v-518q0 -71 19 -102t77 -31q36 0 66 10v-61q-32 -12 -86 -12q-73 0 -109.5 34.5 t-36.5 110.5q0 25 2 39h-2q-36 -86 -118 -140.5t-216 -54.5q-151 0 -231 81t-80 210zM170 270q0 -108 68.5 -168.5t183.5 -60.5q146 0 229.5 97.5t83.5 232.5v180q-21 -15 -135 -33l-147 -26q-52 -10 -83 -17t-74.5 -24t-67 -38.5t-41 -58t-17.5 -84.5zM313 1264 q0 71 49 118.5t119 47.5t119 -47.5t49 -118.5t-49 -118.5t-119 -47.5t-119 47.5t-49 118.5zM369 1264q0 -46 32 -78.5t78 -32.5t78.5 32.5t32.5 78.5t-32.5 78t-78.5 32t-78 -32t-32 -78z" />
<glyph unicode="&#xe6;" horiz-adv-x="1683" d="M90 266q0 123 76.5 188.5t239.5 94.5l272 47q35 6 46 17t11 40v33q0 127 -64.5 186.5t-203.5 59.5q-279 0 -279 -264l-67 41q-1 138 95.5 213t250.5 75q199 0 281 -100q37 -46 51 -121q54 106 145 164.5t215 58.5q191 0 300.5 -135.5t109.5 -353.5v-18h-756v-19 q0 -122 38.5 -217t122 -153t202.5 -58q61 0 112.5 15t85.5 36t65 54t47.5 59t35.5 61l53 -53q-17 -33 -39 -64t-58 -64.5t-78.5 -57.5t-101 -40t-124.5 -16q-141 0 -243.5 66t-154.5 190q-35 -114 -128 -185t-247 -71q-151 0 -231 81t-80 210zM170 270q0 -108 68.5 -168.5 t183.5 -60.5q146 0 229.5 97.5t83.5 232.5v180q-21 -15 -135 -33l-147 -26q-52 -10 -83 -17t-74.5 -24t-67 -38.5t-41 -58t-17.5 -84.5zM815 557h670q-1 71 -23 137.5t-62 120.5t-102.5 86.5t-138.5 32.5q-145 0 -235 -99.5t-109 -277.5z" />
<glyph unicode="&#xe7;" horiz-adv-x="970" d="M102 483q0 234 115.5 375t314.5 141q140 0 235.5 -63.5t143.5 -181.5l-59 -62q-38 116 -121 179t-199 63q-160 0 -254 -120.5t-94 -328.5q0 -205 95 -324.5t253 -119.5q107 0 187.5 55t124.5 158l57 -51q-114 -220 -354 -228l-58 -71q16 4 52 4q70 0 115.5 -37t45.5 -107 q0 -82 -53 -120.5t-133 -38.5q-51 0 -104 16l16 53q47 -14 88 -14q55 0 89 24.5t34 77.5q0 51 -36 73t-89 22q-47 0 -86 -17l-25 33l86 104q-182 15 -284.5 151t-102.5 355z" />
<glyph unicode="&#xe8;" horiz-adv-x="1058" d="M102 483q0 232 117.5 374t312.5 142q191 0 301.5 -135.5t110.5 -353.5v-18h-760v-19q0 -188 94 -308t271 -120q61 0 112.5 15t86 36t65.5 54t48.5 59t35.5 61l53 -53q-22 -42 -53.5 -80.5t-80 -77t-118.5 -61.5t-151 -23q-203 0 -324 136t-121 372zM186 557h674 q-1 71 -23.5 137.5t-62.5 120.5t-103 86.5t-139 32.5q-146 0 -236.5 -99.5t-109.5 -277.5zM295 1393h129l215 -279h-80z" />
<glyph unicode="&#xe9;" horiz-adv-x="1058" d="M102 483q0 232 117.5 374t312.5 142q191 0 301.5 -135.5t110.5 -353.5v-18h-760v-19q0 -188 94 -308t271 -120q61 0 112.5 15t86 36t65.5 54t48.5 59t35.5 61l53 -53q-22 -42 -53.5 -80.5t-80 -77t-118.5 -61.5t-151 -23q-203 0 -324 136t-121 372zM186 557h674 q-1 71 -23.5 137.5t-62.5 120.5t-103 86.5t-139 32.5q-146 0 -236.5 -99.5t-109.5 -277.5zM434 1114l215 279h129l-264 -279h-80z" />
<glyph unicode="&#xea;" horiz-adv-x="1058" d="M102 483q0 232 117.5 374t312.5 142q191 0 301.5 -135.5t110.5 -353.5v-18h-760v-19q0 -188 94 -308t271 -120q61 0 112.5 15t86 36t65.5 54t48.5 59t35.5 61l53 -53q-22 -42 -53.5 -80.5t-80 -77t-118.5 -61.5t-151 -23q-203 0 -324 136t-121 372zM186 557h674 q-1 71 -23.5 137.5t-62.5 120.5t-103 86.5t-139 32.5q-146 0 -236.5 -99.5t-109.5 -277.5zM250 1114l233 279h107l233 -279h-82l-204 215l-205 -215h-82z" />
<glyph unicode="&#xeb;" horiz-adv-x="1058" d="M102 483q0 232 117.5 374t312.5 142q191 0 301.5 -135.5t110.5 -353.5v-18h-760v-19q0 -188 94 -308t271 -120q61 0 112.5 15t86 36t65.5 54t48.5 59t35.5 61l53 -53q-22 -42 -53.5 -80.5t-80 -77t-118.5 -61.5t-151 -23q-203 0 -324 136t-121 372zM186 557h674 q-1 71 -23.5 137.5t-62.5 120.5t-103 86.5t-139 32.5q-146 0 -236.5 -99.5t-109.5 -277.5zM303 1157v209h76v-209h-76zM684 1157v209h76v-209h-76z" />
<glyph unicode="&#xec;" horiz-adv-x="411" d="M-80 1393h129l215 -279h-80zM168 0v975h76v-975h-76z" />
<glyph unicode="&#xed;" horiz-adv-x="411" d="M150 1114l215 279h129l-265 -279h-79zM168 0v975h76v-975h-76z" />
<glyph unicode="&#xee;" horiz-adv-x="411" d="M-72 1114l234 279h106l234 -279h-82l-205 215l-205 -215h-82zM168 0v975h76v-975h-76z" />
<glyph unicode="&#xef;" horiz-adv-x="411" d="M-25 1157v186h84v-186h-84zM168 0v975h76v-975h-76zM352 1157v186h84v-186h-84z" />
<glyph unicode="&#xf0;" horiz-adv-x="1095" d="M102 483q0 240 110.5 378t317.5 138q230 0 344 -215l7 2q-50 220 -172 418l-377 -123l-19 66l357 115q-39 59 -97 124l68 33q53 -61 100 -133l197 64l20 -62l-180 -59q195 -322 195 -707q0 -117 -26.5 -215t-78.5 -173.5t-137 -118t-196 -42.5q-201 0 -317 137.5 t-116 372.5zM184 485q0 -207 95.5 -325.5t255.5 -118.5q158 0 257 120t99 324q0 209 -97 329t-259 120q-170 0 -260.5 -118.5t-90.5 -330.5z" />
<glyph unicode="&#xf1;" horiz-adv-x="1064" d="M168 0v975h76v-182h2q30 84 114 145t215 61q196 0 275 -141q49 -88 49 -264v-594h-76v532q0 80 -4.5 134.5t-20.5 108.5t-44.5 85t-77.5 50.5t-119 19.5q-135 0 -223 -88q-90 -97 -90 -252v-590h-76zM240 1180q8 35 26.5 67.5t58 59t91.5 26.5q33 0 66.5 -12.5 t88.5 -40.5q88 -45 134 -45q24 0 42 7.5t30.5 24.5t18.5 29t15 35l57 -22q-44 -138 -166 -138q-59 0 -157 50q-56 28 -83.5 38.5t-51.5 10.5q-41 0 -68.5 -34t-40.5 -79z" />
<glyph unicode="&#xf2;" horiz-adv-x="1067" d="M102 483q0 234 115 375t315 141q201 0 317 -141t116 -375q0 -230 -117.5 -369t-315.5 -139q-197 0 -313.5 139t-116.5 369zM184 485q0 -205 95 -324.5t253 -119.5q159 0 255 120t96 324q0 210 -94.5 329.5t-256.5 119.5q-160 0 -254 -120.5t-94 -328.5zM293 1393h129 l215 -279h-80z" />
<glyph unicode="&#xf3;" horiz-adv-x="1067" d="M102 483q0 234 115 375t315 141q201 0 317 -141t116 -375q0 -230 -117.5 -369t-315.5 -139q-197 0 -313.5 139t-116.5 369zM184 485q0 -205 95 -324.5t253 -119.5q159 0 255 120t96 324q0 210 -94.5 329.5t-256.5 119.5q-160 0 -254 -120.5t-94 -328.5zM442 1114l215 279 h129l-264 -279h-80z" />
<glyph unicode="&#xf4;" horiz-adv-x="1067" d="M102 483q0 234 115 375t315 141q201 0 317 -141t116 -375q0 -230 -117.5 -369t-315.5 -139q-197 0 -313.5 139t-116.5 369zM184 485q0 -205 95 -324.5t253 -119.5q159 0 255 120t96 324q0 210 -94.5 329.5t-256.5 119.5q-160 0 -254 -120.5t-94 -328.5zM246 1114l233 279 h107l233 -279h-82l-205 215l-204 -215h-82z" />
<glyph unicode="&#xf5;" horiz-adv-x="1067" d="M102 483q0 234 115 375t315 141q201 0 317 -141t116 -375q0 -230 -117.5 -369t-315.5 -139q-197 0 -313.5 139t-116.5 369zM184 485q0 -205 95 -324.5t253 -119.5q159 0 255 120t96 324q0 210 -94.5 329.5t-256.5 119.5q-160 0 -254 -120.5t-94 -328.5zM221 1180 q8 35 26.5 67.5t58 59t91.5 26.5t156 -53q88 -45 133 -45q24 0 42 7.5t30.5 24.5t19 29t15.5 35l57 -22q-44 -138 -166 -138q-60 0 -158 50q-56 28 -83.5 38.5t-51.5 10.5q-41 0 -68 -33.5t-40 -79.5z" />
<glyph unicode="&#xf6;" horiz-adv-x="1067" d="M102 483q0 234 115 375t315 141q201 0 317 -141t116 -375q0 -230 -117.5 -369t-315.5 -139q-197 0 -313.5 139t-116.5 369zM184 485q0 -205 95 -324.5t253 -119.5q159 0 255 120t96 324q0 210 -94.5 329.5t-256.5 119.5q-160 0 -254 -120.5t-94 -328.5zM305 1157v186h84 v-186h-84zM682 1157v186h84v-186h-84z" />
<glyph unicode="&#xf7;" horiz-adv-x="1583" d="M104 465v57h1377v-57h-1377zM743 0v233h99v-233h-99zM743 741v234h99v-234h-99z" />
<glyph unicode="&#xf8;" horiz-adv-x="1067" d="M102 483q0 234 115 375t315 141q176 0 287 -108l103 133l57 -43l-113 -145q99 -141 99 -353q0 -230 -117.5 -369t-315.5 -139q-154 0 -262 88l-100 -131l-55 43l104 138q-117 135 -117 370zM184 485q0 -191 84 -311l506 657q-92 103 -242 103q-160 0 -254 -120.5 t-94 -328.5zM315 121q86 -80 217 -80q159 0 255 120t96 324q0 168 -66 287z" />
<glyph unicode="&#xf9;" horiz-adv-x="1048" d="M160 381v594h76v-533q0 -82 4 -134.5t19 -107.5t42.5 -85.5t76 -50t118.5 -19.5q131 0 219 88q90 97 90 252v590h76v-975h-76v176h-2q-38 -85 -117.5 -143t-208.5 -58q-189 0 -268 142q-49 88 -49 264zM299 1393h129l215 -279h-80z" />
<glyph unicode="&#xfa;" horiz-adv-x="1048" d="M160 381v594h76v-533q0 -82 4 -134.5t19 -107.5t42.5 -85.5t76 -50t118.5 -19.5q131 0 219 88q90 97 90 252v590h76v-975h-76v176h-2q-38 -85 -117.5 -143t-208.5 -58q-189 0 -268 142q-49 88 -49 264zM414 1114l215 279h129l-264 -279h-80z" />
<glyph unicode="&#xfb;" horiz-adv-x="1048" d="M160 381v594h76v-533q0 -82 4 -134.5t19 -107.5t42.5 -85.5t76 -50t118.5 -19.5q131 0 219 88q90 97 90 252v590h76v-975h-76v176h-2q-38 -85 -117.5 -143t-208.5 -58q-189 0 -268 142q-49 88 -49 264zM244 1114l233 279h107l233 -279h-82l-205 215l-204 -215h-82z" />
<glyph unicode="&#xfc;" horiz-adv-x="1048" d="M160 381v594h76v-533q0 -82 4 -134.5t19 -107.5t42.5 -85.5t76 -50t118.5 -19.5q131 0 219 88q90 97 90 252v590h76v-975h-76v176h-2q-38 -85 -117.5 -143t-208.5 -58q-189 0 -268 142q-49 88 -49 264zM301 1157v186h84v-186h-84zM678 1157v186h84v-186h-84z" />
<glyph unicode="&#xfd;" horiz-adv-x="843" d="M31 975h86l248 -694l55 -162h2q23 71 61 168l262 688h82l-432 -1108q-53 -136 -82 -184q-31 -50 -71 -73.5t-105 -23.5q-50 0 -94 19v78q42 -25 98 -25q49 0 78 23q35 28 72 122l86 220zM324 1114l215 279h129l-265 -279h-79z" />
<glyph unicode="&#xfe;" horiz-adv-x="1097" d="M168 -389v1782h76v-621h2q34 96 121.5 161.5t214.5 65.5q196 0 304.5 -137.5t108.5 -378.5q0 -235 -112 -371.5t-301 -136.5q-247 0 -336 224h-2v-588h-76zM238 485q0 -212 90 -328t247 -116q160 0 249 117t89 329q0 214 -91.5 330.5t-250.5 116.5q-155 0 -244 -117 t-89 -332z" />
<glyph unicode="&#xff;" horiz-adv-x="843" d="M31 975h86l248 -694l55 -162h2q23 71 61 168l262 688h82l-432 -1108q-53 -136 -82 -184q-31 -50 -71 -73.5t-105 -23.5q-50 0 -94 19v78q42 -25 98 -25q49 0 78 23q35 28 72 122l86 220zM211 1157v186h84v-186h-84zM588 1157v186h84v-186h-84z" />
<glyph unicode="&#x152;" horiz-adv-x="2074" d="M106 692q0 175 52.5 313.5t147.5 228t225 136.5t288 47q116 0 242 -24h868v-76h-788v-559h717v-76h-717v-606h831v-76h-911q-134 -25 -248 -25q-157 0 -284.5 43.5t-223 130t-147.5 225t-52 318.5zM188 692q0 -163 51 -290t140.5 -204.5t202 -117t243.5 -39.5 q112 0 236 31v1245q-135 29 -242 29q-108 0 -201 -23.5t-173 -74.5t-136.5 -126.5t-88.5 -185t-32 -244.5z" />
<glyph unicode="&#x153;" horiz-adv-x="1818" d="M102 483q0 235 113 375.5t313 140.5q142 0 238 -72.5t141 -195.5q50 127 149.5 197.5t235.5 70.5q191 0 301.5 -136.5t110.5 -352.5v-16h-760v-21q0 -188 94 -308t271 -120q61 0 112.5 15t86 36t65.5 54t48.5 59t35.5 61l53 -53q-17 -33 -39 -64t-58.5 -64.5t-78.5 -57.5 t-101.5 -40t-125.5 -16q-142 0 -246.5 68.5t-155.5 196.5q-44 -123 -137 -194t-240 -71q-197 0 -311.5 138.5t-114.5 369.5zM184 485q0 -206 93 -325t251 -119t251 119.5t93 324.5q0 211 -91.5 330t-252.5 119q-160 0 -252 -120t-92 -329zM946 559h674q-2 70 -24.5 136 t-62.5 119.5t-103 86.5t-138 33q-145 0 -235.5 -98.5t-110.5 -276.5z" />
<glyph unicode="&#x178;" horiz-adv-x="1110" d="M10 1393h96l455 -711l449 711h90l-502 -795v-598h-80v598zM330 1597v187h84v-187h-84zM707 1597v187h84v-187h-84z" />
<glyph unicode="&#x2c6;" horiz-adv-x="921" d="M162 1114l233 279h107l233 -279h-82l-204 215l-205 -215h-82z" />
<glyph unicode="&#x2dc;" horiz-adv-x="921" d="M141 1180q8 35 26.5 67.5t58 59t91.5 26.5t156 -53q88 -45 133 -45q24 0 42 7.5t30.5 24.5t19 29t15.5 35l57 -22q-44 -138 -166 -138q-60 0 -158 50q-56 28 -83.5 38.5t-51.5 10.5q-41 0 -68 -33.5t-40 -79.5z" />
<glyph unicode="&#x2000;" horiz-adv-x="929" />
<glyph unicode="&#x2001;" horiz-adv-x="1858" />
<glyph unicode="&#x2002;" horiz-adv-x="929" />
<glyph unicode="&#x2003;" horiz-adv-x="1858" />
<glyph unicode="&#x2004;" horiz-adv-x="619" />
<glyph unicode="&#x2005;" horiz-adv-x="464" />
<glyph unicode="&#x2006;" horiz-adv-x="309" />
<glyph unicode="&#x2007;" horiz-adv-x="309" />
<glyph unicode="&#x2008;" horiz-adv-x="232" />
<glyph unicode="&#x2009;" horiz-adv-x="371" />
<glyph unicode="&#x200a;" horiz-adv-x="103" />
<glyph unicode="&#x2010;" horiz-adv-x="772" d="M102 510v74h568v-74h-568z" />
<glyph unicode="&#x2011;" horiz-adv-x="772" d="M102 510v74h568v-74h-568z" />
<glyph unicode="&#x2012;" horiz-adv-x="772" d="M102 510v74h568v-74h-568z" />
<glyph unicode="&#x2013;" horiz-adv-x="1327" d="M143 522v58h1043v-58h-1043z" />
<glyph unicode="&#x2014;" horiz-adv-x="1579" d="M74 522v58h1431v-58h-1431z" />
<glyph unicode="&#x2018;" horiz-adv-x="329" d="M92 862v250q0 110 14 170q24 94 99 131v-70q-35 -34 -46.5 -83.5t-11.5 -143.5v-20h43v-234h-98z" />
<glyph unicode="&#x2019;" horiz-adv-x="329" d="M125 842v69q35 33 46 83t11 145v20h-43v234h99v-250q0 -106 -15 -170q-24 -95 -98 -131z" />
<glyph unicode="&#x201a;" horiz-adv-x="645" d="M141 -248q35 34 46.5 84t11.5 144v20h-43v233h98v-249q0 -110 -14 -170q-24 -94 -99 -131v69zM426 -248q35 33 46 83t11 145v20h-43v233h99v-249q0 -106 -15 -170q-24 -95 -98 -131v69z" />
<glyph unicode="&#x201c;" horiz-adv-x="614" d="M92 862v250q0 110 14 170q24 94 99 131v-70q-35 -34 -46.5 -83.5t-11.5 -143.5v-20h43v-234h-98zM377 862v250q0 110 14 170q24 95 98 131v-70q-35 -33 -46 -82.5t-11 -144.5v-20h43v-234h-98z" />
<glyph unicode="&#x201d;" horiz-adv-x="614" d="M125 842v69q35 33 46 83t11 145v20h-43v234h99v-250q0 -106 -15 -170q-24 -95 -98 -131zM410 842v69q35 33 46 83t11 145v20h-43v234h98v-250q0 -111 -14 -170q-24 -95 -98 -131z" />
<glyph unicode="&#x201e;" horiz-adv-x="360" d="M139 -248q35 34 46.5 84t11.5 144v20h-43v233h98v-249q0 -110 -14 -170q-24 -94 -99 -131v69z" />
<glyph unicode="&#x2022;" horiz-adv-x="581" d="M92 702q0 79 58.5 137t138.5 58q82 0 141 -57.5t59 -137.5q0 -83 -59 -140.5t-141 -57.5q-80 0 -138.5 58t-58.5 140z" />
<glyph unicode="&#x2026;" horiz-adv-x="1681" d="M109 0v233h98v-233h-98zM791 0v233h98v-233h-98zM1475 0v233h98v-233h-98z" />
<glyph unicode="&#x202f;" horiz-adv-x="371" />
<glyph unicode="&#x2039;" horiz-adv-x="434" d="M86 549v72l276 325v-112l-215 -246l215 -250v-115z" />
<glyph unicode="&#x203a;" horiz-adv-x="434" d="M72 223v115l215 250l-215 246v112l276 -325v-72z" />
<glyph unicode="&#x205f;" horiz-adv-x="464" />
<glyph unicode="&#x20ac;" d="M6 508l25 67h143q-4 35 -4 119q0 39 4 113h-168l25 67h149q34 251 155.5 397t330.5 146q307 0 428 -323l-68 -52q-48 143 -138 223.5t-222 80.5q-168 0 -270.5 -127.5t-133.5 -344.5h569l-22 -67h-553q-4 -35 -4 -109q0 -86 4 -123h479l-22 -67h-451q56 -461 404 -461 q273 0 364 293l68 -35q-115 -330 -432 -330q-112 0 -200.5 41.5t-145.5 116t-91.5 168t-48.5 207.5h-174z" />
<glyph unicode="&#x2122;" horiz-adv-x="1730" d="M33 1327v66h657v-66h-295v-829h-69v829h-293zM807 498h70v612l-5 195h5q33 -111 41 -134l243 -673h60l231 678q28 85 39 129h4q-4 -82 -4 -179v-628h70v895h-103l-215 -641q-14 -39 -26 -81.5t-17 -65.5l-6 -23q-22 84 -53 170l-232 641h-102v-895z" />
<glyph unicode="&#xe000;" horiz-adv-x="972" d="M0 0v973h973v-973h-973z" />
</font>
</defs>
</svg>
